<svg width="20" height="20" viewBox="0 0 20 20" fill="none" xmlns="http://www.w3.org/2000/svg">
<g clip-path="url(#clip0_10568_10865)">
<path d="M16.8051 12.0139H12.6385C12.1782 12.0145 11.7369 12.1976 11.4114 12.523C11.086 12.8485 10.9029 13.2898 10.9023 13.75V17.9167C10.9029 18.377 11.086 18.8182 11.4114 19.1437C11.7369 19.4692 12.1782 19.6523 12.6385 19.6528H16.8051C17.2654 19.6523 17.7067 19.4692 18.0321 19.1437C18.3576 18.8182 18.5407 18.377 18.5412 17.9167V13.75C18.5407 13.2898 18.3576 12.8485 18.0321 12.523C17.7067 12.1976 17.2654 12.0145 16.8051 12.0139ZM15.1284 15.6348H15.0044V17.0191C15.0407 17.0192 15.0765 17.0264 15.1099 17.0404C15.1434 17.0545 15.1736 17.075 15.199 17.1009C15.2244 17.1267 15.2444 17.1574 15.2579 17.191C15.2713 17.2247 15.2779 17.2607 15.2773 17.2969C15.2778 17.3329 15.2711 17.3685 15.2575 17.4018C15.244 17.4351 15.2239 17.4654 15.1984 17.4908C15.173 17.5162 15.1427 17.5363 15.1094 17.5498C15.0761 17.5633 15.0404 17.57 15.0044 17.5695C14.8586 17.5689 14.719 17.5108 14.6159 17.4077C14.5128 17.3046 14.4546 17.1649 14.4541 17.0191V15.6348H14.31C14.2741 15.6349 14.2386 15.6279 14.2055 15.6143C14.1724 15.6006 14.1423 15.5806 14.1169 15.5552C14.0916 15.5299 14.0715 15.4998 14.0579 15.4667C14.0442 15.4335 14.0373 15.398 14.0374 15.3622C14.0369 15.3262 14.0435 15.2905 14.057 15.2572C14.0705 15.2238 14.0906 15.1935 14.116 15.1681C14.1414 15.1426 14.1717 15.1225 14.205 15.109C14.2383 15.0955 14.274 15.0887 14.31 15.0893H14.4541V14.3702C14.4541 14.3339 14.4613 14.298 14.4753 14.2646C14.4893 14.2312 14.5099 14.2009 14.5357 14.1754C14.5616 14.15 14.5922 14.13 14.6259 14.1166C14.6596 14.1032 14.6956 14.0966 14.7319 14.0972C14.7678 14.0967 14.8036 14.1034 14.8369 14.117C14.8702 14.1305 14.9005 14.1506 14.926 14.176C14.9514 14.2015 14.9715 14.2318 14.985 14.2651C14.9986 14.2985 15.0053 14.3342 15.0048 14.3702V15.0893H15.1287C15.2016 15.0893 15.2715 15.1178 15.3235 15.1689C15.3754 15.2199 15.4052 15.2894 15.4065 15.3622C15.4051 15.435 15.3752 15.5044 15.3232 15.5554C15.2712 15.6063 15.2012 15.6349 15.1284 15.6348Z" fill="#4C4ECA"/>
<path d="M16.8051 2.98608H12.6385C12.1782 2.98664 11.7369 3.16972 11.4114 3.49519C11.086 3.82065 10.9029 4.26192 10.9023 4.7222V8.88886C10.9029 9.34914 11.086 9.7904 11.4114 10.1159C11.7369 10.4413 12.1782 10.6244 12.6385 10.625H16.8051C17.2654 10.6244 17.7067 10.4413 18.0321 10.1159C18.3576 9.7904 18.5407 9.34914 18.5412 8.88886V4.7222C18.5407 4.26192 18.3576 3.82065 18.0321 3.49519C17.7067 3.16972 17.2654 2.98664 16.8051 2.98608ZM15.1086 5.9722C15.1445 5.9721 15.18 5.9791 15.2131 5.99278C15.2463 6.00647 15.2764 6.02657 15.3018 6.05193C15.3271 6.07729 15.3472 6.10741 15.3609 6.14056C15.3746 6.17372 15.3816 6.20925 15.3815 6.24511C15.3808 6.31724 15.3518 6.3862 15.3008 6.43717C15.2497 6.48814 15.1807 6.51705 15.1086 6.51768H14.96V8.26872C14.96 8.34111 14.9312 8.41052 14.88 8.4617C14.8289 8.51289 14.7594 8.54164 14.6871 8.54164C14.6147 8.54164 14.5453 8.51289 14.4941 8.4617C14.4429 8.41052 14.4141 8.34111 14.4141 8.26872V6.51768H14.2853C14.2126 6.51769 14.1427 6.48914 14.0907 6.43817C14.0388 6.3872 14.0089 6.31788 14.0076 6.24511C14.0076 6.20887 14.0148 6.173 14.0289 6.13959C14.0429 6.10618 14.0635 6.0759 14.0893 6.0505C14.1152 6.0251 14.1458 6.0051 14.1794 5.99165C14.2131 5.97821 14.2491 5.9716 14.2853 5.9722H14.4141V5.90275C14.4055 5.73547 14.4378 5.5686 14.5082 5.41664C14.5435 5.34356 14.5934 5.27853 14.6548 5.2256C14.7163 5.17267 14.788 5.13298 14.8655 5.109C14.9622 5.08106 15.0625 5.06772 15.1631 5.06942C15.2344 5.07195 15.3019 5.10205 15.3515 5.15338C15.401 5.20471 15.4287 5.27326 15.4287 5.34459C15.4287 5.41592 15.401 5.48447 15.3515 5.5358C15.3019 5.58713 15.2344 5.61723 15.1631 5.61976C15.1196 5.61685 15.076 5.62191 15.0343 5.6347C15.0229 5.63617 15.0123 5.64157 15.0044 5.64997C14.9652 5.72805 14.9497 5.81596 14.96 5.90275V5.9722H15.1086Z" fill="#7C6EF7"/>
<path d="M7.77778 12.0139H3.61111C3.15084 12.0145 2.70957 12.1976 2.3841 12.523C2.05864 12.8485 1.87555 13.2898 1.875 13.75V17.9167C1.87555 18.377 2.05864 18.8182 2.3841 19.1437C2.70957 19.4692 3.15084 19.6523 3.61111 19.6528H7.77778C8.23805 19.6523 8.67932 19.4692 9.00478 19.1437C9.33025 18.8182 9.51334 18.377 9.51389 17.9167V13.75C9.51334 13.2898 9.33025 12.8485 9.00478 12.523C8.67932 12.1976 8.23805 12.0145 7.77778 12.0139ZM7.23854 16.1459L4.46076 17.5347C4.40768 17.5613 4.34869 17.5738 4.28941 17.571C4.23013 17.5682 4.17255 17.5503 4.12216 17.519C4.07178 17.4877 4.03026 17.4439 4.00158 17.392C3.9729 17.34 3.95801 17.2816 3.95833 17.2222V14.4445C3.95801 14.3851 3.9729 14.3267 4.00158 14.2747C4.03026 14.2228 4.07178 14.1791 4.12216 14.1477C4.17255 14.1164 4.23013 14.0985 4.28941 14.0957C4.34869 14.093 4.40768 14.1054 4.46076 14.132L7.23854 15.5209C7.29725 15.5493 7.34676 15.5937 7.3814 15.649C7.41604 15.7042 7.43441 15.7681 7.43441 15.8334C7.43441 15.8986 7.41604 15.9625 7.3814 16.0178C7.34676 16.073 7.29725 16.1174 7.23854 16.1459Z" fill="#DD6F2B"/>
<path d="M6.08667 0.180745L3.55035 4.01136L1.10717 5.70248C0.986882 5.78605 0.898584 5.90804 0.856775 6.04841C0.814967 6.18879 0.822132 6.33921 0.877096 6.47497L0.469277 7.21869C0.450054 7.25372 0.440962 7.29341 0.443018 7.33331C0.445075 7.37321 0.4582 7.41176 0.480923 7.44462L1.46079 8.86024C1.48353 8.89313 1.51499 8.91904 1.55164 8.93505C1.58829 8.95106 1.62867 8.95654 1.66826 8.95088L2.50783 8.83091C2.61555 8.93017 2.75381 8.98984 2.89991 9.00015C3.04602 9.01045 3.19129 8.97077 3.31187 8.88762L3.52987 8.73672L5.69705 10.5797C5.80542 10.6719 5.94121 10.7257 6.0833 10.7327C6.22539 10.7398 6.36583 10.6997 6.4828 10.6187L7.16636 10.1456C7.24778 10.0893 7.31516 10.015 7.3633 9.92852C7.41143 9.84202 7.43903 9.74561 7.44396 9.64674C7.4489 9.54788 7.43103 9.4492 7.39174 9.35834C7.35246 9.26748 7.29281 9.18688 7.2174 9.12275L5.31142 7.50356L5.7538 7.19735L10.2337 6.17198C10.268 6.16415 10.2999 6.14802 10.3266 6.12499C10.3532 6.10196 10.3738 6.07275 10.3865 6.03992C10.3992 6.00708 10.4037 5.97163 10.3995 5.93666C10.3953 5.9017 10.3827 5.86829 10.3626 5.83937L6.44311 0.17691C6.42308 0.147991 6.39627 0.124422 6.36502 0.108267C6.33378 0.0921107 6.29905 0.0838609 6.26387 0.0842394C6.2287 0.084618 6.19415 0.0936126 6.16326 0.110437C6.13237 0.127261 6.10607 0.151402 6.08667 0.180745ZM2.21551 8.43808L1.73912 8.50609L0.910644 7.30919L1.14206 6.88727L2.21551 8.43808ZM6.93784 9.4513C6.9629 9.47264 6.98273 9.49945 6.99581 9.52965C7.00888 9.55986 7.01486 9.59266 7.01327 9.62554C7.01168 9.65841 7.00257 9.69049 6.98665 9.71929C6.97072 9.74809 6.9484 9.77286 6.9214 9.79168L6.23836 10.2645C6.19938 10.2915 6.15256 10.3049 6.10518 10.3026C6.0578 10.3002 6.01252 10.2823 5.97637 10.2516L3.89581 8.48342L4.94513 7.7571L6.93784 9.4513ZM5.36728 6.94143L3.0669 8.53371C3.01997 8.5662 2.96206 8.57871 2.9059 8.56849C2.84975 8.55828 2.79995 8.52617 2.76747 8.47924L2.64498 8.30229L3.88365 7.44491C3.93058 7.41242 3.96268 7.36263 3.9729 7.30647C3.98311 7.25032 3.9706 7.1924 3.93811 7.14547C3.90563 7.09854 3.85583 7.06644 3.79968 7.05622C3.74352 7.04601 3.68561 7.05852 3.63868 7.09101L2.40002 7.94839L2.15505 7.59448L3.39371 6.7371C3.44064 6.70462 3.47275 6.65482 3.48296 6.59867C3.49318 6.54251 3.48067 6.4846 3.44818 6.43767C3.4157 6.39074 3.3659 6.35863 3.30975 6.34842C3.25359 6.3382 3.19568 6.35071 3.14875 6.3832L1.91008 7.24058L1.66512 6.88668L2.90378 6.02929C2.95071 5.99681 2.98282 5.94701 2.99303 5.89086C3.00325 5.8347 2.99074 5.77679 2.95825 5.72986C2.92577 5.68293 2.87597 5.65082 2.81981 5.64061C2.76366 5.63039 2.70575 5.64291 2.65882 5.67539L1.42015 6.53277L1.29767 6.35582C1.26518 6.30889 1.25267 6.25098 1.26289 6.19482C1.2731 6.13867 1.30521 6.08887 1.35214 6.05638L3.65251 4.4641L5.36728 6.94143ZM9.82776 5.82298L5.76074 6.75362L3.96698 4.16216L6.27024 0.683411L9.82776 5.82298Z" fill="#151A6A"/>
</g>
<defs>
<clipPath id="clip0_10568_10865">
<rect width="20" height="20" fill="white"/>
</clipPath>
</defs>
</svg>
