<svg width="74" height="57" viewBox="0 0 74 57" fill="none" xmlns="http://www.w3.org/2000/svg">
<path d="M40.4365 52.8613C45.261 52.8613 49.1865 48.9358 49.1865 44.1113V12.6113C49.1865 7.78687 45.261 3.86133 40.4365 3.86133H15.9365C11.1121 3.86133 7.18652 7.78687 7.18652 12.6113V44.1113C7.18652 48.9358 11.1121 52.8613 15.9365 52.8613H40.4365ZM10.6865 12.6113C10.6865 9.71631 13.0415 7.36133 15.9365 7.36133H40.4365C43.3315 7.36133 45.6865 9.71631 45.6865 12.6113V44.1113C45.6865 47.0063 43.3315 49.3613 40.4365 49.3613H15.9365C13.0415 49.3613 10.6865 47.0063 10.6865 44.1113V12.6113Z" fill="#A7A7A7"/>
<path d="M24.6865 30.1113H38.6865C39.6538 30.1113 40.4365 29.3278 40.4365 28.3613C40.4365 27.3949 39.6538 26.6113 38.6865 26.6113H24.6865C23.7192 26.6113 22.9365 27.3949 22.9365 28.3613C22.9365 29.3278 23.7192 30.1113 24.6865 30.1113Z" fill="#A7A7A7"/>
<path d="M24.6865 21.3613H38.6865C39.6538 21.3613 40.4365 20.5778 40.4365 19.6113C40.4365 18.6449 39.6538 17.8613 38.6865 17.8613H24.6865C23.7192 17.8613 22.9365 18.6449 22.9365 19.6113C22.9365 20.5778 23.7192 21.3613 24.6865 21.3613Z" fill="#A7A7A7"/>
<path d="M24.6865 38.8613H38.6865C39.6538 38.8613 40.4365 38.0778 40.4365 37.1113C40.4365 36.1449 39.6538 35.3613 38.6865 35.3613H24.6865C23.7192 35.3613 22.9365 36.1449 22.9365 37.1113C22.9365 38.0778 23.7192 38.8613 24.6865 38.8613Z" fill="#A7A7A7"/>
<path d="M17.7207 21.3613C18.688 21.3613 19.4707 20.5778 19.4707 19.6113C19.4707 18.6449 18.688 17.8613 17.7207 17.8613H17.7036C16.738 17.8613 15.9622 18.6449 15.9622 19.6113C15.9622 20.5778 16.7551 21.3613 17.7207 21.3613Z" fill="#A7A7A7"/>
<path d="M17.7207 30.1113C18.688 30.1113 19.4707 29.3278 19.4707 28.3613C19.4707 27.3949 18.688 26.6113 17.7207 26.6113H17.7036C16.738 26.6113 15.9622 27.3949 15.9622 28.3613C15.9622 29.3278 16.7551 30.1113 17.7207 30.1113Z" fill="#A7A7A7"/>
<path d="M17.7207 38.8613C18.688 38.8613 19.4707 38.0778 19.4707 37.1113C19.4707 36.1449 18.688 35.3613 17.7207 35.3613H17.7036C16.738 35.3613 15.9622 36.1449 15.9622 37.1113C15.9622 38.0778 16.7551 38.8613 17.7207 38.8613Z" fill="#A7A7A7"/>
<path d="M65.8839 48.9127C66.2581 48.5385 66.2581 47.9317 65.8839 47.5574L64.1898 45.8633L65.8839 44.1692C66.2581 43.7949 66.2581 43.1881 65.8839 42.8139C65.5097 42.4396 64.9028 42.4396 64.5286 42.8139L62.8345 44.508L61.1404 42.8139C60.7661 42.4396 60.1593 42.4396 59.7851 42.8139C59.4108 43.1882 59.4108 43.7949 59.7851 44.1692L61.4792 45.8633L59.7851 47.5574C59.4108 47.9317 59.4108 48.5385 59.7851 48.9127C60.1593 49.2869 60.7661 49.2869 61.1404 48.9127L62.8345 47.2186L64.5286 48.9127C64.9028 49.2869 65.5097 49.2869 65.8839 48.9127Z" fill="#A7A7A7"/>
<path fill-rule="evenodd" clip-rule="evenodd" d="M56.463 39.0118C60.1064 35.3685 66.0134 35.3685 69.6568 39.0118C73.0714 42.4264 73.2858 47.8293 70.3001 51.4936C66.6413 55.9838 59.8776 55.6202 56.463 52.2056C52.8196 48.5623 52.8196 42.6552 56.463 39.0118ZM68.3015 40.3671C65.4066 37.4722 60.7132 37.4722 57.8183 40.3671C54.9234 43.262 54.9234 47.9554 57.8183 50.8504C60.7132 53.7452 65.4066 53.7452 68.3015 50.8504C71.1964 47.9554 71.1964 43.262 68.3015 40.3671Z" fill="#A7A7A7"/>
</svg>
