<svg width="81" height="82" viewBox="0 0 81 82" fill="none" xmlns="http://www.w3.org/2000/svg">
<path d="M58.756 0.402278C57.8255 0.566165 57.0165 0.660692 56.2075 0.755219C49.3862 3.19204 44.9877 9.99182 37.2494 9.25587C25.3716 8.18415 10.7212 4.42948 2.6999 15.5542C1.4109 17.546 0.584096 19.7759 0.423278 22.0998C0.26246 24.4237 0.767012 26.8415 2.13703 29.2096C5.52649 34.8266 10.2006 39.7468 9.37078 46.6761C8.10695 56.909 0.647318 70.9646 9.17068 78.7078C10.1178 79.5671 11.2619 80.351 12.6344 81.0403C14.6152 81.9818 16.912 82.2372 18.9566 81.4699C20.1049 81.0231 21.2588 80.6311 22.4185 80.2939C31.2071 78.1517 39.8845 77.3863 48.8172 78.6624C53.411 79.4278 58.0054 80.9592 62.8004 80.1355C63.5725 79.9952 64.335 79.8062 65.0832 79.5696C66.6553 79.0706 68.1414 78.3332 69.4897 77.3832C70.1762 76.7622 70.7996 76.0749 71.3508 75.3312C72.9614 73.1479 73.806 70.5871 73.7312 67.8096C73.6919 67.0056 73.5587 66.209 73.334 65.436C72.3611 62.3725 70.9709 59.3593 69.8052 56.3308C68.6396 53.3022 67.6992 50.2669 67.6274 47.185C67.3089 44.2743 68.6095 41.3894 69.9458 38.7758C73.1536 33.4817 77.6601 29.9486 79.4598 24.2727C80.987 18.6257 80.5647 12.665 77.5073 7.55623C75.1472 3.73219 71.233 0.636139 66.4385 0.292406C64.1392 0.0131224 61.5888 0.0296958 58.756 0.402278Z" fill="#DCE5F7" fill-opacity="0.2"/>
<g style="mix-blend-mode:multiply">
<path d="M51.2068 72.885H28.2994C25.7079 72.885 23.2226 71.7022 21.3904 69.5956L19.7368 67.6928C18.236 65.968 17.3932 63.6282 17.3932 61.1864V20.4295C17.3932 18.2701 18.9161 16.5195 20.795 16.5195H52.7401L53.3023 70.4445C53.3195 71.7888 52.3743 72.885 51.2068 72.885Z" fill="#DCE5F7"/>
</g>
<path d="M29.2196 8.02441H56.2394C57.2488 8.02441 58.2167 8.42536 58.9304 9.13905C59.6441 9.85274 60.0451 10.8207 60.0451 11.83V67.7702C60.0451 68.7795 59.6441 69.7475 58.9304 70.4611C58.2167 71.1748 57.2488 71.5758 56.2394 71.5758H29.2196C28.2102 71.5758 27.2423 71.1748 26.5286 70.4611C25.8149 69.7475 25.4139 68.7795 25.4139 67.7702V11.8306C25.4139 10.8213 25.8149 9.85336 26.5286 9.13967C27.2423 8.42598 28.2102 8.02503 29.2196 8.02503V8.02441Z" fill="#083B45"/>
<path d="M27.3794 8.16797L26.4979 9.1697V9.84797L27.9048 9.31518L27.3794 8.16797Z" fill="#07343B"/>
<path d="M59.1704 70.1987L60.1249 69.1233L58.6769 68.666L59.1704 70.1987Z" fill="#07343B"/>
<path d="M57.224 6.91309H30.2034C28.1013 6.91309 26.3972 8.61719 26.3972 10.7193V66.6595C26.3972 68.7616 28.1013 70.4657 30.2034 70.4657H57.224C59.3261 70.4657 61.0302 68.7616 61.0302 66.6595V10.7193C61.0302 8.61719 59.3261 6.91309 57.224 6.91309Z" fill="#19575E"/>
<path d="M59.5804 15.0762H27.847V62.3027H59.5804V15.0762Z" fill="#FFD871"/>
<path d="M46.9826 12.3251H40.4449C40.2845 12.3251 40.1307 12.2614 40.0174 12.148C39.904 12.0346 39.8403 11.8808 39.8403 11.7204C39.8402 11.641 39.8558 11.5623 39.8861 11.4889C39.9165 11.4155 39.961 11.3487 40.0171 11.2925C40.0733 11.2363 40.14 11.1917 40.2134 11.1613C40.2868 11.1309 40.3654 11.1152 40.4449 11.1152H46.9826C47.0621 11.1152 47.1408 11.1308 47.2143 11.1611C47.2877 11.1915 47.3545 11.2361 47.4107 11.2923C47.4669 11.3485 47.5115 11.4153 47.5419 11.4887C47.5723 11.5622 47.5879 11.6409 47.5878 11.7204C47.5878 11.7999 47.5721 11.8786 47.5417 11.952C47.5113 12.0254 47.4667 12.092 47.4105 12.1482C47.3543 12.2043 47.2875 12.2489 47.2141 12.2792C47.1407 12.3096 47.062 12.3251 46.9826 12.3251Z" fill="#238787"/>
<path d="M48.6951 67.0389H38.4444C38.2839 67.0389 38.13 66.9752 38.0165 66.8617C37.903 66.7482 37.8392 66.5942 37.8392 66.4337C37.8394 66.2733 37.9032 66.1195 38.0167 66.0061C38.1302 65.8928 38.284 65.8291 38.4444 65.8291H48.6951C48.8554 65.8291 49.0092 65.8928 49.1226 66.0062C49.236 66.1196 49.2997 66.2734 49.2997 66.4337C49.2998 66.5132 49.2842 66.5918 49.2538 66.6653C49.2235 66.7387 49.179 66.8054 49.1228 66.8616C49.0667 66.9178 49 66.9624 48.9266 66.9928C48.8532 67.0233 48.7745 67.0389 48.6951 67.0389Z" fill="#238787"/>
<g style="mix-blend-mode:multiply">
<path d="M63.0104 51.4131H55.506L45.7188 56.8368L47.8567 51.4131H12.6694C12.0547 51.4123 11.4654 51.1675 11.031 50.7324C10.5966 50.2974 10.3527 49.7077 10.3529 49.0929V24.2557C10.3528 23.9511 10.4128 23.6494 10.5293 23.3679C10.6458 23.0864 10.8167 22.8306 11.0321 22.6152C11.2475 22.3997 11.5032 22.2288 11.7847 22.1122C12.0661 21.9956 12.3678 21.9355 12.6725 21.9355H63.0135C63.6288 21.9355 64.219 22.18 64.6541 22.6151C65.0892 23.0502 65.3337 23.6404 65.3337 24.2557V49.0929C65.3337 49.3979 65.2735 49.6998 65.1568 49.9815C65.04 50.2632 64.8688 50.5192 64.653 50.7346C64.4372 50.9501 64.1811 51.121 63.8992 51.2374C63.6174 51.3538 63.3153 51.4135 63.0104 51.4131Z" fill="#DCE5F7"/>
</g>
<path d="M65.0077 47.8936H58.6855L49.11 55.948L51.1448 47.8936H15.2904C14.6827 47.8936 14.0999 47.6522 13.6701 47.2225C13.2404 46.7928 12.999 46.21 12.999 45.6023V21.0726C12.999 20.4649 13.2404 19.8821 13.6701 19.4524C14.0999 19.0227 14.6827 18.7812 15.2904 18.7812H65.0089C65.6166 18.7812 66.1995 19.0227 66.6292 19.4524C67.0589 19.8821 67.3003 20.4649 67.3003 21.0726V45.6023C67.3003 45.9033 67.241 46.2013 67.1258 46.4794C67.0105 46.7575 66.8416 47.0101 66.6287 47.2229C66.4158 47.4357 66.1631 47.6045 65.8849 47.7196C65.6068 47.8346 65.3087 47.8938 65.0077 47.8936Z" fill="#0461A5"/>
<path d="M69.0331 17.657C68.9462 17.6571 68.8613 17.6314 68.789 17.5832C68.7167 17.535 68.6604 17.4664 68.6271 17.3861C68.5939 17.3059 68.5852 17.2175 68.6022 17.1323C68.6191 17.0471 68.661 16.9689 68.7225 16.9075L70.3343 15.2963C70.3748 15.2543 70.4233 15.2208 70.4768 15.1978C70.5304 15.1748 70.588 15.1626 70.6463 15.1621C70.7046 15.1616 70.7624 15.1727 70.8163 15.1948C70.8703 15.2168 70.9193 15.2494 70.9605 15.2907C71.0018 15.3319 71.0343 15.3809 71.0564 15.4349C71.0785 15.4888 71.0896 15.5466 71.0891 15.6049C71.0885 15.6632 71.0764 15.7208 71.0534 15.7744C71.0303 15.8279 70.9969 15.8764 70.9549 15.9168L69.3437 17.5287C69.2612 17.6109 69.1495 17.657 69.0331 17.657Z" fill="#9CBAF7"/>
<path d="M72.212 19.9304H70.2184C70.1047 19.9262 69.9972 19.878 69.9183 19.7961C69.8394 19.7143 69.7953 19.605 69.7953 19.4912C69.7953 19.3775 69.8394 19.2682 69.9183 19.1863C69.9972 19.1044 70.1047 19.0563 70.2184 19.0521H72.212C72.2711 19.0499 72.33 19.0596 72.3852 19.0807C72.4404 19.1017 72.4908 19.1337 72.5333 19.1747C72.5759 19.2157 72.6098 19.2649 72.6329 19.3193C72.656 19.3737 72.6679 19.4321 72.6679 19.4912C72.6679 19.5503 72.656 19.6088 72.6329 19.6632C72.6098 19.7176 72.5759 19.7668 72.5333 19.8078C72.4908 19.8488 72.4404 19.8808 72.3852 19.9018C72.33 19.9229 72.2711 19.9326 72.212 19.9304Z" fill="#9CBAF7"/>
<path d="M66.7619 16.4714C66.6454 16.4713 66.5337 16.4249 66.4514 16.3425C66.369 16.2602 66.3226 16.1485 66.3225 16.032V14.0389C66.3202 13.9799 66.33 13.921 66.351 13.8658C66.3721 13.8105 66.4041 13.7602 66.4451 13.7176C66.4861 13.675 66.5353 13.6412 66.5897 13.6181C66.6441 13.5949 66.7025 13.583 66.7616 13.583C66.8207 13.583 66.8792 13.5949 66.9336 13.6181C66.988 13.6412 67.0372 13.675 67.0782 13.7176C67.1192 13.7602 67.1511 13.8105 67.1722 13.8658C67.1933 13.921 67.203 13.9799 67.2008 14.0389V16.032C67.2008 16.1484 67.1546 16.2601 67.0723 16.3425C66.99 16.4249 66.8784 16.4713 66.7619 16.4714Z" fill="#9CBAF7"/>
<path d="M29.1502 29.9121H28.1558V30.4038H29.1502V29.9121Z" fill="#D4D4D9"/>
<path d="M29.4779 30.3525H27.828V30.8325H29.4779V30.3525Z" fill="#FEFEFF"/>
<path d="M27.8281 29.9366H29.478V28.8575C29.4852 28.2218 29.3662 27.591 29.1279 27.0017C28.8896 26.4123 28.5367 25.8761 28.0898 25.424C27.6428 24.972 27.1106 24.6131 26.5239 24.3681C25.9373 24.1232 25.3079 23.9971 24.6722 23.9971C24.0364 23.9971 23.407 24.1232 22.8204 24.3681C22.2338 24.6131 21.7015 24.972 21.2546 25.424C20.8076 25.8761 20.4547 26.4123 20.2164 27.0017C19.9782 27.591 19.8592 28.2218 19.8663 28.8575V32.622H21.5163V28.8575C21.5278 28.0281 21.8654 27.2367 22.456 26.6542C23.0466 26.0718 23.8427 25.7453 24.6722 25.7453C25.5016 25.7453 26.2977 26.0718 26.8883 26.6542C27.4789 27.2367 27.8165 28.0281 27.8281 28.8575V29.9366Z" fill="#FEFEFF"/>
<path d="M19.7969 32.1641H29.5473C29.6971 32.1641 29.8407 32.2236 29.9466 32.3295C30.0525 32.4354 30.112 32.579 30.112 32.7288V36.0225C30.112 37.4653 29.5389 38.849 28.5186 39.8693C27.4984 40.8895 26.1147 41.4627 24.6718 41.4627C23.229 41.4627 21.8453 40.8895 20.825 39.8693C19.8048 38.849 19.2316 37.4653 19.2316 36.0225V32.7288C19.2316 32.579 19.2911 32.4354 19.397 32.3295C19.5029 32.2236 19.6466 32.1641 19.7963 32.1641H19.7969Z" fill="#FCB900"/>
<g style="mix-blend-mode:multiply" opacity="0.85">
<path d="M25.8448 35.5674C25.8462 35.3601 25.7925 35.1561 25.6894 34.9763C25.5863 34.7964 25.4373 34.6471 25.2577 34.5435C25.0781 34.44 24.8743 34.3859 24.667 34.3867C24.4597 34.3876 24.2563 34.4434 24.0776 34.5484C23.8988 34.6534 23.7511 34.804 23.6495 34.9847C23.5478 35.1654 23.4959 35.3698 23.499 35.5771C23.502 35.7843 23.56 35.9871 23.6669 36.1647C23.7739 36.3423 23.9259 36.4884 24.1077 36.5881V37.9606C24.1052 38.0363 24.118 38.1117 24.1452 38.1824C24.1725 38.253 24.2136 38.3175 24.2663 38.3719C24.3189 38.4263 24.382 38.4696 24.4517 38.4992C24.5214 38.5287 24.5964 38.5439 24.6721 38.5439C24.7478 38.5439 24.8228 38.5287 24.8925 38.4992C24.9622 38.4696 25.0253 38.4263 25.0779 38.3719C25.1306 38.3175 25.1718 38.253 25.199 38.1824C25.2263 38.1117 25.239 38.0363 25.2365 37.9606V36.5881C25.4201 36.4881 25.5734 36.3406 25.6804 36.161C25.7874 35.9815 25.8442 35.7764 25.8448 35.5674Z" fill="#301300"/>
</g>
<mask id="mask0_8716_7201" style="mask-type:luminance" maskUnits="userSpaceOnUse" x="19" y="24" width="12" height="18">
<path d="M30.112 32.5934V36.0222C30.112 37.4649 29.5389 38.8485 28.5188 39.8687C27.4987 40.8889 26.1152 41.4622 24.6724 41.4623C23.2296 41.4623 21.8459 40.8892 20.8256 39.8689C19.8054 38.8487 19.2322 37.465 19.2322 36.0222V32.5934C19.2322 32.4795 19.2775 32.3702 19.3581 32.2896C19.4387 32.209 19.548 32.1637 19.6619 32.1637H19.8669V28.8578C19.8676 28.1991 20.0035 27.5476 20.2663 26.9436C20.5291 26.3396 20.913 25.796 21.3945 25.3464C21.8759 24.8969 22.4445 24.551 23.065 24.3302C23.6856 24.1094 24.3449 24.0183 25.002 24.0627C27.4714 24.2284 29.5473 26.2896 29.4786 29.0278V29.9368H27.828V28.8578C27.8165 28.0284 27.4789 27.2369 26.8883 26.6545C26.2977 26.0721 25.5016 25.7456 24.6721 25.7456C23.8427 25.7456 23.0466 26.0721 22.456 26.6545C21.8654 27.2369 21.5278 28.0284 21.5162 28.8578V32.1637H29.6799C29.7365 32.1634 29.7927 32.1743 29.8451 32.1957C29.8975 32.2172 29.9451 32.2488 29.9853 32.2887C30.0255 32.3286 30.0573 32.3761 30.0791 32.4284C30.1008 32.4807 30.112 32.5368 30.112 32.5934ZM27.828 30.8361H29.4779V30.3524H27.828V30.8361Z" fill="white"/>
</mask>
<g mask="url(#mask0_8716_7201)">
<g style="mix-blend-mode:multiply" opacity="0.1">
<path d="M30.1126 32.1641H24.6724V41.4627H30.1126V32.1641Z" fill="#E70013"/>
</g>
</g>
<path d="M56.1222 38.5263H39.3726C36.7823 38.5263 34.683 36.3835 34.683 33.7386V33.6422C34.683 30.9985 36.7823 28.8545 39.3726 28.8545H56.1222C58.7118 28.8545 60.8117 30.9973 60.8117 33.6422V33.7392C60.8117 36.3835 58.7118 38.5263 56.1222 38.5263Z" fill="#E8E8E8"/>
<path d="M56.2726 38.5256H40.0613C37.5545 38.5256 35.5228 36.5768 35.5228 34.1731V34.0853C35.5228 31.6816 37.5545 29.7334 40.0613 29.7334H56.2714C58.7782 29.7334 60.8136 31.6816 60.8136 34.0853V34.1731C60.8117 36.5768 58.7825 38.5256 56.2726 38.5256Z" fill="white"/>
<path d="M40.4995 31.4375H41.6486L41.4871 33.123L42.8774 32.1827L43.4372 33.212L41.9389 33.8768L43.4372 34.5342L42.8793 35.5617L41.4871 34.6238L41.6486 36.3099H40.4995L40.6677 34.6238L39.2774 35.5641L38.7195 34.5366L40.2178 33.878L38.7195 33.212L39.2774 32.1839L40.6677 33.1242L40.4995 31.4375Z" fill="#707070"/>
<path d="M47.5325 31.4375H48.6816L48.5202 33.123L49.9105 32.1827L50.4684 33.212L48.9707 33.8768L50.4684 34.5354L49.9105 35.5629L48.5202 34.6238L48.6816 36.3099H47.5325L47.7007 34.6238L46.3105 35.5641L45.7525 34.5366L47.2508 33.878L45.7525 33.212L46.3105 32.1839L47.7007 33.1242L47.5325 31.4375Z" fill="#707070"/>
<path d="M54.5656 31.4375H55.7134L55.552 33.123L56.9429 32.1827L57.5002 33.2108L56.0025 33.8755L57.5002 34.5342L56.9429 35.5617L55.5532 34.6238L55.7146 36.3099H54.5656L54.7313 34.6238L53.341 35.5641L52.7831 34.5366L54.2814 33.878L52.7855 33.212L53.3435 32.1839L54.7313 33.123L54.5656 31.4375Z" fill="#707070"/>
</svg>
