<svg width="19" height="14" viewBox="0 0 19 14" fill="none" xmlns="http://www.w3.org/2000/svg">
<path d="M16.5762 0.865234H2.82617C2.32889 0.865234 1.85198 1.06278 1.50035 1.41441C1.14872 1.76604 0.951172 2.24295 0.951172 2.74023V11.4902C0.951172 11.9875 1.14872 12.4644 1.50035 12.8161C1.85198 13.1677 2.32889 13.3652 2.82617 13.3652H16.5762C17.0735 13.3652 17.5504 13.1677 17.902 12.8161C18.2536 12.4644 18.4512 11.9875 18.4512 11.4902V2.74023C18.4512 2.24295 18.2536 1.76604 17.902 1.41441C17.5504 1.06278 17.0735 0.865234 16.5762 0.865234ZM2.82617 2.11523H16.5762C16.7419 2.11523 16.9009 2.18108 17.0181 2.29829C17.1353 2.4155 17.2012 2.57447 17.2012 2.74023V3.99023H2.20117V2.74023C2.20117 2.57447 2.26702 2.4155 2.38423 2.29829C2.50144 2.18108 2.66041 2.11523 2.82617 2.11523ZM16.5762 12.1152H2.82617C2.66041 12.1152 2.50144 12.0494 2.38423 11.9322C2.26702 11.815 2.20117 11.656 2.20117 11.4902V5.24023H17.2012V11.4902C17.2012 11.656 17.1353 11.815 17.0181 11.9322C16.9009 12.0494 16.7419 12.1152 16.5762 12.1152ZM6.57617 10.2402C6.57617 10.406 6.51032 10.565 6.39311 10.6822C6.2759 10.7994 6.11693 10.8652 5.95117 10.8652H4.07617C3.91041 10.8652 3.75144 10.7994 3.63423 10.6822C3.51702 10.565 3.45117 10.406 3.45117 10.2402C3.45117 10.0745 3.51702 9.9155 3.63423 9.79829C3.75144 9.68108 3.91041 9.61523 4.07617 9.61523H5.95117C6.11693 9.61523 6.2759 9.68108 6.39311 9.79829C6.51032 9.9155 6.57617 10.0745 6.57617 10.2402Z" fill="#1455AC"/>
</svg>
