<svg width="40" height="40" viewBox="0 0 40 40" fill="none" xmlns="http://www.w3.org/2000/svg">
<path d="M34.5455 0H5.45455C2.44208 0 0 2.44208 0 5.45455V34.5455C0 37.5579 2.44208 40 5.45455 40H34.5455C37.5579 40 40 37.5579 40 34.5455V5.45455C40 2.44208 37.5579 0 34.5455 0Z" fill="#29A71A"/>
<path d="M28.8182 11.1818C26.7373 9.08023 23.974 7.79139 21.0266 7.54778C18.0792 7.30417 15.1417 8.12183 12.7441 9.85328C10.3465 11.5847 8.64648 14.116 7.95077 16.9904C7.25507 19.8649 7.60945 22.8934 8.94999 25.5295L7.63408 31.9182C7.62043 31.9818 7.62004 32.0475 7.63294 32.1112C7.64585 32.175 7.67177 32.2354 7.70908 32.2886C7.76374 32.3695 7.84176 32.4317 7.93273 32.4671C8.02369 32.5024 8.12327 32.5091 8.21817 32.4864L14.4795 31.0023C17.1083 32.3089 20.1154 32.6405 22.9657 31.938C25.816 31.2356 28.3247 29.5447 30.0453 27.1663C31.766 24.7878 32.587 21.876 32.3623 18.9491C32.1376 16.0221 30.8817 13.2698 28.8182 11.1818ZM26.8659 26.7636C25.4262 28.1993 23.5722 29.147 21.5654 29.4732C19.5585 29.7994 17.4998 29.4876 15.6795 28.5818L14.8068 28.15L10.9682 29.0591L10.9795 29.0114L11.775 25.1477L11.3477 24.3045C10.4176 22.4779 10.0895 20.4037 10.4104 18.3792C10.7313 16.3546 11.6847 14.4836 13.1341 13.0341C14.9552 11.2135 17.4249 10.1908 20 10.1908C22.5751 10.1908 25.0448 11.2135 26.8659 13.0341C26.8814 13.0519 26.8981 13.0686 26.9159 13.0841C28.7145 14.9094 29.7185 17.3717 29.7092 19.9342C29.6998 22.4967 28.6778 24.9516 26.8659 26.7636Z" fill="white"/>
<path d="M26.525 23.9295C26.0545 24.6704 25.3114 25.5773 24.3773 25.8023C22.7409 26.1977 20.2295 25.8159 17.1045 22.9023L17.0659 22.8682C14.3182 20.3204 13.6045 18.2 13.7773 16.5182C13.8727 15.5636 14.6682 14.7 15.3386 14.1363C15.4446 14.0459 15.5703 13.9815 15.7057 13.9483C15.841 13.9151 15.9822 13.914 16.1181 13.9451C16.2539 13.9763 16.3806 14.0388 16.4879 14.1276C16.5953 14.2165 16.6804 14.3292 16.7364 14.4568L17.7477 16.7295C17.8134 16.8769 17.8378 17.0394 17.8182 17.1995C17.7986 17.3597 17.7357 17.5115 17.6364 17.6386L17.125 18.3023C17.0153 18.4393 16.9491 18.606 16.9349 18.781C16.9207 18.956 16.9592 19.1312 17.0454 19.2841C17.3318 19.7863 18.0182 20.525 18.7795 21.2091C19.6341 21.9818 20.5818 22.6886 21.1818 22.9295C21.3424 22.9951 21.5189 23.0111 21.6886 22.9755C21.8583 22.9398 22.0135 22.8542 22.1341 22.7295L22.7273 22.1318C22.8417 22.0189 22.9841 21.9384 23.1398 21.8985C23.2955 21.8586 23.459 21.8607 23.6136 21.9045L26.0159 22.5863C26.1484 22.627 26.2699 22.6974 26.371 22.7922C26.4721 22.887 26.5502 23.0037 26.5994 23.1333C26.6485 23.2629 26.6673 23.402 26.6544 23.54C26.6416 23.678 26.5973 23.8113 26.525 23.9295Z" fill="white"/>
</svg>
