<svg width="73" height="74" viewBox="0 0 73 74" fill="none" xmlns="http://www.w3.org/2000/svg">
<g id="carbon:play-filled">
<path id="Vector" d="M36.6871 1.83203C29.6853 1.83203 22.8407 3.90829 17.0188 7.79826C11.197 11.6882 6.65947 17.2172 3.97998 23.686C1.3005 30.1548 0.599419 37.2728 1.96541 44.14C3.3314 51.0073 6.70311 57.3152 11.6542 62.2662C16.6052 67.2172 22.9132 70.5889 29.7805 71.9548C36.6478 73.3208 43.766 72.6198 50.2348 69.9403C56.7037 67.2608 62.2327 62.7233 66.1227 56.9016C70.0128 51.0798 72.089 44.2353 72.089 37.2336C72.089 27.8445 68.3592 18.84 61.7201 12.2009C55.0809 5.56182 46.0763 1.83203 36.6871 1.83203Z" fill="white"/>
<path id="Vector_2" d="M28.3884 54.9402C27.9093 54.9402 27.4499 54.6738 27.1111 54.1996C26.7723 53.7254 26.582 53.0822 26.582 52.4115V22.0674C26.5822 21.6365 26.661 21.2128 26.811 20.8366C26.961 20.4603 27.1771 20.144 27.439 19.9175C27.7008 19.691 27.9996 19.562 28.3071 19.5426C28.6146 19.5232 28.9205 19.6141 29.1958 19.8067L50.8722 34.9788C51.1718 35.189 51.4237 35.5118 51.5998 35.9111C51.7759 36.3103 51.8691 36.7703 51.8691 37.2395C51.8691 37.7087 51.7759 38.1686 51.5998 38.5678C51.4237 38.9671 51.1718 39.2899 50.8722 39.5001L29.1958 54.6722C28.9452 54.8479 28.6687 54.9397 28.3884 54.9402Z" fill="#C2A7A7"/>
</g>
</svg>
