<svg width="21" height="21" viewBox="0 0 21 21" fill="none" xmlns="http://www.w3.org/2000/svg">
<g id="fi_7309678" clip-path="url(#clip0_12977_12188)">
<g id="Artboard1">
<g id="Group">
<path id="Vector" fill-rule="evenodd" clip-rule="evenodd" d="M10.8125 2.21289V0.962891C10.8125 0.790391 10.6725 0.650391 10.5 0.650391C10.3275 0.650391 10.1875 0.790391 10.1875 0.962891V2.21289C10.1875 2.38539 10.3275 2.52539 10.5 2.52539C10.6725 2.52539 10.8125 2.38539 10.8125 2.21289Z" fill="#245BD1"/>
<path id="Vector_2" fill-rule="evenodd" clip-rule="evenodd" d="M5.84593 3.99204L4.97093 3.11704C4.84906 2.99517 4.65093 2.99517 4.52906 3.11704C4.40718 3.23892 4.40718 3.43704 4.52906 3.55892L5.40406 4.43392C5.52593 4.55579 5.72406 4.55579 5.84593 4.43392C5.96781 4.31204 5.96781 4.11392 5.84593 3.99204Z" fill="#245BD1"/>
<path id="Vector_3" fill-rule="evenodd" clip-rule="evenodd" d="M3.625 8.77539H2.375C2.2025 8.77539 2.0625 8.91539 2.0625 9.08789C2.0625 9.26039 2.2025 9.40039 2.375 9.40039H3.625C3.7975 9.40039 3.9375 9.26039 3.9375 9.08789C3.9375 8.91539 3.7975 8.77539 3.625 8.77539Z" fill="#245BD1"/>
<path id="Vector_4" fill-rule="evenodd" clip-rule="evenodd" d="M5.40406 13.742L4.52906 14.617C4.40718 14.7389 4.40718 14.937 4.52906 15.0589C4.65093 15.1808 4.84906 15.1808 4.97093 15.0589L5.84593 14.1839C5.96781 14.062 5.96781 13.8639 5.84593 13.742C5.72406 13.6202 5.52593 13.6202 5.40406 13.742Z" fill="#245BD1"/>
<path id="Vector_5" fill-rule="evenodd" clip-rule="evenodd" d="M15.1541 14.1839L16.0291 15.0589C16.1509 15.1808 16.3491 15.1808 16.4709 15.0589C16.5928 14.937 16.5928 14.7389 16.4709 14.617L15.5959 13.742C15.4741 13.6202 15.2759 13.6202 15.1541 13.742C15.0322 13.8639 15.0322 14.062 15.1541 14.1839Z" fill="#245BD1"/>
<path id="Vector_6" fill-rule="evenodd" clip-rule="evenodd" d="M17.375 9.40039H18.625C18.7975 9.40039 18.9375 9.26039 18.9375 9.08789C18.9375 8.91539 18.7975 8.77539 18.625 8.77539H17.375C17.2025 8.77539 17.0625 8.91539 17.0625 9.08789C17.0625 9.26039 17.2025 9.40039 17.375 9.40039Z" fill="#245BD1"/>
<path id="Vector_7" fill-rule="evenodd" clip-rule="evenodd" d="M15.5959 4.43392L16.4709 3.55892C16.5928 3.43704 16.5928 3.23892 16.4709 3.11704C16.3491 2.99517 16.1509 2.99517 16.0291 3.11704L15.1541 3.99204C15.0322 4.11392 15.0322 4.31204 15.1541 4.43392C15.2759 4.55579 15.4741 4.55579 15.5959 4.43392Z" fill="#245BD1"/>
</g>
<path id="Vector_8" d="M8 16.2754V15.3379C8 14.6504 7.6875 13.9941 7.125 13.5879C5.75 12.5566 4.875 10.9316 4.875 9.08787C4.875 5.77537 7.75 3.11912 11.125 3.49412C13.7188 3.77537 15.7812 5.83787 16.0938 8.43162C16.3438 10.5566 15.4062 12.4629 13.875 13.5879C13.3125 13.9941 13 14.6504 13 15.3379V16.2754H8Z" fill="#BED2FE"/>
<path id="Vector_9" d="M8 15.9629H13V17.9004C13 18.2129 12.75 18.4629 12.4375 18.4629H11.75C11.75 19.1504 11.1875 19.7129 10.5 19.7129C9.8125 19.7129 9.25 19.1504 9.25 18.4629H8.5625C8.25 18.4629 8 18.2129 8 17.9004V15.9629Z" fill="#245BD1"/>
</g>
</g>
<defs>
<clipPath id="clip0_12977_12188">
<rect width="20" height="20" fill="white" transform="translate(0.5 0.337891)"/>
</clipPath>
</defs>
</svg>
