<svg width="14" height="15" viewBox="0 0 14 15" fill="none" xmlns="http://www.w3.org/2000/svg">
<g clip-path="url(#clip0_10593_12692)">
<path d="M13.7091 11.0611L8.76359 1.96999C7.969 0.63231 6.03205 0.630533 5.23641 1.96999L0.291126 11.0611C-0.521148 12.428 0.46227 14.1589 2.05431 14.1589H11.9455C13.5362 14.1589 14.5214 12.4294 13.7091 11.0611ZM7 12.5183C6.54779 12.5183 6.17968 12.1502 6.17968 11.698C6.17968 11.2458 6.54779 10.8777 7 10.8777C7.45221 10.8777 7.82031 11.2458 7.82031 11.698C7.82031 12.1502 7.45221 12.5183 7 12.5183ZM7.82031 9.23706C7.82031 9.68927 7.45221 10.0574 7 10.0574C6.54779 10.0574 6.17968 9.68927 6.17968 9.23706V5.1355C6.17968 4.68329 6.54779 4.31519 7 4.31519C7.45221 4.31519 7.82031 4.68329 7.82031 5.1355V9.23706Z" fill="#FF8228"/>
</g>
<defs>
<clipPath id="clip0_10593_12692">
<rect width="14" height="14" fill="white" transform="translate(0 0.5625)"/>
</clipPath>
</defs>
</svg>
