<svg width="18" height="19" viewBox="0 0 18 19" fill="none" xmlns="http://www.w3.org/2000/svg">
<g clip-path="url(#clip0_10593_7433)">
<path d="M10.8303 13.5645C10.5781 13.5645 10.373 13.7696 10.373 14.0218C10.373 14.2739 10.5781 14.479 10.8303 14.479C11.0825 14.479 11.2876 14.2739 11.2876 14.0218C11.2876 13.7696 11.0825 13.5645 10.8303 13.5645Z" fill="#e9f3ff"/>
<path d="M8.99965 5.73047L1.81006 10.5296V17.3088C1.81006 17.6074 2.05218 17.8495 2.35083 17.8495H15.6487C15.9473 17.8495 16.1895 17.6074 16.1895 17.3088V10.5298L8.99965 5.73047ZM5.64747 10.3777C5.64747 9.52917 6.3378 8.83881 7.18633 8.83881C8.03486 8.83881 8.72515 9.52914 8.72515 10.3777C8.72515 11.2262 8.03486 11.9165 7.18633 11.9165C6.3378 11.9165 5.64747 11.2262 5.64747 10.3777ZM6.64605 15.0193C6.41767 14.8269 6.38856 14.4857 6.58104 14.2573L10.5915 9.49911C10.784 9.27077 11.1252 9.24166 11.3535 9.43414C11.5819 9.62663 11.611 9.96778 11.4185 10.1962L7.40806 14.9543C7.21558 15.1827 6.87442 15.2118 6.64605 15.0193ZM10.8299 15.5601C9.98136 15.5601 9.29106 14.8698 9.29106 14.0213C9.29106 13.1728 9.98136 12.4824 10.8299 12.4824C11.6784 12.4824 12.3687 13.1728 12.3687 14.0213C12.3687 14.8698 11.6784 15.5601 10.8299 15.5601Z" fill="#e9f3ff"/>
<path d="M7.18632 9.92188C6.93414 9.92188 6.729 10.127 6.729 10.3792C6.729 10.6314 6.93414 10.8365 7.18632 10.8365C7.43849 10.8365 7.64359 10.6314 7.64359 10.3792C7.64359 10.127 7.43849 9.92188 7.18632 9.92188Z" fill="#e9f3ff"/>
<path d="M17.9664 8.19437C17.8768 7.74497 17.6175 7.35733 17.2364 7.10294L9.95249 2.2408C9.37389 1.85464 8.62622 1.85461 8.04755 2.24083L0.763669 7.10298C0.38254 7.3574 0.123263 7.74504 0.0336493 8.1944C-0.055964 8.64377 0.0348095 9.10119 0.28927 9.48239C0.413864 9.66907 0.569255 9.82302 0.743911 9.94283L8.69966 4.6322C8.88146 4.51087 9.11834 4.51087 9.30013 4.6322L17.2563 9.94308C17.433 9.82147 17.5879 9.66636 17.7108 9.48235C17.9653 9.10119 18.056 8.64377 17.9664 8.19437Z" fill="#e9f3ff"/>
</g>
<defs>
<clipPath id="clip0_10593_7433">
<rect width="18" height="18" fill="#e9f3ff" transform="translate(0 0.900391)"/>
</clipPath>
</defs>
</svg>
