<svg width="25" height="25" viewBox="0 0 25 25" fill="none" xmlns="http://www.w3.org/2000/svg">
<g id="fi_2311524">
<path id="XMLID_294_" d="M10.1562 12.5C10.1562 13.7922 11.2078 14.8438 12.5 14.8438C13.7922 14.8438 14.8438 13.7922 14.8438 12.5C14.8438 11.2078 13.7922 10.1562 12.5 10.1562C11.2078 10.1562 10.1562 11.2078 10.1562 12.5Z" fill="currentColor"/>
<path id="XMLID_295_" d="M10.1562 20.3125C10.1562 21.6047 11.2078 22.6562 12.5 22.6562C13.7922 22.6562 14.8438 21.6047 14.8438 20.3125C14.8438 19.0203 13.7922 17.9688 12.5 17.9688C11.2078 17.9688 10.1562 19.0203 10.1562 20.3125Z" fill="currentColor"/>
<path id="XMLID_297_" d="M10.1562 4.6875C10.1562 5.97969 11.2078 7.03125 12.5 7.03125C13.7922 7.03125 14.8438 5.97969 14.8438 4.6875C14.8438 3.39531 13.7922 2.34375 12.5 2.34375C11.2078 2.34375 10.1562 3.39531 10.1562 4.6875Z" fill="currentColor"/>
</g>
</svg>
