<svg width="14" height="14" viewBox="0 0 14 14" fill="none" xmlns="http://www.w3.org/2000/svg">
<g id="download 1" clip-path="url(#clip0_11698_1895)">
<g id="Group 1597886342">
<path id="Vector" d="M5.9396 10.062C6.0789 10.2014 6.24431 10.312 6.42636 10.3874C6.60841 10.4628 6.80354 10.5017 7.00061 10.5017C7.19767 10.5017 7.3928 10.4628 7.57485 10.3874C7.7569 10.312 7.92231 10.2014 8.06161 10.062L9.66711 8.45649C9.75319 8.36129 9.79936 8.23662 9.79607 8.10832C9.79277 7.98001 9.74026 7.85788 9.64941 7.76722C9.55856 7.67656 9.43632 7.62431 9.30801 7.62129C9.17969 7.61827 9.05513 7.66471 8.96011 7.75099L7.49711 9.21449L7.50061 1.50098C7.50061 1.36837 7.44793 1.24119 7.35416 1.14742C7.26039 1.05366 7.13321 1.00098 7.00061 1.00098C6.868 1.00098 6.74082 1.05366 6.64705 1.14742C6.55328 1.24119 6.5006 1.36837 6.5006 1.50098L6.4961 9.20499L5.0411 7.75099C4.94728 7.65723 4.82006 7.60459 4.68743 7.60464C4.55479 7.60468 4.42761 7.65742 4.33385 7.75124C4.2401 7.84506 4.18745 7.97228 4.1875 8.10492C4.18755 8.23755 4.24028 8.36473 4.3341 8.45849L5.9396 10.062Z" fill="currentColor"/>
<path id="Vector (Stroke)" fill-rule="evenodd" clip-rule="evenodd" d="M6.47027 0.970647C6.61093 0.829994 6.80169 0.750977 7.0006 0.750977C7.19952 0.750977 7.39028 0.829994 7.53094 0.970647C7.67159 1.1113 7.75061 1.30206 7.75061 1.50098L7.74738 8.61052L8.79185 7.56569C8.93438 7.43626 9.12142 7.36683 9.31389 7.37136C9.50636 7.37589 9.68972 7.45427 9.826 7.59026C9.96228 7.72625 10.041 7.90944 10.046 8.1019C10.0509 8.29436 9.98167 8.48135 9.85255 8.62416L9.84411 8.63349L8.23844 10.2387C8.23842 10.2387 8.23846 10.2387 8.23844 10.2387C8.07593 10.4013 7.88293 10.5303 7.67056 10.6184C7.45817 10.7064 7.23051 10.7517 7.0006 10.7517C6.7707 10.7517 6.54304 10.7064 6.33065 10.6184C6.11833 10.5304 5.92542 10.4014 5.76294 10.2389M5.76294 10.2389L4.15743 8.63538C4.01671 8.49475 3.93757 8.30394 3.9375 8.105C3.93743 7.90606 4.01639 7.71524 4.15701 7.57452C4.29763 7.4338 4.4884 7.35471 4.68734 7.35464C4.88628 7.35457 5.0771 7.43353 5.21782 7.57415L6.24646 8.60208L6.2506 1.50098C6.2506 1.50093 6.2506 1.50103 6.2506 1.50098C6.25064 1.30212 6.32966 1.11126 6.47027 0.970647M7.0006 1.25098C6.9343 1.25098 6.87071 1.27732 6.82383 1.3242C6.77694 1.37108 6.7506 1.43467 6.7506 1.50098L6.74575 9.8079L4.86439 7.92783C4.81747 7.88094 4.75384 7.85461 4.68751 7.85464C4.62118 7.85466 4.55758 7.88103 4.51069 7.92795C4.4638 7.97487 4.43748 8.03849 4.4375 8.10483C4.43752 8.17113 4.46388 8.23472 4.51077 8.2816C4.51075 8.28159 4.51078 8.28162 4.51077 8.2816L6.11627 9.8851C6.23235 10.0013 6.37036 10.0936 6.52206 10.1564C6.67377 10.2193 6.83639 10.2517 7.0006 10.2517C7.16482 10.2517 7.32744 10.2193 7.47915 10.1564C7.63085 10.0936 7.76869 10.0014 7.88477 9.88527L9.48513 8.28492C9.52594 8.23784 9.54775 8.17715 9.54615 8.11473C9.5445 8.05058 9.51825 7.98952 9.47282 7.94419C9.42739 7.89886 9.36628 7.87273 9.30212 7.87122C9.23963 7.86975 9.17892 7.89174 9.13191 7.93274L7.24683 9.81846L7.25061 1.50098C7.25061 1.50094 7.25061 1.50102 7.25061 1.50098C7.25058 1.43471 7.22424 1.37106 7.17738 1.3242C7.1305 1.27732 7.06691 1.25098 7.0006 1.25098Z" fill="currentColor"/>
<path id="Vector_2" d="M12.501 9.50146C12.3684 9.50146 12.2412 9.55414 12.1474 9.64791C12.0537 9.74168 12.001 9.86886 12.001 10.0015V12.0015C12.001 12.1341 11.9483 12.2613 11.8545 12.355C11.7608 12.4488 11.6336 12.5015 11.501 12.5015H2.50098C2.36837 12.5015 2.24119 12.4488 2.14742 12.355C2.05366 12.2613 2.00098 12.1341 2.00098 12.0015V10.0015C2.00098 9.86886 1.9483 9.74168 1.85453 9.64791C1.76076 9.55414 1.63359 9.50146 1.50098 9.50146C1.36837 9.50146 1.24119 9.55414 1.14742 9.64791C1.05366 9.74168 1.00098 9.86886 1.00098 10.0015V12.0015C1.00098 12.3993 1.15901 12.7808 1.44032 13.0621C1.72162 13.3434 2.10315 13.5015 2.50098 13.5015H11.501C11.8988 13.5015 12.2803 13.3434 12.5617 13.0621C12.843 12.7808 13.001 12.3993 13.001 12.0015V10.0015C13.001 9.86886 12.9483 9.74168 12.8545 9.64791C12.7608 9.55414 12.6336 9.50146 12.501 9.50146Z" fill="currentColor"/>
<path id="Vector (Stroke)_2" fill-rule="evenodd" clip-rule="evenodd" d="M0.970647 9.47113C1.1113 9.33048 1.30207 9.25146 1.50098 9.25146C1.69989 9.25146 1.89066 9.33048 2.03131 9.47113C2.17196 9.61179 2.25098 9.80255 2.25098 10.0015V12.0015C2.25098 12.0678 2.27732 12.1314 2.3242 12.1782C2.37109 12.2251 2.43467 12.2515 2.50098 12.2515H11.501C11.5673 12.2515 11.6309 12.2251 11.6778 12.1782C11.7247 12.1314 11.751 12.0678 11.751 12.0015V10.0015C11.751 9.80255 11.83 9.61179 11.9707 9.47113C12.1113 9.33048 12.3021 9.25146 12.501 9.25146C12.6999 9.25146 12.8907 9.33048 13.0313 9.47113C13.172 9.61179 13.251 9.80255 13.251 10.0015V12.0015C13.251 12.4656 13.0666 12.9107 12.7384 13.2389C12.4102 13.5671 11.9651 13.7515 11.501 13.7515H2.50098C2.03685 13.7515 1.59173 13.5671 1.26354 13.2389C0.935351 12.9107 0.750977 12.4656 0.750977 12.0015V10.0015C0.750977 9.80255 0.829994 9.61179 0.970647 9.47113ZM1.50098 9.75146C1.43467 9.75146 1.37108 9.7778 1.3242 9.82469C1.27732 9.87157 1.25098 9.93516 1.25098 10.0015V12.0015C1.25098 12.333 1.38267 12.6509 1.61709 12.8854C1.85151 13.1198 2.16946 13.2515 2.50098 13.2515H11.501C11.8325 13.2515 12.1505 13.1198 12.3849 12.8854C12.6193 12.6509 12.751 12.333 12.751 12.0015V10.0015C12.751 9.93516 12.7247 9.87157 12.6778 9.82469C12.6309 9.7778 12.5673 9.75146 12.501 9.75146C12.4347 9.75146 12.3711 9.7778 12.3242 9.82469C12.2773 9.87157 12.251 9.93516 12.251 10.0015V12.0015C12.251 12.2004 12.172 12.3911 12.0313 12.5318C11.8907 12.6725 11.6999 12.7515 11.501 12.7515H2.50098C2.30207 12.7515 2.1113 12.6725 1.97065 12.5318C1.83 12.3911 1.75098 12.2004 1.75098 12.0015V10.0015C1.75098 9.93516 1.72464 9.87157 1.67775 9.82469C1.63087 9.7778 1.56728 9.75146 1.50098 9.75146Z" fill="currentColor"/>
</g>
</g>
<defs>
<clipPath id="clip0_11698_1895">
<rect width="14" height="14" fill="white" transform="translate(0.000976562 0.000976562)"/>
</clipPath>
</defs>
</svg>
