<svg width="43" height="48" viewBox="0 0 43 48" fill="none" xmlns="http://www.w3.org/2000/svg">
<path d="M38.2312 35.3624H12.8992C12.1548 35.3624 11.5515 34.759 11.5515 34.0147V1.59769C11.5514 0.85342 12.1548 0.25 12.8992 0.25H38.2312C38.9756 0.25 39.5789 0.85342 39.5789 1.59769V34.0146C39.579 34.759 38.9756 35.3624 38.2312 35.3624Z" fill="#E2E2E2"/>
<path d="M30.7057 39.7567H5.37357C4.6292 39.7567 4.02588 39.1532 4.02588 38.409V5.99197C4.02588 5.24761 4.6293 4.64429 5.37357 4.64429H30.7056C31.4499 4.64429 32.0532 5.24771 32.0532 5.99197V38.4089C32.0533 39.1532 31.4499 39.7567 30.7057 39.7567Z" fill="#F7F7F7"/>
<path d="M42.8546 18.6443V44.425C42.8546 46.3224 41.3164 47.8606 39.419 47.8606H4.18662C2.28823 47.8606 0.75 46.3224 0.75 44.425V24.6574C0.75 22.76 2.28823 21.2218 4.18662 21.2218H19.9754C21.2621 21.2218 22.4321 20.4743 22.9733 19.3063L23.6061 17.9411C24.1474 16.7731 25.3174 16.0256 26.6041 16.0256H40.2359C41.6826 16.0256 42.8546 17.1977 42.8546 18.6443Z" fill="#FFD15B"/>
<path d="M17.3458 32.5165H6.42977C5.74245 32.5165 5.1853 31.9593 5.1853 31.272V29.6466C5.1853 28.9592 5.74245 28.4021 6.42977 28.4021H17.3457C18.033 28.4021 18.5901 28.9592 18.5901 29.6466V31.272C18.5901 31.9593 18.033 32.5165 17.3458 32.5165Z" fill="#EAF6FF"/>
<path d="M13.5374 11.5336H8.72897C7.97122 11.5336 7.35693 10.9193 7.35693 10.1616C7.35693 9.40384 7.97122 8.78955 8.72897 8.78955H13.5374C14.2952 8.78955 14.9094 9.40384 14.9094 10.1616C14.9094 10.9193 14.2952 11.5336 13.5374 11.5336Z" fill="#8B8B8B"/>
<path d="M27.2546 10.916H17.6994C17.2826 10.916 16.9448 10.5783 16.9448 10.1615C16.9448 9.74471 17.2826 9.40698 17.6994 9.40698H27.2546C27.6714 9.40698 28.0091 9.74471 28.0091 10.1615C28.0091 10.5783 27.6714 10.916 27.2546 10.916Z" fill="#E1E1E1"/>
<path d="M20.0746 15.2H13.8146C13.3978 15.2 13.0601 14.8622 13.0601 14.4454C13.0601 14.0286 13.3978 13.6909 13.8146 13.6909H20.0746C20.4914 13.6909 20.8292 14.0286 20.8292 14.4454C20.8292 14.8622 20.4914 15.2 20.0746 15.2Z" fill="#E1E1E1"/>
<path d="M10.2443 15.2H8.11146C7.69466 15.2 7.35693 14.8622 7.35693 14.4454C7.35693 14.0286 7.69466 13.6909 8.11146 13.6909H10.2443C10.6611 13.6909 10.9988 14.0286 10.9988 14.4454C10.9988 14.8622 10.6611 15.2 10.2443 15.2Z" fill="#E1E1E1"/>
<path d="M20.0747 18.2764H8.11146C7.69466 18.2764 7.35693 17.9387 7.35693 17.5219C7.35693 17.1051 7.69466 16.7673 8.11146 16.7673H20.0747C20.4915 16.7673 20.8293 17.1051 20.8293 17.5219C20.8293 17.9387 20.4915 18.2764 20.0747 18.2764Z" fill="#E1E1E1"/>
</svg>
