<svg width="24" height="25" viewBox="0 0 24 25" fill="none" xmlns="http://www.w3.org/2000/svg">
<g id="bi:file-earmark-image" clip-path="url(#clip0_13379_27558)">
<g id="Group">
<path id="Vector" d="M9.75293 11.2109C10.0484 11.2109 10.341 11.1527 10.614 11.0397C10.887 10.9266 11.135 10.7609 11.3439 10.5519C11.5529 10.343 11.7186 10.095 11.8317 9.82198C11.9447 9.54899 12.0029 9.25641 12.0029 8.96094C12.0029 8.66546 11.9447 8.37288 11.8317 8.0999C11.7186 7.82692 11.5529 7.57888 11.3439 7.36995C11.135 7.16102 10.887 6.99528 10.614 6.88221C10.341 6.76914 10.0484 6.71094 9.75293 6.71094C9.15619 6.71094 8.5839 6.94799 8.16194 7.36995C7.73998 7.7919 7.50293 8.3642 7.50293 8.96094C7.50293 9.55767 7.73998 10.13 8.16194 10.5519C8.5839 10.9739 9.15619 11.2109 9.75293 11.2109Z" fill="#0F91D2"/>
<path id="Vector_2" d="M21 21.7109C21 22.5066 20.6839 23.2696 20.1213 23.8323C19.5587 24.3949 18.7956 24.7109 18 24.7109H6C5.20435 24.7109 4.44129 24.3949 3.87868 23.8323C3.31607 23.2696 3 22.5066 3 21.7109V3.71094C3 2.91529 3.31607 2.15223 3.87868 1.58962C4.44129 1.02701 5.20435 0.710938 6 0.710938L14.25 0.710938L21 7.46094V21.7109ZM6 2.21094C5.60218 2.21094 5.22064 2.36897 4.93934 2.65028C4.65804 2.93158 4.5 3.31311 4.5 3.71094V18.7109L7.836 15.3749C7.95422 15.257 8.10843 15.1819 8.27417 15.1615C8.43992 15.1411 8.60773 15.1766 8.751 15.2624L12 17.2109L15.2355 12.6809C15.2988 12.5924 15.3806 12.5187 15.4753 12.465C15.5699 12.4112 15.6751 12.3787 15.7836 12.3697C15.8921 12.3607 16.0012 12.3755 16.1034 12.4129C16.2056 12.4503 16.2985 12.5095 16.3755 12.5864L19.5 15.7109V7.46094H16.5C15.9033 7.46094 15.331 7.22389 14.909 6.80193C14.4871 6.37997 14.25 5.80767 14.25 5.21094V2.21094H6Z" fill="#0F91D2"/>
</g>
</g>
<defs>
<clipPath id="clip0_13379_27558">
<rect width="24" height="24" fill="white" transform="translate(0 0.710938)"/>
</clipPath>
</defs>
</svg>
