<svg width="21" height="21" viewBox="0 0 21 21" fill="none" xmlns="http://www.w3.org/2000/svg">
<path d="M10.5 3.33789C6.63414 3.33789 3.5 6.47203 3.5 10.3379C3.5 14.2038 6.63414 17.3379 10.5 17.3379C14.3659 17.3379 17.5 14.2038 17.5 10.3379C17.5 6.47203 14.3659 3.33789 10.5 3.33789ZM11.3865 13.2795C11.3865 13.3959 11.3636 13.5112 11.319 13.6188C11.2745 13.7263 11.2092 13.8241 11.1268 13.9064C11.0445 13.9887 10.9468 14.054 10.8392 14.0985C10.7317 14.1431 10.6164 14.166 10.5 14.166C10.3836 14.166 10.2683 14.1431 10.1608 14.0985C10.0532 14.054 9.95548 13.9887 9.87316 13.9064C9.79084 13.8241 9.72554 13.7263 9.68099 13.6188C9.63645 13.5112 9.61352 13.3959 9.61352 13.2795V9.73332C9.61352 9.61691 9.63645 9.50163 9.68099 9.39408C9.72554 9.28652 9.79084 9.1888 9.87316 9.10648C9.95548 9.02416 10.0532 8.95887 10.1608 8.91432C10.2683 8.86977 10.3836 8.84684 10.5 8.84684C10.6164 8.84684 10.7317 8.86977 10.8392 8.91432C10.9468 8.95887 11.0445 9.02416 11.1268 9.10648C11.2092 9.1888 11.2745 9.28652 11.319 9.39408C11.3636 9.50163 11.3865 9.61691 11.3865 9.73332V13.2795ZM10.5 8.28273C10.3247 8.28273 10.1533 8.23074 10.0075 8.13334C9.86171 8.03593 9.74809 7.89748 9.68099 7.73549C9.6139 7.57351 9.59634 7.39527 9.63055 7.22331C9.66475 7.05134 9.74918 6.89339 9.87316 6.76941C9.99714 6.64543 10.1551 6.561 10.3271 6.5268C10.499 6.49259 10.6773 6.51015 10.8392 6.57725C11.0012 6.64434 11.1397 6.75796 11.2371 6.90375C11.3345 7.04953 11.3865 7.22092 11.3865 7.39625C11.3865 7.51267 11.3636 7.62797 11.3191 7.73554C11.2745 7.8431 11.2092 7.94084 11.1269 8.02317C11.0446 8.10549 10.9469 8.17079 10.8393 8.21533C10.7317 8.25987 10.6164 8.28277 10.5 8.28273Z" fill="currentColor"/>
</svg>
