<svg width="45" height="45" viewBox="0 0 45 45" fill="none" xmlns="http://www.w3.org/2000/svg">
<g clip-path="url(#clip0_11698_3327)">
<path d="M42.8291 22.8574V36.0054C42.8291 38.4857 40.8121 40.5027 38.3318 40.5027H29.0565H28.9427C26.4624 40.5027 24.4453 38.4857 24.4453 36.0054V25.0201C24.4453 25.0148 24.4453 25.0095 24.4453 25.0042V22.8574H28.1221V25.0889C28.1221 25.3351 28.3233 25.5362 28.5694 25.5362C28.8156 25.5362 29.0168 25.3351 29.0168 25.0889V22.8574H38.2603V25.0889C38.2603 25.3351 38.4615 25.5362 38.7077 25.5362C38.9538 25.5362 39.155 25.3351 39.155 25.0889V22.8574H42.8291Z" fill="url(#paint0_linear_11698_3327)"/>
<path d="M39.154 20.279V21.9651H38.2593V20.279C38.2593 17.7298 36.1867 15.6572 33.6376 15.6572C31.0884 15.6572 29.0158 17.7298 29.0158 20.279V21.9651H28.1211V20.279C28.1211 17.2375 30.5961 14.7651 33.6349 14.7651C36.679 14.7651 39.154 17.2401 39.154 20.279Z" fill="url(#paint1_linear_11698_3327)"/>
<path d="M15.0002 28.0057C15.1537 28.1168 15.3629 28.1195 15.519 28.0109L20.4135 24.6201C21.2049 24.5989 22.3405 24.7101 23.5555 25.2871V36.0051C23.5555 37.8792 24.519 39.5362 25.9749 40.5024H7.92992V33.2759C7.92992 33.0298 7.73139 32.8286 7.48257 32.8286C7.23639 32.8286 7.03522 33.0298 7.03522 33.2759V40.5024H2.16992C2.17786 38.173 2.31022 33.3739 3.1811 30.2662C3.41404 29.4351 3.68139 28.7892 4.04669 28.1777C4.3511 27.6695 5.22463 26.3936 6.79433 25.5121C8.15757 24.7445 9.46522 24.5989 10.3626 24.6227L15.0002 28.0057Z" fill="url(#paint2_linear_11698_3327)"/>
<path d="M22.5281 9.60874C22.5837 10.2123 22.3058 10.8079 22.0596 11.2579C22.049 11.2764 22.0252 11.324 21.9881 11.3955C21.8081 11.7449 21.6784 11.9858 21.5858 12.1526C21.0034 11.7132 20.474 11.1599 20.4687 11.152C20.3364 11.0117 20.1273 10.972 19.9525 11.054C17.8402 12.0493 15.8152 12.3405 13.9305 11.9223C12.5249 11.6099 11.7255 10.9984 11.7202 10.9932C11.5349 10.8476 11.2702 10.8687 11.1114 11.0434C10.619 11.5887 9.86726 11.9832 9.40402 12.1896C9.27167 11.6999 9.2399 11.1652 9.20549 10.6437C9.17108 10.0905 9.13137 9.46315 9.26373 8.90727C9.37226 8.45727 9.67931 7.91992 10.177 7.3111C10.2564 7.21315 10.3411 7.11521 10.4284 7.02521C11.8711 5.48198 14.3328 4.85463 14.812 4.7461C15.749 4.53168 16.6358 4.45492 17.4511 4.5158C18.0308 4.5608 18.5125 4.63757 18.9255 4.75404C19.1902 4.82815 19.5449 4.97904 19.7408 5.28345C19.8334 5.42639 19.9023 5.60374 19.9737 5.78904C20.0796 6.06433 20.1987 6.37404 20.4264 6.64139C20.6355 6.88757 20.8711 7.07551 21.0987 7.25286C21.2893 7.40374 21.4693 7.54404 21.6149 7.7108C22.0278 8.17933 22.4673 8.94433 22.5281 9.60874Z" fill="url(#paint3_linear_11698_3327)"/>
<path d="M21.272 13.0259V15.7259C21.272 18.1797 20.0517 20.3186 18.2517 21.4303C17.4152 21.9465 16.4517 22.243 15.4299 22.243C14.2811 22.243 13.2091 21.8724 12.3038 21.2291C10.6732 20.0724 9.58789 18.0368 9.58789 15.7259V13.0894C10.0247 12.9068 10.8505 12.515 11.5044 11.9194C11.9014 12.163 12.6479 12.5468 13.6882 12.785C14.6094 12.9968 15.5808 13.0524 16.5735 12.9518C17.7117 12.838 18.8791 12.515 20.0517 11.9962C20.3164 12.2556 20.7823 12.6897 21.272 13.0259Z" fill="url(#paint4_linear_11698_3327)"/>
<path d="M18.4999 24.861L15.2705 27.0978L12.1973 24.8557C12.4037 24.3422 12.6446 23.5746 12.6658 22.7354C12.6684 22.6481 12.6684 22.566 12.6658 22.4893C13.5234 22.9128 14.4605 23.1351 15.4267 23.1351C16.3081 23.1351 17.1631 22.9498 17.9546 22.5978V22.6004C17.9784 23.474 18.2379 24.2681 18.4999 24.861Z" fill="url(#paint5_linear_11698_3327)"/>
<path d="M38.5 13C42.0899 13 45 10.0899 45 6.5C45 2.91015 42.0899 0 38.5 0C34.9101 0 32 2.91015 32 6.5C32 10.0899 34.9101 13 38.5 13Z" fill="#8D8D8D"/>
<path d="M38.5 13C42.0899 13 45 10.0899 45 6.5C45 2.91015 42.0899 0 38.5 0C34.9101 0 32 2.91015 32 6.5C32 10.0899 34.9101 13 38.5 13Z" fill="url(#paint6_linear_11698_3327)"/>
<path d="M40.7618 9.6077C40.6505 9.60783 40.5402 9.58595 40.4373 9.54333C40.3344 9.5007 40.241 9.43816 40.1624 9.35931L35.6406 4.83757C35.4826 4.67839 35.3941 4.46307 35.3945 4.23877C35.3949 4.01447 35.4842 3.79948 35.6428 3.64087C35.8014 3.48227 36.0164 3.39299 36.2407 3.39258C36.465 3.39217 36.6803 3.48067 36.8395 3.63869L41.3613 8.16043C41.4798 8.27901 41.5605 8.43006 41.5932 8.5945C41.6259 8.75895 41.6091 8.9294 41.545 9.0843C41.4808 9.2392 41.3722 9.37161 41.2328 9.46477C41.0934 9.55793 40.9295 9.60767 40.7618 9.6077Z" fill="#EAF4F4"/>
<path d="M36.2383 9.6077C36.0707 9.60767 35.9068 9.55793 35.7674 9.46477C35.628 9.37161 35.5193 9.2392 35.4552 9.0843C35.391 8.9294 35.3742 8.75895 35.4069 8.5945C35.4396 8.43006 35.5203 8.27901 35.6389 8.16043L40.1606 3.63869C40.3198 3.48067 40.5351 3.39217 40.7594 3.39258C40.9837 3.39299 41.1987 3.48227 41.3573 3.64087C41.5159 3.79948 41.6052 4.01447 41.6056 4.23877C41.606 4.46307 41.5175 4.67839 41.3595 4.83757L36.8378 9.35931C36.7591 9.43816 36.6657 9.5007 36.5628 9.54333C36.46 9.58595 36.3497 9.60783 36.2383 9.6077Z" fill="#EAF4F4"/>
</g>
<defs>
<linearGradient id="paint0_linear_11698_3327" x1="33.6384" y1="40.5004" x2="33.6384" y2="22.8497" gradientUnits="userSpaceOnUse">
<stop stop-color="#9B9B9B"/>
<stop offset="1" stop-color="#DDDDDD"/>
</linearGradient>
<linearGradient id="paint1_linear_11698_3327" x1="33.6383" y1="21.9642" x2="33.6383" y2="14.762" gradientUnits="userSpaceOnUse">
<stop stop-color="#9B9B9B"/>
<stop offset="1" stop-color="#DDDDDD"/>
</linearGradient>
<linearGradient id="paint2_linear_11698_3327" x1="14.074" y1="40.5003" x2="14.074" y2="24.6108" gradientUnits="userSpaceOnUse">
<stop stop-color="#9B9B9B"/>
<stop offset="1" stop-color="#DDDDDD"/>
</linearGradient>
<linearGradient id="paint3_linear_11698_3327" x1="15.8545" y1="12.1886" x2="15.8545" y2="4.49225" gradientUnits="userSpaceOnUse">
<stop stop-color="#9B9B9B"/>
<stop offset="1" stop-color="#DDDDDD"/>
</linearGradient>
<linearGradient id="paint4_linear_11698_3327" x1="15.4307" y1="22.2416" x2="15.4307" y2="11.9149" gradientUnits="userSpaceOnUse">
<stop stop-color="#9B9B9B"/>
<stop offset="1" stop-color="#DDDDDD"/>
</linearGradient>
<linearGradient id="paint5_linear_11698_3327" x1="15.349" y1="27.0972" x2="15.349" y2="22.4873" gradientUnits="userSpaceOnUse">
<stop stop-color="#9B9B9B"/>
<stop offset="1" stop-color="#DDDDDD"/>
</linearGradient>
<linearGradient id="paint6_linear_11698_3327" x1="38.5008" y1="12.9983" x2="33.3" y2="2.16667" gradientUnits="userSpaceOnUse">
<stop stop-color="#6B6B6B"/>
<stop offset="1" stop-color="#D9D9D9"/>
</linearGradient>
<clipPath id="clip0_11698_3327">
<rect width="45" height="45" fill="white"/>
</clipPath>
</defs>
</svg>
