<svg width="16" height="16" viewBox="0 0 16 16" fill="none" xmlns="http://www.w3.org/2000/svg">
<path d="M6.6665 3.5H9.6665C9.6665 3.10218 9.50847 2.72064 9.22716 2.43934C8.94586 2.15804 8.56433 2 8.1665 2C7.76868 2 7.38715 2.15804 7.10584 2.43934C6.82454 2.72064 6.6665 3.10218 6.6665 3.5ZM5.1665 3.5C5.1665 2.70435 5.48257 1.94129 6.04518 1.37868C6.60779 0.816071 7.37085 0.5 8.1665 0.5C8.96215 0.5 9.72522 0.816071 10.2878 1.37868C10.8504 1.94129 11.1665 2.70435 11.1665 3.5H14.9165C15.1154 3.5 15.3062 3.57902 15.4468 3.71967C15.5875 3.86032 15.6665 4.05109 15.6665 4.25C15.6665 4.44891 15.5875 4.63968 15.4468 4.78033C15.3062 4.92098 15.1154 5 14.9165 5H14.255L13.5905 12.755C13.5266 13.5038 13.184 14.2014 12.6304 14.7098C12.0768 15.2181 11.3526 15.5001 10.601 15.5H5.732C4.98044 15.5001 4.25621 15.2181 3.70262 14.7098C3.14902 14.2014 2.80639 13.5038 2.7425 12.755L2.078 5H1.4165C1.21759 5 1.02683 4.92098 0.886174 4.78033C0.745522 4.63968 0.666504 4.44891 0.666504 4.25C0.666504 4.05109 0.745522 3.86032 0.886174 3.71967C1.02683 3.57902 1.21759 3.5 1.4165 3.5H5.1665ZM10.4165 8C10.4165 7.80109 10.3375 7.61032 10.1968 7.46967C10.0562 7.32902 9.86542 7.25 9.6665 7.25C9.46759 7.25 9.27683 7.32902 9.13617 7.46967C8.99552 7.61032 8.9165 7.80109 8.9165 8V11C8.9165 11.1989 8.99552 11.3897 9.13617 11.5303C9.27683 11.671 9.46759 11.75 9.6665 11.75C9.86542 11.75 10.0562 11.671 10.1968 11.5303C10.3375 11.3897 10.4165 11.1989 10.4165 11V8ZM6.6665 7.25C6.86542 7.25 7.05618 7.32902 7.19683 7.46967C7.33749 7.61032 7.4165 7.80109 7.4165 8V11C7.4165 11.1989 7.33749 11.3897 7.19683 11.5303C7.05618 11.671 6.86542 11.75 6.6665 11.75C6.46759 11.75 6.27683 11.671 6.13617 11.5303C5.99552 11.3897 5.9165 11.1989 5.9165 11V8C5.9165 7.80109 5.99552 7.61032 6.13617 7.46967C6.27683 7.32902 6.46759 7.25 6.6665 7.25ZM4.2365 12.6275C4.26846 13.0021 4.43988 13.351 4.71684 13.6051C4.99379 13.8593 5.35609 14.0002 5.732 14H10.601C10.9767 13.9999 11.3386 13.8588 11.6152 13.6046C11.8919 13.3505 12.0631 13.0018 12.095 12.6275L12.749 5H3.584L4.238 12.6275H4.2365Z" fill="#FF6D6D"/>
</svg>
