<svg width="50" height="51" viewBox="0 0 50 51" fill="none" xmlns="http://www.w3.org/2000/svg">
<path d="M15.2455 5.57031H28.6292L39.9584 17.3902V40.3668C39.9584 43.2409 37.6289 45.5703 34.7549 45.5703H15.2455C12.3714 45.5703 10.042 43.2408 10.042 40.3668V10.7738C10.042 7.8998 12.3714 5.57031 15.2455 5.57031Z" fill="#245BD1"/>
<path fill-rule="evenodd" clip-rule="evenodd" d="M28.6128 5.57031V14.8931C28.6128 16.2186 29.6873 17.2931 31.0128 17.2931H39.9582L28.6128 5.57031Z" fill="#5C8FFC"/>
<path d="M14.8735 34.1113V27.4896H17.2192C17.6883 27.4896 18.1251 27.5597 18.5295 27.6891C18.934 27.8239 19.3006 28.018 19.6296 28.2769C19.9585 28.5357 20.2174 28.8808 20.4061 29.3122C20.5948 29.7435 20.6919 30.2396 20.6919 30.8004C20.6919 31.3612 20.5948 31.8573 20.4061 32.2887C20.2174 32.72 19.9585 33.0652 19.6296 33.324C19.3007 33.5828 18.934 33.7769 18.5295 33.9118C18.1251 34.0412 17.6884 34.1113 17.2192 34.1113H14.8735ZM16.529 32.6716H17.0197C17.2839 32.6716 17.5319 32.6392 17.753 32.5799C17.9795 32.5152 18.1844 32.4128 18.3785 32.2779C18.5726 32.1431 18.7236 31.949 18.8314 31.6956C18.9447 31.4475 18.9986 31.1455 18.9986 30.8004C18.9986 30.4554 18.9446 30.1534 18.8314 29.8999C18.7236 29.6519 18.5726 29.4577 18.3785 29.323C18.1844 29.1828 17.9795 29.0857 17.753 29.021C17.5319 28.9616 17.2839 28.9293 17.0197 28.9293H16.529V32.6716ZM24.7091 34.1868C23.7115 34.1868 22.8865 33.8633 22.2341 33.2216C21.5816 32.5799 21.258 31.7711 21.258 30.8005C21.258 29.8299 21.5816 29.021 22.2341 28.3794C22.8865 27.7377 23.7115 27.4142 24.7091 27.4142C25.6905 27.4142 26.5047 27.7377 27.1572 28.3794C27.8043 29.0211 28.1278 29.8299 28.1278 30.8005C28.1278 31.7711 27.8043 32.5799 27.1572 33.2216C26.5047 33.8633 25.6905 34.1868 24.7091 34.1868ZM23.4365 32.1971C23.7654 32.5637 24.186 32.7471 24.6983 32.7471C25.2106 32.7471 25.6257 32.5637 25.9547 32.1971C26.2836 31.825 26.4454 31.3612 26.4454 30.8004C26.4454 30.2396 26.2836 29.7759 25.9547 29.4038C25.6258 29.0372 25.2106 28.8538 24.6983 28.8538C24.186 28.8538 23.7654 29.0372 23.4365 29.4038C23.1076 29.7759 22.9404 30.2396 22.9404 30.8004C22.9404 31.3612 23.1076 31.825 23.4365 32.1971ZM32.0642 34.1868C31.099 34.1868 30.2955 33.8848 29.6592 33.2917C29.0175 32.6932 28.6994 31.8627 28.6994 30.8004C28.6994 29.7435 29.023 28.9131 29.67 28.3146C30.3225 27.716 31.1152 27.4141 32.0642 27.4141C32.9216 27.4141 33.6226 27.6244 34.178 28.0504C34.728 28.471 35.0462 29.0317 35.127 29.7327L33.4554 30.0725C33.3853 29.7058 33.2182 29.4092 32.9593 29.1881C32.7005 28.967 32.3985 28.8538 32.0534 28.8538C31.5789 28.8538 31.1852 29.021 30.8671 29.3607C30.5489 29.7057 30.3872 30.1803 30.3872 30.8004C30.3872 31.4205 30.5489 31.895 30.8617 32.2348C31.1798 32.5798 31.5735 32.747 32.0534 32.747C32.3984 32.747 32.6951 32.65 32.9377 32.4559C33.1803 32.2617 33.3314 32.0029 33.3961 31.6794L35.1054 32.0676C34.949 32.7363 34.6039 33.2539 34.0647 33.626C33.5309 33.9981 32.8622 34.1868 32.0642 34.1868Z" fill="#EFF4FF"/>
</svg>
