<svg width="50" height="51" viewBox="0 0 50 51" fill="none" xmlns="http://www.w3.org/2000/svg">
<path fill-rule="evenodd" clip-rule="evenodd" d="M15.2493 5.57031H28.6278L39.9597 17.3927V40.361C39.9597 43.2363 37.6256 45.5703 34.7504 45.5703H15.2493C12.3741 45.5703 10.04 43.2363 10.04 40.361V10.7796C10.04 7.90435 12.3741 5.57031 15.2493 5.57031Z" fill="#5C8FFC"/>
<path fill-rule="evenodd" clip-rule="evenodd" d="M28.6128 5.57031V14.2931C28.6128 15.95 29.9559 17.2931 31.6128 17.2931H39.9582L28.6128 5.57031Z" fill="#BED2FE"/>
<path d="M29.4166 25.3173L22.0128 27.1755C21.6012 27.2789 21.3127 27.6486 21.3127 28.073V32.7223H20.3872C18.8795 32.7223 17.6108 33.9382 17.6108 35.5134C17.6108 37.0438 18.8564 38.2891 20.3872 38.2891C21.9181 38.2891 23.1636 37.0438 23.1636 35.5134C23.1636 34.8489 23.1636 29.4663 23.1636 28.7946L28.7164 27.4008V30.8641H27.791C26.2601 30.8641 25.0146 32.1092 25.0146 33.6398C25.0146 35.2131 26.2813 36.4309 27.791 36.4309C29.3219 36.4309 30.5674 35.1859 30.5674 33.6552C30.5674 33.5376 30.5674 26.4445 30.5674 26.2148C30.5674 25.6123 30.0001 25.1708 29.4166 25.3173Z" fill="#EFF4FF"/>
</svg>
