<svg width="50" height="51" viewBox="0 0 50 51" fill="none" xmlns="http://www.w3.org/2000/svg">
<path fill-rule="evenodd" clip-rule="evenodd" d="M15.2493 5.57031H28.6278L39.9597 17.3927V40.361C39.9597 43.2363 37.6256 45.5703 34.7504 45.5703H15.2493C12.3741 45.5703 10.04 43.2363 10.04 40.361V10.7796C10.04 7.90435 12.3741 5.57031 15.2493 5.57031Z" fill="#5C8FFC"/>
<path fill-rule="evenodd" clip-rule="evenodd" d="M28.6133 5.57031V14.2931C28.6133 15.95 29.9564 17.2931 31.6133 17.2931H39.9587L28.6133 5.57031Z" fill="#BED2FE"/>
<path d="M31.926 26.9822C31.7907 26.8807 31.5877 26.8807 31.4355 26.9483L28.0698 28.6397V27.4219C28.0698 26.5593 27.3932 25.8828 26.5307 25.8828H19.3594C18.5137 25.8828 17.8203 26.5593 17.8203 27.4219V33.5614C17.8203 34.424 18.5138 35.1005 19.3594 35.1005H26.5307C27.3932 35.1005 28.0698 34.424 28.0698 33.5614V32.3437L31.4355 34.035C31.6892 34.1534 31.9937 34.0519 32.129 33.7982C32.1628 33.7305 32.1797 33.646 32.1797 33.5614V27.4219C32.1797 27.2358 32.0782 27.0667 31.926 26.9822ZM22.9451 32.5466C21.8119 32.5466 20.8985 31.6164 20.8985 30.4832C20.8985 29.3499 21.8119 28.4366 22.9451 28.4366C24.0783 28.4366 24.9916 29.3499 24.9916 30.4832C24.9916 31.6164 24.0783 32.5466 22.9451 32.5466Z" fill="#EFF4FF"/>
</svg>
