<svg width="50" height="51" viewBox="0 0 50 51" fill="none" xmlns="http://www.w3.org/2000/svg">
<path fill-rule="evenodd" clip-rule="evenodd" d="M14.9969 5.07031H28.7184L40.3301 17.1908V40.7283C40.3301 43.6762 37.9509 46.0703 35.0031 46.0703H14.9969C12.0641 46.0703 9.66992 43.6762 9.66992 40.7283V10.3973C9.66987 7.46446 12.0641 5.07031 14.9969 5.07031Z" fill="#019463"/>
<path fill-rule="evenodd" clip-rule="evenodd" d="M28.7183 5.07031V14.0586C28.7183 15.7154 30.0614 17.0586 31.7183 17.0586H40.3206L28.7183 5.07031Z" fill="#9BE4CA"/>
<path d="M22.4188 34.9251H20.4287L19.067 32.6357L17.7053 34.9251H15.7002L18.0645 30.9447L15.9845 27.4882H17.9896L19.0669 29.2838L20.1293 27.4882H22.1344L20.0694 30.9597L22.4188 34.9251ZM23.1221 34.9251V27.4882H25.0224V33.3089H28.2545V34.925H23.1221V34.9251ZM31.3969 35.0148C30.6487 35.0148 29.9903 34.7754 29.4217 34.3115C28.868 33.8626 28.5539 33.294 28.5089 32.6207L30.14 32.1419C30.1849 32.501 30.3345 32.8152 30.5889 33.0546C30.8582 33.2941 31.1575 33.4137 31.4867 33.4137C31.756 33.4137 31.9805 33.3539 32.1601 33.2342C32.3246 33.1145 32.4144 32.9499 32.4144 32.7554C32.4144 32.5908 32.3396 32.4561 32.2049 32.3364C32.0702 32.2316 31.8907 32.1419 31.6812 32.0671C31.4717 31.9923 31.2173 31.9174 30.9629 31.8576C30.6936 31.7828 30.4242 31.693 30.1699 31.5733C29.9005 31.4685 29.6611 31.3338 29.4516 31.1693C29.2271 31.0196 29.0626 30.7952 28.9279 30.5108C28.7932 30.2415 28.7184 29.9123 28.7184 29.5382C28.7184 28.9247 28.9727 28.416 29.4965 28.0119C30.0202 27.593 30.6487 27.3984 31.3819 27.3984C32.1151 27.3984 32.7585 27.578 33.2972 27.9222C33.8359 28.2813 34.18 28.7452 34.3147 29.3138L32.6089 30.032C32.5341 29.7178 32.3844 29.4634 32.1749 29.2689C31.9654 29.0894 31.6961 28.9846 31.3819 28.9846C31.1424 28.9846 30.9629 29.0444 30.8133 29.1343C30.6786 29.224 30.6187 29.3587 30.6187 29.5233C30.6187 29.673 30.7085 29.8076 30.8881 29.9124C31.0676 30.0021 31.3071 30.0769 31.5764 30.1218C31.8457 30.1668 32.145 30.2416 32.4592 30.3463C32.7884 30.466 33.0727 30.5857 33.357 30.7503C33.6263 30.9 33.8508 31.1543 34.0304 31.4835C34.2249 31.8277 34.3147 32.2317 34.3147 32.6956C34.3147 33.3839 34.0453 33.9525 33.5066 34.3715C32.9679 34.7904 32.2648 35.0148 31.3969 35.0148Z" fill="#FFE4AF"/>
</svg>
