<svg width="50" height="51" viewBox="0 0 50 51" fill="none" xmlns="http://www.w3.org/2000/svg">
<path fill-rule="evenodd" clip-rule="evenodd" d="M15.2493 5.57031H28.6278L39.9597 17.3927V40.361C39.9597 43.2363 37.6256 45.5703 34.7504 45.5703H15.2493C12.3741 45.5703 10.04 43.2363 10.04 40.361V10.7796C10.04 7.90435 12.3741 5.57031 15.2493 5.57031Z" fill="#5C8FFC"/>
<path fill-rule="evenodd" clip-rule="evenodd" d="M28.6123 5.57031V14.2931C28.6123 15.95 29.9555 17.2931 31.6123 17.2931H39.9577L28.6123 5.57031Z" fill="#BED2FE"/>
<path fill-rule="evenodd" clip-rule="evenodd" d="M31.8289 25.5625H18.367C17.3591 25.5625 16.5303 26.3913 16.5303 27.3993V35.9557C16.5303 36.9637 17.359 37.7925 18.367 37.7925H31.8289C32.8369 37.7925 33.6433 36.9637 33.6433 35.9557V27.3992C33.6433 26.3913 32.8369 25.5625 31.8289 25.5625ZM22.0405 27.8696C23.1381 27.8696 24.0116 28.7656 24.0116 29.8407C24.0116 30.9383 23.1381 31.8342 22.0405 31.8342C20.9429 31.8342 20.047 30.9383 20.047 29.8407C20.047 28.7656 20.9429 27.8696 22.0405 27.8696ZM32.4337 35.9557C32.4337 36.2917 32.1649 36.5829 31.8289 36.5829H18.367C18.031 36.5829 17.7622 36.2917 17.7622 35.9557V35.5974L20.2037 33.1559L22.2197 35.1718C22.4661 35.4182 22.8468 35.4182 23.0932 35.1718L28.1555 30.1096L32.4337 34.3878V35.9557Z" fill="white"/>
</svg>
