<svg width="50" height="51" viewBox="0 0 50 51" fill="none" xmlns="http://www.w3.org/2000/svg">
<path d="M41.0804 18.2756V41.6322C41.0804 43.8071 39.3173 45.5703 37.1423 45.5703H12.8576C10.6826 45.5703 8.91943 43.8071 8.91943 41.6322V9.50845C8.91989 7.33347 10.6826 5.57031 12.8576 5.57031H29.1228L41.0804 18.2756Z" fill="#F0AF34"/>
<path fill-rule="evenodd" clip-rule="evenodd" d="M29.1167 5.57031V14.9319C29.1167 16.5888 30.4598 17.9319 32.1167 17.9319H41.0803L29.1167 5.57031Z" fill="#FFE4AF"/>
<path d="M19.0363 34.1519H22.7844V35.6055H16.6799V34.6083L20.4153 29.2242H16.6567V27.7656H22.7458V28.7347L19.0363 34.1519Z" fill="#FFF9EC"/>
<path d="M25.6536 35.6055H23.769V27.7656H25.6536V35.6055Z" fill="#FFF9EC"/>
<path d="M28.8583 32.9447V35.606H26.9688V27.7656H30.0964C30.6964 27.7656 31.2269 27.8761 31.6887 28.0965C32.1501 28.317 32.5064 28.6324 32.7605 29.0402C33.0119 29.4479 33.14 29.9092 33.14 30.427C33.14 31.191 32.8655 31.801 32.3169 32.2601C31.771 32.7165 31.0196 32.9447 30.0633 32.9447H28.8583ZM28.8583 31.4856H30.0964C30.4633 31.4856 30.7423 31.396 30.9346 31.211C31.1269 31.0292 31.2219 30.7701 31.2219 30.437C31.2219 30.0701 31.1219 29.7779 30.9246 29.5574C30.7273 29.3397 30.4578 29.2292 30.1169 29.2242H28.8583V31.4856Z" fill="#FFF9EC"/>
</svg>
