<svg width="50" height="51" viewBox="0 0 50 51" fill="none" xmlns="http://www.w3.org/2000/svg">
<path fill-rule="evenodd" clip-rule="evenodd" d="M15.2499 5.57031H28.6232L39.9575 17.3844V40.3629C39.9575 43.2415 37.6287 45.5703 34.7601 45.5703H15.2499C12.3713 45.5703 10.0425 43.2415 10.0425 40.3629V10.7777C10.0424 7.89914 12.3713 5.57031 15.2499 5.57031Z" fill="#FF4040"/>
<path fill-rule="evenodd" clip-rule="evenodd" d="M28.6128 5.57031V14.2931C28.6128 15.95 29.9559 17.2931 31.6128 17.2931H39.9582L28.6128 5.57031Z" fill="#FFB3B3"/>
<path d="M15.8296 35.4157V28.1094H18.938C19.7077 28.1094 20.3174 28.3193 20.7771 28.7491C21.2369 29.1688 21.4668 29.7386 21.4668 30.4482C21.4668 31.1578 21.2369 31.7276 20.7771 32.1474C20.3174 32.5772 19.7077 32.787 18.938 32.787H17.6987V35.4157H15.8296ZM17.6987 31.1979H18.7282C19.008 31.1979 19.2279 31.1379 19.3778 30.998C19.5277 30.868 19.6077 30.6881 19.6077 30.4483C19.6077 30.2084 19.5278 30.0285 19.3778 29.8985C19.2279 29.7586 19.008 29.6987 18.7282 29.6987H17.6987V31.1979ZM22.2364 35.4157V28.1094H24.8251C25.3348 28.1094 25.8146 28.1793 26.2644 28.3293C26.7141 28.4792 27.1239 28.6891 27.4837 28.979C27.8436 29.2588 28.1334 29.6386 28.3433 30.1184C28.5432 30.5982 28.6532 31.1479 28.6532 31.7676C28.6532 32.3773 28.5433 32.927 28.3433 33.4067C28.1334 33.8865 27.8436 34.2663 27.4837 34.5461C27.1239 34.836 26.7141 35.0459 26.2644 35.1958C25.8146 35.3457 25.3348 35.4157 24.8251 35.4157H22.2364ZM24.0655 33.8265H24.6052C24.895 33.8265 25.1649 33.7966 25.4148 33.7266C25.6546 33.6566 25.8846 33.5467 26.1045 33.3968C26.3143 33.2469 26.4843 33.0369 26.6042 32.7571C26.7241 32.4772 26.7841 32.1474 26.7841 31.7676C26.7841 31.3777 26.7241 31.0479 26.6042 30.7681C26.4843 30.4882 26.3143 30.2783 26.1045 30.1284C25.8846 29.9785 25.6547 29.8685 25.4148 29.7986C25.1649 29.7286 24.895 29.6986 24.6052 29.6986H24.0655V33.8265ZM29.5927 35.4157V28.1094H34.7901V29.6986H31.4618V30.868H34.1204V32.4472H31.4618V35.4157H29.5927Z" fill="#FFEBC4"/>
</svg>
