<svg width="50" height="51" viewBox="0 0 50 51" fill="none" xmlns="http://www.w3.org/2000/svg">
<path fill-rule="evenodd" clip-rule="evenodd" d="M15.2499 5.57031H28.6232L39.9575 17.3844V40.3629C39.9575 43.2415 37.6287 45.5703 34.7601 45.5703H15.2499C12.3713 45.5703 10.0425 43.2415 10.0425 40.3629V10.7777C10.0424 7.89914 12.3713 5.57031 15.2499 5.57031Z" fill="#CC952C"/>
<path fill-rule="evenodd" clip-rule="evenodd" d="M28.6128 5.57031V14.2931C28.6128 15.95 29.9559 17.2931 31.6128 17.2931H39.9582L28.6128 5.57031Z" fill="#F0AF34"/>
<path d="M16.3291 34.1882V26.9219H19.4175C20.1772 26.9219 20.7869 27.1318 21.2466 27.5616C21.6964 27.9813 21.9263 28.5411 21.9263 29.2507C21.9263 29.9504 21.6964 30.5201 21.2466 30.9398C20.7869 31.3596 20.1772 31.5695 19.4175 31.5695H18.1782V34.1882H16.3291ZM18.1782 29.9904H19.2077C19.4875 29.9904 19.6974 29.9304 19.8574 29.8004C20.0073 29.6705 20.0773 29.4806 20.0773 29.2507C20.0773 29.0108 20.0073 28.8309 19.8574 28.701C19.6975 28.571 19.4876 28.5011 19.2077 28.5011H18.1782V29.9904ZM22.7059 34.1882V26.9219H25.7944C26.554 26.9219 27.1637 27.1318 27.6235 27.5616C28.0832 27.9813 28.3031 28.5411 28.3031 29.2507C28.3031 29.9504 28.0832 30.5201 27.6235 30.9398C27.1637 31.3596 26.554 31.5695 25.7944 31.5695H24.565V34.1882H22.7059ZM24.565 29.9904H25.5845C25.8643 29.9904 26.0842 29.9304 26.2342 29.8004C26.3841 29.6705 26.4641 29.4806 26.4641 29.2507C26.4641 29.0108 26.3841 28.8309 26.2342 28.701C26.0842 28.571 25.8644 28.5011 25.5845 28.5011H24.565V29.9904ZM30.9718 34.1882V28.5011H28.9028V26.9219H34.9098V28.5011H32.8309V34.1882H30.9718Z" fill="#EFF4FF"/>
</svg>
