<svg width="50" height="51" viewBox="0 0 50 51" fill="none" xmlns="http://www.w3.org/2000/svg">
<path d="M15.2405 5.57031H28.6277L39.9607 17.388V40.3693C39.9607 43.2391 37.6295 45.5703 34.752 45.5703H15.2406C12.3708 45.5703 10.0396 43.2391 10.0396 40.3693V10.7713C10.0395 7.90152 12.3707 5.57031 15.2405 5.57031Z" fill="#656566"/>
<path fill-rule="evenodd" clip-rule="evenodd" d="M28.6133 5.57031V14.2931C28.6133 15.95 29.9564 17.2931 31.6133 17.2931H39.9587L28.6133 5.57031Z" fill="#A7A7A7"/>
<path d="M30.2743 26.3791H19.7261C19.2414 26.3791 18.8413 25.9867 18.8413 25.5021C18.8413 25.0174 19.2414 24.625 19.7261 24.625H30.2743C30.759 24.625 31.1514 25.0174 31.1514 25.5021C31.1514 25.9867 30.759 26.3791 30.2743 26.3791ZM26.7582 36.9273H19.7261C19.2414 36.9273 18.8413 36.5349 18.8413 36.0503C18.8413 35.5656 19.2414 35.1732 19.7261 35.1732H26.7582C27.243 35.1732 27.6353 35.5656 27.6353 36.0503C27.6353 36.5349 27.243 36.9273 26.7582 36.9273ZM30.2743 33.4113H19.7261C19.2414 33.4113 18.8413 33.0189 18.8413 32.5342C18.8413 32.0495 19.2414 31.6571 19.7261 31.6571H30.2743C30.759 31.6571 31.1514 32.0495 31.1514 32.5342C31.1514 33.0189 30.759 33.4113 30.2743 33.4113ZM30.2743 29.8952H19.7261C19.2414 29.8952 18.8413 29.5028 18.8413 29.0181C18.8413 28.5335 19.2414 28.1411 19.7261 28.1411H30.2743C30.759 28.1411 31.1514 28.5335 31.1514 29.0181C31.1514 29.5028 30.759 29.8952 30.2743 29.8952Z" fill="#FFF9EC"/>
</svg>
