<svg xmlns="http://www.w3.org/2000/svg" width="40" height="41" viewBox="0 0 40 41" fill="none">
  <path d="M33.75 10.7901H27.5V9.5401C27.5 8.87706 27.7634 8.24117 28.2322 7.77233C28.7011 7.30349 29.337 7.0401 30 7.0401C30.3315 7.0401 30.6495 6.9084 30.8839 6.67398C31.1183 6.43956 31.25 6.12162 31.25 5.7901C31.25 5.45858 31.1183 5.14064 30.8839 4.90622C30.6495 4.6718 30.3315 4.5401 30 4.5401C29.2901 4.541 28.5885 4.69307 27.9419 4.98619C27.2953 5.27931 26.7185 5.70676 26.25 6.2401C25.7815 5.70676 25.2047 5.27931 24.5581 4.98619C23.9115 4.69307 23.2099 4.541 22.5 4.5401C22.1685 4.5401 21.8505 4.6718 21.6161 4.90622C21.3817 5.14064 21.25 5.45858 21.25 5.7901C21.25 6.12162 21.3817 6.43956 21.6161 6.67398C21.8505 6.9084 22.1685 7.0401 22.5 7.0401C23.163 7.0401 23.7989 7.30349 24.2678 7.77233C24.7366 8.24117 25 8.87706 25 9.5401V10.7901H6.25C5.25544 10.7901 4.30161 11.1852 3.59835 11.8884C2.89509 12.5917 2.5 13.5455 2.5 14.5401V27.0401C2.5 28.0347 2.89509 28.9885 3.59835 29.6918C4.30161 30.395 5.25544 30.7901 6.25 30.7901H25V32.0401C25 32.7031 24.7366 33.339 24.2678 33.8079C23.7989 34.2767 23.163 34.5401 22.5 34.5401C22.1685 34.5401 21.8505 34.6718 21.6161 34.9062C21.3817 35.1406 21.25 35.4586 21.25 35.7901C21.25 36.1216 21.3817 36.4396 21.6161 36.674C21.8505 36.9084 22.1685 37.0401 22.5 37.0401C23.2099 37.0392 23.9115 36.8871 24.5581 36.594C25.2047 36.3009 25.7815 35.8734 26.25 35.3401C26.7185 35.8734 27.2953 36.3009 27.9419 36.594C28.5885 36.8871 29.2901 37.0392 30 37.0401C30.3315 37.0401 30.6495 36.9084 30.8839 36.674C31.1183 36.4396 31.25 36.1216 31.25 35.7901C31.25 35.4586 31.1183 35.1406 30.8839 34.9062C30.6495 34.6718 30.3315 34.5401 30 34.5401C29.337 34.5401 28.7011 34.2767 28.2322 33.8079C27.7634 33.339 27.5 32.7031 27.5 32.0401V30.7901H33.75C34.7446 30.7901 35.6984 30.395 36.4016 29.6918C37.1049 28.9885 37.5 28.0347 37.5 27.0401V14.5401C37.5 13.5455 37.1049 12.5917 36.4016 11.8884C35.6984 11.1852 34.7446 10.7901 33.75 10.7901ZM6.25 28.2901C5.91848 28.2901 5.60054 28.1584 5.36612 27.924C5.1317 27.6896 5 27.3716 5 27.0401V14.5401C5 14.2086 5.1317 13.8906 5.36612 13.6562C5.60054 13.4218 5.91848 13.2901 6.25 13.2901H25V28.2901H6.25ZM35 27.0401C35 27.3716 34.8683 27.6896 34.6339 27.924C34.3995 28.1584 34.0815 28.2901 33.75 28.2901H27.5V13.2901H33.75C34.0815 13.2901 34.3995 13.4218 34.6339 13.6562C34.8683 13.8906 35 14.2086 35 14.5401V27.0401Z" fill="currentColor"/>
  <path d="M13.75 15.7901H8.75C8.41848 15.7901 8.10054 15.9218 7.86612 16.1562C7.6317 16.3906 7.5 16.7086 7.5 17.0401C7.5 17.3716 7.6317 17.6896 7.86612 17.924C8.10054 18.1584 8.41848 18.2901 8.75 18.2901H10V24.5401C10 24.8716 10.1317 25.1896 10.3661 25.424C10.6005 25.6584 10.9185 25.7901 11.25 25.7901C11.5815 25.7901 11.8995 25.6584 12.1339 25.424C12.3683 25.1896 12.5 24.8716 12.5 24.5401V18.2901H13.75C14.0815 18.2901 14.3995 18.1584 14.6339 17.924C14.8683 17.6896 15 17.3716 15 17.0401C15 16.7086 14.8683 16.3906 14.6339 16.1562C14.3995 15.9218 14.0815 15.7901 13.75 15.7901Z" fill="currentColor"/>
</svg>