<svg width="75" height="57" viewBox="0 0 75 57" fill="none" xmlns="http://www.w3.org/2000/svg">
<path d="M40.9355 52.5703C45.76 52.5703 49.6855 48.6448 49.6855 43.8203V12.3203C49.6855 7.49585 45.76 3.57031 40.9355 3.57031H16.4355C11.6111 3.57031 7.68555 7.49585 7.68555 12.3203V43.8203C7.68555 48.6448 11.6111 52.5703 16.4355 52.5703H40.9355ZM11.1855 12.3203C11.1855 9.42529 13.5405 7.07031 16.4355 7.07031H40.9355C43.8306 7.07031 46.1855 9.42529 46.1855 12.3203V43.8203C46.1855 46.7153 43.8306 49.0703 40.9355 49.0703H16.4355C13.5405 49.0703 11.1855 46.7153 11.1855 43.8203V12.3203Z" fill="#A7A7A7"/>
<path d="M25.1855 29.8203H39.1855C40.1528 29.8203 40.9355 29.0367 40.9355 28.0703C40.9355 27.1039 40.1528 26.3203 39.1855 26.3203H25.1855C24.2183 26.3203 23.4355 27.1039 23.4355 28.0703C23.4355 29.0367 24.2183 29.8203 25.1855 29.8203Z" fill="#A7A7A7"/>
<path d="M25.1855 21.0703H39.1855C40.1528 21.0703 40.9355 20.2867 40.9355 19.3203C40.9355 18.3539 40.1528 17.5703 39.1855 17.5703H25.1855C24.2183 17.5703 23.4355 18.3539 23.4355 19.3203C23.4355 20.2867 24.2183 21.0703 25.1855 21.0703Z" fill="#A7A7A7"/>
<path d="M25.1855 38.5703H39.1855C40.1528 38.5703 40.9355 37.7867 40.9355 36.8203C40.9355 35.8539 40.1528 35.0703 39.1855 35.0703H25.1855C24.2183 35.0703 23.4355 35.8539 23.4355 36.8203C23.4355 37.7867 24.2183 38.5703 25.1855 38.5703Z" fill="#A7A7A7"/>
<path d="M18.2195 21.0703C19.1868 21.0703 19.9695 20.2867 19.9695 19.3203C19.9695 18.3539 19.1868 17.5703 18.2195 17.5703H18.2024C17.2368 17.5703 16.4609 18.3539 16.4609 19.3203C16.4609 20.2867 17.2539 21.0703 18.2195 21.0703Z" fill="#A7A7A7"/>
<path d="M18.2195 29.8203C19.1868 29.8203 19.9695 29.0367 19.9695 28.0703C19.9695 27.1039 19.1868 26.3203 18.2195 26.3203H18.2024C17.2368 26.3203 16.4609 27.1039 16.4609 28.0703C16.4609 29.0367 17.2539 29.8203 18.2195 29.8203Z" fill="#A7A7A7"/>
<path d="M18.2195 38.5703C19.1868 38.5703 19.9695 37.7867 19.9695 36.8203C19.9695 35.8539 19.1868 35.0703 18.2195 35.0703H18.2024C17.2368 35.0703 16.4609 35.8539 16.4609 36.8203C16.4609 37.7867 17.2539 38.5703 18.2195 38.5703Z" fill="#A7A7A7"/>
<g clip-path="url(#clip0_13379_32249)">
<path d="M66.3834 48.6217C66.7576 48.2475 66.7576 47.6406 66.3834 47.2664L64.6893 45.5723L66.3834 43.8781C66.7576 43.5039 66.7576 42.8971 66.3834 42.5229C66.0092 42.1486 65.4024 42.1486 65.0281 42.5229L63.334 44.217L61.6399 42.5229C61.2656 42.1486 60.6588 42.1486 60.2846 42.5229C59.9103 42.8971 59.9103 43.5039 60.2846 43.8781L61.9787 45.5723L60.2846 47.2664C59.9103 47.6406 59.9103 48.2475 60.2846 48.6217C60.6588 48.9959 61.2656 48.9959 61.6399 48.6217L63.334 46.9276L65.0281 48.6217C65.4024 48.9959 66.0092 48.9959 66.3834 48.6217Z" fill="#A7A7A7"/>
<path fill-rule="evenodd" clip-rule="evenodd" d="M56.963 38.7208C60.6064 35.0774 66.5134 35.0774 70.1568 38.7208C73.5714 42.1354 73.7858 47.5383 70.8001 51.2026C67.1413 55.6928 60.3776 55.3292 56.963 51.9146C53.3196 48.2712 53.3196 42.3642 56.963 38.7208ZM68.8015 40.0761C65.9066 37.1812 61.2132 37.1812 58.3183 40.0761C55.4234 42.971 55.4234 47.6644 58.3183 50.5594C61.2132 53.4542 65.9066 53.4542 68.8015 50.5594C71.6964 47.6644 71.6964 42.971 68.8015 40.0761Z" fill="#A7A7A7"/>
</g>
<defs>
<clipPath id="clip0_13379_32249">
<rect width="21" height="21" fill="white" transform="translate(53.3125 35.0703)"/>
</clipPath>
</defs>
</svg>
