<svg xmlns="http://www.w3.org/2000/svg" width="40" height="41" viewBox="0 0 40 41" fill="none">
  <g clip-path="url(#clip0_15284_6093)">
    <path d="M39.2188 22.655C39.6502 22.655 40 22.3052 40 21.8737C40 21.4422 39.6502 21.0925 39.2188 21.0925C38.7873 21.0925 38.4375 21.4422 38.4375 21.8737C38.4375 22.3052 38.7873 22.655 39.2188 22.655Z" fill="#A7A7A7"/>
    <path d="M36.0938 0.7901H3.90625C1.75234 0.7901 0 2.54244 0 4.69635V32.7823C0 33.3096 0.103125 33.8214 0.307031 34.3026C0.664766 35.1541 1.42109 35.9798 2.38594 36.3815C2.86719 36.5846 3.37891 36.6885 3.90625 36.6885H31.7055L31.7065 36.6892L35.6223 40.5641C35.7745 40.7147 35.973 40.79 36.1718 40.79C36.3685 40.79 36.5652 40.7162 36.717 40.5683L39.7639 37.5996C39.9137 37.4537 39.9987 37.2538 39.9999 37.0448C40.0013 36.8358 39.9187 36.6349 39.7707 36.4872L38.8408 35.5585C39.2031 35.1999 39.4882 34.7813 39.6873 34.3142C39.8943 33.829 39.9998 33.3134 39.9998 32.7821V25.3892C39.9998 24.9587 39.6491 24.6079 39.2186 24.6079C38.7881 24.6079 38.4373 24.9587 38.4373 25.3892V32.7821C38.4373 33.4254 38.1819 34.0194 37.7353 34.4544L33.0934 29.8184C32.8362 29.5614 32.4448 29.5221 32.1454 29.6985L30.8041 28.3574C31.999 26.5421 32.6953 24.371 32.6953 22.0401C32.6953 15.686 27.5259 10.5167 21.1719 10.5167C14.8178 10.5167 9.64844 15.686 9.64844 22.0401C9.64844 28.3942 14.8178 33.5635 21.1719 33.5635C23.5029 33.5635 25.6739 32.8671 27.4893 31.6725L28.8305 33.0138C28.7602 33.1335 28.7215 33.2705 28.7218 33.4117C28.7223 33.6196 28.8057 33.8188 28.9535 33.965L30.1269 35.1261H3.90625C2.61641 35.1238 1.56484 34.0722 1.5625 32.7824V8.6026H38.4375V18.3581C38.4375 18.7885 38.7883 19.1393 39.2188 19.1393C39.6492 19.1393 40 18.7885 40 18.3581V4.69635C40 2.54244 38.2477 0.7901 36.0938 0.7901ZM38.1063 37.0332L36.1762 38.9139L30.6109 33.4067L32.5419 31.4758L38.1063 37.0332ZM11.2109 22.0401C11.2109 16.5476 15.6794 12.0792 21.1719 12.0792C26.6644 12.0792 31.1328 16.5476 31.1328 22.0401C31.1328 27.5326 26.6644 32.001 21.1719 32.001C15.6794 32.001 11.2109 27.5326 11.2109 22.0401ZM29.8513 29.6116C29.8523 29.6136 31.0224 30.7854 31.0224 30.7854L29.9171 31.8907L28.745 30.7181C29.1382 30.3746 29.5079 30.0048 29.8513 29.6116ZM1.5625 7.0401V4.69635C1.5625 3.40401 2.61391 2.3526 3.90625 2.3526H36.0938C37.3861 2.3526 38.4375 3.40401 38.4375 4.69635V7.0401H1.5625Z" fill="#A7A7A7"/>
    <path d="M4.6875 5.4776C5.11897 5.4776 5.46875 5.12782 5.46875 4.69635C5.46875 4.26488 5.11897 3.9151 4.6875 3.9151C4.25603 3.9151 3.90625 4.26488 3.90625 4.69635C3.90625 5.12782 4.25603 5.4776 4.6875 5.4776Z" fill="#A7A7A7"/>
    <path d="M11.7188 5.4776C12.1502 5.4776 12.5 5.12782 12.5 4.69635C12.5 4.26488 12.1502 3.9151 11.7188 3.9151C11.2873 3.9151 10.9375 4.26488 10.9375 4.69635C10.9375 5.12782 11.2873 5.4776 11.7188 5.4776Z" fill="#A7A7A7"/>
    <path d="M8.20312 5.4776C8.6346 5.4776 8.98438 5.12782 8.98438 4.69635C8.98438 4.26488 8.6346 3.9151 8.20312 3.9151C7.77165 3.9151 7.42188 4.26488 7.42188 4.69635C7.42188 5.12782 7.77165 5.4776 8.20312 5.4776Z" fill="#A7A7A7"/>
    <path d="M35.3125 3.9151H28.2812C27.8498 3.9151 27.5 4.26487 27.5 4.69635C27.5 5.12783 27.8498 5.4776 28.2812 5.4776H35.3125C35.7439 5.4776 36.0938 5.12783 36.0938 4.69635C36.0938 4.26487 35.7439 3.9151 35.3125 3.9151Z" fill="#A7A7A7"/>
    <path d="M21.1719 13.6417C16.5409 13.6417 12.7734 17.4092 12.7734 22.0401C12.7734 26.671 16.5409 30.4385 21.1719 30.4385C25.8027 30.4385 29.5703 26.671 29.5703 22.0401C29.5703 17.4092 25.8027 13.6417 21.1719 13.6417ZM21.1719 28.876C17.4025 28.876 14.3359 25.8095 14.3359 22.0401C14.3359 18.2707 17.4025 15.2042 21.1719 15.2042C24.9412 15.2042 28.0078 18.2707 28.0078 22.0401C28.0078 25.8095 24.9412 28.876 21.1719 28.876Z" fill="#A7A7A7"/>
    <path d="M24.7629 18.4493C24.4578 18.1442 23.9632 18.1442 23.658 18.4493L21.1721 20.9352L18.6862 18.4493C18.3811 18.1441 17.8864 18.1442 17.5813 18.4493C17.2763 18.7544 17.2763 19.2491 17.5813 19.5541L20.0673 22.0401L17.5813 24.526C17.2763 24.8311 17.2763 25.3257 17.5813 25.6308C17.8706 25.9201 18.3832 25.9338 18.6863 25.6308L21.1722 23.1448C21.1722 23.1448 23.6513 25.6239 23.6581 25.6308C23.9447 25.9174 24.4635 25.9302 24.763 25.6309C25.0681 25.3258 25.0681 24.8311 24.763 24.526L22.277 22.0401L24.7629 19.5541C25.068 19.2491 25.068 18.7544 24.7629 18.4493Z" fill="#A7A7A7"/>
  </g>
  <defs>
    <clipPath id="clip0_15284_6093">
      <rect width="40" height="40" fill="white" transform="translate(0 0.7901)"/>
    </clipPath>
  </defs>
</svg>