<svg width="75" height="57" viewBox="0 0 75 57" fill="none" xmlns="http://www.w3.org/2000/svg">
<path d="M40.9365 52.7852C45.761 52.7852 49.6865 48.8596 49.6865 44.0352V12.5352C49.6865 7.71069 45.761 3.78516 40.9365 3.78516H16.4365C11.6121 3.78516 7.68652 7.71069 7.68652 12.5352V44.0352C7.68652 48.8596 11.6121 52.7852 16.4365 52.7852H40.9365ZM11.1865 12.5352C11.1865 9.64014 13.5415 7.28516 16.4365 7.28516H40.9365C43.8315 7.28516 46.1865 9.64014 46.1865 12.5352V44.0352C46.1865 46.9302 43.8315 49.2852 40.9365 49.2852H16.4365C13.5415 49.2852 11.1865 46.9302 11.1865 44.0352V12.5352Z" fill="#A7A7A7"/>
<path d="M25.1865 30.0352H39.1865C40.1538 30.0352 40.9365 29.2516 40.9365 28.2852C40.9365 27.3187 40.1538 26.5352 39.1865 26.5352H25.1865C24.2192 26.5352 23.4365 27.3187 23.4365 28.2852C23.4365 29.2516 24.2192 30.0352 25.1865 30.0352Z" fill="#A7A7A7"/>
<path d="M25.1865 21.2852H39.1865C40.1538 21.2852 40.9365 20.5016 40.9365 19.5352C40.9365 18.5687 40.1538 17.7852 39.1865 17.7852H25.1865C24.2192 17.7852 23.4365 18.5687 23.4365 19.5352C23.4365 20.5016 24.2192 21.2852 25.1865 21.2852Z" fill="#A7A7A7"/>
<path d="M25.1865 38.7852H39.1865C40.1538 38.7852 40.9365 38.0016 40.9365 37.0352C40.9365 36.0687 40.1538 35.2852 39.1865 35.2852H25.1865C24.2192 35.2852 23.4365 36.0687 23.4365 37.0352C23.4365 38.0016 24.2192 38.7852 25.1865 38.7852Z" fill="#A7A7A7"/>
<path d="M18.2205 21.2852C19.1877 21.2852 19.9705 20.5016 19.9705 19.5352C19.9705 18.5687 19.1877 17.7852 18.2205 17.7852H18.2034C17.2378 17.7852 16.4619 18.5687 16.4619 19.5352C16.4619 20.5016 17.2549 21.2852 18.2205 21.2852Z" fill="#A7A7A7"/>
<path d="M18.2205 30.0352C19.1877 30.0352 19.9705 29.2516 19.9705 28.2852C19.9705 27.3187 19.1877 26.5352 18.2205 26.5352H18.2034C17.2378 26.5352 16.4619 27.3187 16.4619 28.2852C16.4619 29.2516 17.2549 30.0352 18.2205 30.0352Z" fill="#A7A7A7"/>
<path d="M18.2205 38.7852C19.1877 38.7852 19.9705 38.0016 19.9705 37.0352C19.9705 36.0687 19.1877 35.2852 18.2205 35.2852H18.2034C17.2378 35.2852 16.4619 36.0687 16.4619 37.0352C16.4619 38.0016 17.2549 38.7852 18.2205 38.7852Z" fill="#A7A7A7"/>
<path d="M66.3839 48.8365C66.7581 48.4623 66.7581 47.8555 66.3839 47.4813L64.6898 45.7871L66.3839 44.093C66.7581 43.7188 66.7581 43.112 66.3839 42.7377C66.0097 42.3635 65.4028 42.3635 65.0286 42.7377L63.3345 44.4318L61.6404 42.7377C61.2661 42.3635 60.6593 42.3635 60.2851 42.7377C59.9108 43.112 59.9108 43.7188 60.2851 44.093L61.9792 45.7871L60.2851 47.4813C59.9108 47.8555 59.9108 48.4623 60.2851 48.8365C60.6593 49.2108 61.2661 49.2108 61.6404 48.8365L63.3345 47.1424L65.0286 48.8365C65.4028 49.2108 66.0097 49.2108 66.3839 48.8365Z" fill="#A7A7A7"/>
<path fill-rule="evenodd" clip-rule="evenodd" d="M56.963 38.9356C60.6064 35.2923 66.5134 35.2923 70.1568 38.9356C73.5714 42.3502 73.7858 47.7531 70.8001 51.4174C67.1413 55.9077 60.3776 55.544 56.963 52.1295C53.3196 48.4861 53.3196 42.579 56.963 38.9356ZM68.8015 40.2909C65.9066 37.3961 61.2132 37.3961 58.3183 40.2909C55.4234 43.1858 55.4234 47.8793 58.3183 50.7742C61.2132 53.669 65.9066 53.669 68.8015 50.7742C71.6964 47.8793 71.6964 43.1858 68.8015 40.2909Z" fill="#A7A7A7"/>
</svg>
