<svg width="76" height="58" viewBox="0 0 76 58" fill="none" xmlns="http://www.w3.org/2000/svg">
<path d="M41.0405 52.8203C45.865 52.8203 49.7905 48.8948 49.7905 44.0703V12.5703C49.7905 7.74585 45.865 3.82031 41.0405 3.82031H16.5405C11.7161 3.82031 7.79053 7.74585 7.79053 12.5703V44.0703C7.79053 48.8948 11.7161 52.8203 16.5405 52.8203H41.0405ZM11.2905 12.5703C11.2905 9.67529 13.6455 7.32031 16.5405 7.32031H41.0405C43.9355 7.32031 46.2905 9.67529 46.2905 12.5703V44.0703C46.2905 46.9653 43.9355 49.3203 41.0405 49.3203H16.5405C13.6455 49.3203 11.2905 46.9653 11.2905 44.0703V12.5703Z" fill="#222324" fill-opacity="0.4"/>
<g clip-path="url(#clip0_13379_43109)">
<path d="M26.5727 35.3757L23.6269 38.3216C22.4056 39.5429 20.4278 39.5429 19.2075 38.3218C17.987 37.1013 17.987 35.1233 19.2073 33.9031L25.1 28.0103C26.3203 26.79 28.2983 26.79 29.5186 28.0103C29.9253 28.4171 30.5849 28.4171 30.9917 28.0103C31.3985 27.6035 31.3985 26.9439 30.9917 26.5371C28.9578 24.5032 25.6608 24.5032 23.6269 26.5371L17.7342 32.4299C15.7003 34.4638 15.7003 37.7608 17.7342 39.7947C19.7678 41.8297 23.0651 41.8297 25.1001 39.7947L28.0459 36.8488C28.4527 36.442 28.4527 35.7825 28.0459 35.3757C27.6392 34.9689 26.9795 34.9689 26.5727 35.3757Z" fill="#222324" fill-opacity="0.4"/>
<path d="M39.6827 17.8457C37.6488 15.8118 34.3507 15.8118 32.3168 17.8457L28.7824 21.3801C28.3756 21.7869 28.3756 22.4465 28.7824 22.8533C29.1892 23.2601 29.8488 23.2601 30.2556 22.8533L33.79 19.3189C35.0102 18.0986 36.9892 18.0986 38.2096 19.3189C39.4298 20.5392 39.4298 22.5172 38.2096 23.7374L31.7283 30.2188C30.508 31.4391 28.53 31.4391 27.3097 30.2188C26.9029 29.812 26.2434 29.812 25.8366 30.2188C25.4298 30.6255 25.4298 31.2851 25.8366 31.6919C27.8705 33.7258 31.1675 33.7258 33.2014 31.6919L39.6827 25.2106C41.7166 23.1767 41.7166 19.8796 39.6827 17.8457Z" fill="#222324" fill-opacity="0.4"/>
</g>
<path d="M67.2796 49.8717C67.6539 49.4975 67.6539 48.8906 67.2796 48.5164L65.5855 46.8223L67.2796 45.1281C67.6539 44.7539 67.6539 44.1471 67.2796 43.7729C66.9054 43.3986 66.2986 43.3986 65.9244 43.7729L64.2302 45.467L62.5361 43.7729C62.1619 43.3986 61.5551 43.3986 61.1808 43.7729C60.8066 44.1471 60.8066 44.7539 61.1808 45.1281L62.875 46.8223L61.1808 48.5164C60.8066 48.8906 60.8066 49.4975 61.1808 49.8717C61.5551 50.2459 62.1619 50.2459 62.5361 49.8717L64.2302 48.1776L65.9244 49.8717C66.2986 50.2459 66.9054 50.2459 67.2796 49.8717Z" fill="#222324" fill-opacity="0.4"/>
<path fill-rule="evenodd" clip-rule="evenodd" d="M57.8585 39.9708C61.5019 36.3274 67.4089 36.3274 71.0523 39.9708C74.4669 43.3854 74.6813 48.7883 71.6956 52.4526C68.0368 56.9428 61.2731 56.5792 57.8585 53.1646C54.2151 49.5212 54.2151 43.6142 57.8585 39.9708ZM69.697 41.3261C66.8021 38.4312 62.1087 38.4312 59.2138 41.3261C56.3189 44.221 56.3189 48.9144 59.2138 51.8094C62.1087 54.7042 66.8021 54.7042 69.697 51.8094C72.5919 48.9144 72.5919 44.221 69.697 41.3261Z" fill="#222324" fill-opacity="0.4"/>
<defs>
<clipPath id="clip0_13379_43109">
<rect width="25" height="25" fill="white" transform="translate(16.2085 16.3203)"/>
</clipPath>
</defs>
</svg>
