<svg width="70" height="70" viewBox="0 0 70 70" fill="none" xmlns="http://www.w3.org/2000/svg">
<g clip-path="url(#clip0_15318_41837)">
<path d="M35 70C54.33 70 70 54.33 70 35C70 15.67 54.33 0 35 0C15.67 0 0 15.67 0 35C0 54.33 15.67 70 35 70Z" fill="url(#paint0_linear_15318_41837)"/>
<path d="M48.3711 21.6199C47.9945 21.994 47.7694 22.4941 47.7391 23.0241C47.7088 23.554 47.8755 24.0765 48.2071 24.491C50.6431 27.5376 51.9433 31.3368 51.8848 35.2371C51.759 44.534 44.0372 52.0317 34.7348 51.8881C31.5809 51.8413 28.5032 50.9115 25.8508 49.2043C23.1984 47.4972 21.0775 45.0809 19.7287 42.2296C18.3798 39.3782 17.8569 36.206 18.2194 33.0726C18.5819 29.9392 19.8151 26.9701 21.7793 24.502C22.1134 24.0875 22.2827 23.5644 22.255 23.0329C22.2272 22.5013 22.0043 21.9987 21.629 21.6213C21.4149 21.4066 21.1578 21.2394 20.8746 21.1309C20.5915 21.0224 20.2886 20.9749 19.9858 20.9915C19.683 21.0082 19.3871 21.0886 19.1175 21.2275C18.848 21.3664 18.6108 21.5607 18.4215 21.7977C15.4253 25.5492 13.7981 30.2104 13.8086 35.0115C13.8086 46.6873 23.3639 56.2112 35.0397 56.1893C39.0224 56.182 42.9224 55.0525 46.2926 52.9304C49.6628 50.8082 52.3668 47.7793 54.0945 44.1908C55.8222 40.6024 56.5038 36.5997 56.0609 32.6417C55.6181 28.6837 54.0689 24.9306 51.5909 21.8127C51.4022 21.5736 51.165 21.3771 50.895 21.2361C50.625 21.0951 50.3283 21.0128 50.0242 20.9946C49.7202 20.9764 49.4157 21.0227 49.1308 21.1305C48.8459 21.2382 48.587 21.4051 48.3711 21.6199Z" fill="white"/>
<path d="M37.0891 15.9605C37.0891 14.7721 36.1256 13.8086 34.9371 13.8086C33.7486 13.8086 32.7852 14.7721 32.7852 15.9605V31.5916C32.7852 32.7801 33.7486 33.7436 34.9371 33.7436C36.1256 33.7436 37.0891 32.7801 37.0891 31.5916V15.9605Z" fill="white"/>
</g>
<defs>
<linearGradient id="paint0_linear_15318_41837" x1="10.2512" y1="10.2512" x2="59.7488" y2="59.7488" gradientUnits="userSpaceOnUse">
<stop stop-color="#70F64A"/>
<stop offset="1" stop-color="#19B931"/>
</linearGradient>
<clipPath id="clip0_15318_41837">
<rect width="70" height="70" fill="white"/>
</clipPath>
</defs>
</svg>
