<svg width="34" height="34" viewBox="0 0 34 34" fill="none" xmlns="http://www.w3.org/2000/svg">
<g id="fi_8191581">
<g id="image-upload">
<path id="Vector" opacity="0.4" d="M30.8125 12.5832V24.0837C30.8963 24.8016 30.8165 25.5291 30.5791 26.2118C30.3418 26.8944 29.953 27.5145 29.4419 28.0256C28.9309 28.5366 28.3108 28.9254 27.6281 29.1628C26.9454 29.4002 26.2179 29.4799 25.5 29.3962H8.50004C7.78216 29.4799 7.05463 29.4002 6.37197 29.1628C5.68931 28.9254 5.06922 28.5366 4.55816 28.0256C4.0471 27.5145 3.65832 26.8944 3.42095 26.2118C3.18359 25.5291 3.10379 24.8016 3.18754 24.0837V9.91703C3.10379 9.19915 3.18359 8.47162 3.42095 7.78896C3.65832 7.1063 4.0471 6.48621 4.55816 5.97515C5.06922 5.46409 5.68931 5.07531 6.37197 4.83795C7.05463 4.60058 7.78216 4.52078 8.50004 4.60453H20.9667C21.0294 4.60617 21.0909 4.62166 21.1469 4.6499C21.2029 4.67813 21.252 4.7184 21.2906 4.76783C21.3292 4.81725 21.3563 4.8746 21.3701 4.93577C21.384 4.99694 21.3841 5.0604 21.3705 5.12161C21.0362 6.77689 21.3724 8.49716 22.3052 9.90484C23.2379 11.3125 24.6911 12.2926 26.3458 12.6299C27.6554 12.8918 29.0142 12.7357 30.2303 12.1837C30.2951 12.1579 30.3653 12.1484 30.4347 12.1561C30.5041 12.1639 30.5705 12.1886 30.628 12.2281C30.6856 12.2676 30.7325 12.3206 30.7647 12.3826C30.7969 12.4445 30.8133 12.5134 30.8125 12.5832Z" fill="#212B36" fill-opacity="0.3"/>
<path id="Vector_2" d="M28.5628 20.0633L22.2558 13.7563C21.9887 13.4902 21.627 13.3408 21.25 13.3408C20.873 13.3408 20.5113 13.4902 20.2442 13.7563L13.2458 20.7547C13.1134 20.8845 12.9354 20.9571 12.75 20.9571C12.5646 20.9571 12.3866 20.8845 12.2542 20.7547L10.9225 19.423C10.6554 19.1569 10.2937 19.0075 9.91667 19.0075C9.53962 19.0075 9.17795 19.1569 8.91083 19.423L5.43717 22.8967C5.35744 22.9763 5.3126 23.0843 5.3125 23.197V24.0838C5.3125 26.3222 6.26167 27.2713 8.5 27.2713H25.5C27.7383 27.2713 28.6875 26.3222 28.6875 24.0838V20.3637C28.6874 20.251 28.6426 20.143 28.5628 20.0633Z" fill="#212B36" fill-opacity="0.3"/>
<path id="Vector_3" d="M11.3334 14.5212C11.1008 14.522 10.8704 14.477 10.6552 14.3888C10.4401 14.3006 10.2444 14.1708 10.0793 14.007C9.74605 13.6761 9.55785 13.2264 9.55616 12.7567C9.55447 12.287 9.73942 11.836 10.0703 11.5027C10.4012 11.1694 10.851 10.9812 11.3206 10.9795H11.3334C11.803 10.9795 12.2534 11.1661 12.5855 11.4982C12.9176 11.8303 13.1042 12.2807 13.1042 12.7503C13.1042 13.22 12.9176 13.6704 12.5855 14.0025C12.2534 14.3346 11.803 14.5212 11.3334 14.5212Z" fill="#212B36" fill-opacity="0.3"/>
<path id="Vector_4" d="M30.5009 5.6246L28.3759 3.4996C28.1765 3.30097 27.9066 3.18945 27.6251 3.18945C27.3437 3.18945 27.0737 3.30097 26.8743 3.4996L24.7493 5.6246C24.5616 5.82601 24.4594 6.09241 24.4643 6.36767C24.4691 6.64293 24.5806 6.90556 24.7753 7.10023C24.97 7.2949 25.2326 7.40641 25.5079 7.41126C25.7831 7.41612 26.0495 7.31395 26.2509 7.12627L26.5626 6.81602V9.9171C26.5626 10.1989 26.6745 10.4691 26.8738 10.6684C27.0731 10.8677 27.3433 10.9796 27.6251 10.9796C27.9069 10.9796 28.1772 10.8677 28.3764 10.6684C28.5757 10.4691 28.6876 10.1989 28.6876 9.9171V6.81602L28.9993 7.12627C29.2007 7.31395 29.4671 7.41612 29.7423 7.41126C30.0176 7.40641 30.2802 7.2949 30.4749 7.10023C30.6696 6.90556 30.7811 6.64293 30.7859 6.36767C30.7908 6.09241 30.6886 5.82601 30.5009 5.6246Z" fill="#212B36" fill-opacity="0.3"/>
</g>
</g>
</svg>
