<svg width="36" height="36" viewBox="0 0 36 36" fill="none" xmlns="http://www.w3.org/2000/svg">
<path fill-rule="evenodd" clip-rule="evenodd" d="M10.4173 0.0770971C9.26243 -0.269385 8.1001 0.595425 8.1001 1.80117V35.6916H14.4001V29.3916C14.4001 28.3974 15.206 27.5916 16.2001 27.5916H19.8001C20.7942 27.5916 21.6001 28.3974 21.6001 29.3916V35.6916H27.9001V6.66117C27.9001 5.86627 27.3786 5.1655 26.6172 4.9371L10.4173 0.0770971ZM14.4001 10.4916C13.903 10.4916 13.5001 10.8945 13.5001 11.3916V13.1916C13.5001 13.6886 13.903 14.0916 14.4001 14.0916H16.2001C16.6971 14.0916 17.1001 13.6886 17.1001 13.1916V11.3916C17.1001 10.8945 16.6971 10.4916 16.2001 10.4916H14.4001ZM13.5001 16.7916C13.5001 16.2946 13.903 15.8916 14.4001 15.8916H16.2001C16.6971 15.8916 17.1001 16.2946 17.1001 16.7916V18.5916C17.1001 19.0885 16.6971 19.4916 16.2001 19.4916H14.4001C13.903 19.4916 13.5001 19.0885 13.5001 18.5916V16.7916ZM14.4001 21.2916C13.903 21.2916 13.5001 21.6946 13.5001 22.1916V23.9916C13.5001 24.4885 13.903 24.8916 14.4001 24.8916H16.2001C16.6971 24.8916 17.1001 24.4885 17.1001 23.9916V22.1916C17.1001 21.6946 16.6971 21.2916 16.2001 21.2916H14.4001ZM18.9001 11.3916C18.9001 10.8945 19.3031 10.4916 19.8001 10.4916H21.6001C22.0971 10.4916 22.5001 10.8945 22.5001 11.3916V13.1916C22.5001 13.6886 22.0971 14.0916 21.6001 14.0916H19.8001C19.3031 14.0916 18.9001 13.6886 18.9001 13.1916V11.3916ZM19.8001 15.8916C19.3031 15.8916 18.9001 16.2946 18.9001 16.7916V18.5916C18.9001 19.0885 19.3031 19.4916 19.8001 19.4916H21.6001C22.0971 19.4916 22.5001 19.0885 22.5001 18.5916V16.7916C22.5001 16.2946 22.0971 15.8916 21.6001 15.8916H19.8001ZM18.9001 22.1916C18.9001 21.6946 19.3031 21.2916 19.8001 21.2916H21.6001C22.0971 21.2916 22.5001 21.6946 22.5001 22.1916V23.9916C22.5001 24.4885 22.0971 24.8916 21.6001 24.8916H19.8001C19.3031 24.8916 18.9001 24.4885 18.9001 23.9916V22.1916Z" fill="currentColor"/>
<path d="M6.3 35.6916V5.09155H3.6C2.6059 5.09155 1.8 5.89745 1.8 6.89155V33.8916H0.9C0.402948 33.8916 0 34.2946 0 34.7916C0 35.2885 0.402948 35.6916 0.9 35.6916H6.3Z" fill="currentColor"/>
<path d="M35.0999 35.6914H29.7V11.8977L33.2929 13.9509C33.8538 14.2714 34.2 14.8678 34.2 15.5138V33.8914H35.0999C35.5969 33.8914 35.9999 34.2945 35.9999 34.7914C35.9999 35.2884 35.5969 35.6914 35.0999 35.6914Z" fill="currentColor"/>
<path d="M19.8 35.6915V29.3915H16.2V35.6915H19.8Z" fill="currentColor"/>
</svg>
