<svg width="36" height="36" viewBox="0 0 36 36" fill="none" xmlns="http://www.w3.org/2000/svg">
<g id="web-page_3249871 2">
<g id="Group">
<path id="Vector" fill-rule="evenodd" clip-rule="evenodd" d="M31.9657 9.41623V32.529C31.9657 33.855 30.8908 34.93 29.5647 34.93H6.40101C5.07496 34.93 4 33.855 4 32.529V9.41623H31.9657ZM15.3138 25.1884C15.3138 24.5296 14.7798 23.9955 14.1209 23.9955H8.55431C7.89552 23.9955 7.36146 24.5296 7.36146 25.1884V30.755C7.36146 31.4138 7.89552 31.9479 8.55431 31.9479H14.1209C14.7798 31.9479 15.3138 31.4138 15.3138 30.755V25.1884ZM17.6035 29.4959H27.9416C28.2708 29.4959 28.538 29.2286 28.538 28.8995C28.538 28.5703 28.2708 28.303 27.9416 28.303H17.6035C17.2743 28.303 17.0071 28.5703 17.0071 28.8995C17.0071 29.2286 17.2743 29.4959 17.6035 29.4959ZM17.6035 25.7848H23.8991C24.2283 25.7848 24.4956 25.5175 24.4956 25.1884C24.4956 24.8592 24.2283 24.592 23.8991 24.592H17.6035C17.2743 24.592 17.0071 24.8592 17.0071 25.1884C17.0071 25.5175 17.2743 25.7848 17.6035 25.7848ZM15.3138 14.1545C15.3138 13.4957 14.7798 12.9617 14.1209 12.9617H8.55431C7.89552 12.9617 7.36146 13.4957 7.36146 14.1545V19.7211C7.36146 20.3799 7.89552 20.914 8.55431 20.914H14.1209C14.7798 20.914 15.3138 20.3799 15.3138 19.7211V14.1545ZM17.6035 18.462H27.9416C28.2708 18.462 28.538 18.1948 28.538 17.8656C28.538 17.5364 28.2708 17.2692 27.9416 17.2692H17.6035C17.2743 17.2692 17.0071 17.5364 17.0071 17.8656C17.0071 18.1948 17.2743 18.462 17.6035 18.462ZM17.6035 14.7509H23.8991C24.2283 14.7509 24.4956 14.4837 24.4956 14.1545C24.4956 13.8253 24.2283 13.5581 23.8991 13.5581H17.6035C17.2743 13.5581 17.0071 13.8253 17.0071 14.1545C17.0071 14.4837 17.2743 14.7509 17.6035 14.7509ZM4 8.22338V3.40101C4 2.07496 5.07496 1 6.40101 1H29.5647C30.8908 1 31.9657 2.07496 31.9657 3.40101V8.22338H4ZM21.9225 2.75614C20.8069 2.75614 19.9013 3.66185 19.9013 4.77736C19.9013 5.89288 20.8069 6.79858 21.9225 6.79858C23.038 6.79858 23.9437 5.89288 23.9437 4.77736C23.9437 3.66185 23.038 2.75614 21.9225 2.75614ZM27.4925 2.75614C26.377 2.75614 25.4713 3.66185 25.4713 4.77736C25.4713 5.89288 26.377 6.79858 27.4925 6.79858C28.6081 6.79858 29.5138 5.89288 29.5138 4.77736C29.5138 3.66185 28.6081 2.75614 27.4925 2.75614Z" fill="currentColor"/>
</g>
</g>
</svg>
