<svg width="36" height="31" viewBox="0 0 36 31" fill="none" xmlns="http://www.w3.org/2000/svg">
<path fill-rule="evenodd" clip-rule="evenodd" d="M18.4636 0.00800738C15.5686 -0.0901553 12.6437 0.714041 10.1185 2.43027C7.28229 4.35989 5.30024 7.20937 4.38729 10.3948C4.13517 10.3635 3.83327 10.3773 3.47479 10.4805C2.13637 10.8672 1.12972 11.9839 0.677094 12.9673C0.0900359 14.249 -0.157552 15.944 0.103615 17.6939C0.362971 19.4382 1.08672 20.8761 1.99198 21.7688C2.89995 22.6619 3.92515 22.9523 4.94357 22.7343C6.45987 22.4048 7.21168 22.1582 6.9994 20.7199L5.97148 13.7476C6.17879 9.97405 8.09748 6.42176 11.3066 4.2373C15.602 1.31592 21.2336 1.50303 25.3308 4.70553C28.181 6.93055 29.8358 10.2644 30.0268 13.7641L29.3081 18.6414C27.7049 23.1085 23.7303 26.2027 19.1312 26.6419H16.0687C15.2784 26.6419 14.642 27.2899 14.642 28.0936V28.8595C14.642 29.6637 15.2784 30.3117 16.0687 30.3117H19.9301C20.7199 30.3117 21.3536 29.6637 21.3536 28.8595V28.4591C24.8216 27.5972 27.8488 25.4271 29.82 22.4006L31.057 22.7347C32.0637 23.0007 33.1011 22.6619 34.0086 21.7692C34.9139 20.8761 35.6372 19.4387 35.897 17.6943C36.1591 15.9445 35.9042 14.2522 35.324 12.9678C34.7414 11.6834 33.8737 10.8677 32.8721 10.575C32.4525 10.452 31.9971 10.4068 31.6065 10.3948C30.7809 7.51445 29.0813 4.89494 26.6317 2.98238C24.2233 1.1007 21.3586 0.104787 18.4636 0.00800738Z" fill="currentColor"/>
<path fill-rule="evenodd" clip-rule="evenodd" d="M22.9832 12.5521C24.0039 12.5521 24.8313 13.3945 24.8335 14.4365C24.8313 15.4758 24.0039 16.3205 22.9832 16.3205C21.9598 16.3205 21.1301 15.4758 21.1301 14.4365C21.1301 13.395 21.9603 12.5521 22.9832 12.5521ZM17.9998 12.5521C19.0227 12.5521 19.8501 13.3945 19.8501 14.4365C19.8501 15.4758 19.0227 16.3205 17.9998 16.3205C16.9759 16.3205 16.1485 15.4758 16.1485 14.4365C16.1485 13.395 16.9759 12.5521 17.9998 12.5521ZM13.0181 12.5521C14.0388 12.5521 14.8685 13.3945 14.8685 14.4365C14.8685 15.4758 14.0388 16.3205 13.0181 16.3205C11.9952 16.3205 11.1673 15.4758 11.1673 14.4365C11.1673 13.395 11.9952 12.5521 13.0181 12.5521ZM17.9998 4.4585C12.5728 4.4585 8.19946 8.76475 8.19946 14.4365C8.19946 17.1607 9.21109 19.5682 10.8591 21.3346L10.2743 24.0039C10.0815 24.8823 10.6799 25.4731 11.4552 25.0335L14.0153 23.5795C15.2319 24.1173 16.5776 24.4146 17.9998 24.4146C23.4286 24.4146 27.7992 20.1111 27.7992 14.4365C27.7992 8.76475 23.4286 4.4585 17.9998 4.4585Z" fill="currentColor"/>
</svg>
