<svg width="36" height="36" viewBox="0 0 36 36" fill="none" xmlns="http://www.w3.org/2000/svg">
<path d="M36 24.3632C36 19.8958 33.4372 15.9089 29.5988 13.9695C29.4796 22.5351 22.5351 29.4796 13.9695 29.5988C15.9089 33.4372 19.8958 36 24.3632 36C26.4578 36 28.4946 35.4422 30.2843 34.3823L35.9492 35.9492L34.3823 30.2843C35.4422 28.4946 36 26.4578 36 24.3632Z" fill="currentColor"/>
<path d="M27.4924 13.7462C27.4924 6.16641 21.326 0 13.7462 0C6.16641 0 0 6.16641 0 13.7462C0 16.2165 0.657538 18.6217 1.90615 20.7333L0.0505376 27.4416L6.75913 25.5863C8.87072 26.8349 11.2759 27.4924 13.7462 27.4924C21.326 27.4924 27.4924 21.326 27.4924 13.7462ZM11.6368 10.547H9.52743C9.52743 8.2206 11.4198 6.32818 13.7462 6.32818C16.0726 6.32818 17.965 8.2206 17.965 10.547C17.965 11.7277 17.4651 12.8626 16.5931 13.6603L14.8009 15.3005V16.9455H12.6915V14.3716L15.169 12.104C15.6117 11.6989 15.8556 11.146 15.8556 10.547C15.8556 9.38378 14.9094 8.43758 13.7462 8.43758C12.583 8.43758 11.6368 9.38378 11.6368 10.547ZM12.6915 19.0549H14.8009V21.1643H12.6915V19.0549Z" fill="currentColor"/>
</svg>
