<svg width="61" height="60" viewBox="0 0 61 60" fill="none" xmlns="http://www.w3.org/2000/svg">
<path fill-rule="evenodd" clip-rule="evenodd" d="M14.7561 55.5267C14.7615 55.4844 14.7647 55.4418 14.7654 55.3991V51.3118C14.7654 49.2455 15.1724 47.1994 15.9632 45.2904C16.7539 43.3814 17.9129 41.6468 19.374 40.1857C20.8351 38.7246 22.5697 37.5656 24.4787 36.7749C26.3877 35.9841 28.4338 35.5771 30.5001 35.5771C32.5664 35.5771 34.6125 35.9841 36.5215 36.7749C38.4305 37.5656 40.1651 38.7246 41.6262 40.1857C43.0873 41.6468 44.2463 43.3814 45.037 45.2904C45.8278 47.1994 46.2348 49.2455 46.2348 51.3118V55.3784C46.2351 55.4273 46.239 55.476 46.2466 55.5243C41.5159 58.4497 36.0638 59.9996 30.5017 60C24.9395 60.0004 19.4872 58.4515 14.7561 55.5267ZM21.8791 24.1248C21.8791 22.4199 22.3847 20.7533 23.3319 19.3357C24.2791 17.9182 25.6254 16.8133 27.2005 16.1609C28.7756 15.5084 30.5088 15.3377 32.181 15.6703C33.8531 16.0029 35.3891 16.8239 36.5946 18.0295C37.8002 19.235 38.6212 20.771 38.9538 22.4431C39.2864 24.1153 39.1157 25.8485 38.4633 27.4236C37.8108 28.9987 36.7059 30.345 35.2884 31.2922C33.8708 32.2394 32.2042 32.745 30.4993 32.745C28.2138 32.7425 26.0227 31.8335 24.4067 30.2174C22.7906 28.6014 21.8816 26.4103 21.8791 24.1248ZM30.4993 0C13.9581 0 0.5 13.4579 0.5 29.9999C0.500487 34.7076 1.60981 39.3491 3.7381 43.5482C5.8664 47.7474 8.95383 51.3863 12.7503 54.17V51.3118C12.7556 47.2898 14.1243 43.3883 16.6329 40.2445C19.1416 37.1007 22.642 34.9003 26.5625 34.0026C24.2652 33.0871 22.3588 31.3996 21.1711 29.2305C19.9833 27.0614 19.5886 24.5462 20.0547 22.1175C20.5209 19.6888 21.8187 17.4985 23.7251 15.9232C25.6315 14.3479 28.0272 13.4862 30.5002 13.4862C32.9732 13.4862 35.3689 14.3479 37.2753 15.9232C39.1816 17.4985 40.4795 19.6888 40.9456 22.1175C41.4118 24.5462 41.017 27.0614 39.8293 29.2305C38.6416 31.3996 36.7351 33.0871 34.4378 34.0026C38.3585 34.9002 41.8591 37.1006 44.3678 40.2444C46.8766 43.3882 48.2454 47.2897 48.2507 51.3118V54.17C52.0468 51.386 55.134 47.747 57.2622 43.5479C59.3903 39.3488 60.4997 34.7075 60.5005 29.9999C60.5005 13.4579 47.0421 0 30.4993 0Z" fill="#1455AC"/>
</svg>
