<svg width="16" height="13" viewBox="0 0 16 13" fill="none" xmlns="http://www.w3.org/2000/svg">
<path d="M6.96273 0.646657L1.14055 10.7302C1.03538 10.9123 0.98 11.1189 0.97998 11.3292C0.979961 11.5395 1.0353 11.7461 1.14044 11.9282C1.24557 12.1103 1.3968 12.2615 1.57891 12.3667C1.76102 12.4718 1.96761 12.5271 2.17789 12.5271H13.8213C14.0316 12.5271 14.2382 12.4718 14.4203 12.3667C14.6024 12.2615 14.7536 12.1103 14.8588 11.9282C14.9639 11.7461 15.0193 11.5395 15.0192 11.3292C15.0192 11.1189 14.9638 10.9123 14.8587 10.7302L9.03711 0.646657C8.93199 0.464596 8.7808 0.313412 8.59874 0.2083C8.41668 0.103188 8.21015 0.0478516 7.99992 0.0478516C7.78969 0.0478516 7.58317 0.103188 7.40111 0.2083C7.21904 0.313412 7.06785 0.464596 6.96273 0.646657Z" fill="#FF5555"/>
<path d="M8.07598 3.75684H7.9241C7.55019 3.75684 7.24707 4.05995 7.24707 4.43387V7.66996C7.24707 8.04387 7.55019 8.34699 7.9241 8.34699H8.07598C8.44989 8.34699 8.75301 8.04387 8.75301 7.66996V4.43387C8.75301 4.05995 8.44989 3.75684 8.07598 3.75684Z" fill="white"/>
<path d="M8.00004 10.9137C8.41589 10.9137 8.75301 10.5765 8.75301 10.1607C8.75301 9.74483 8.41589 9.40771 8.00004 9.40771C7.58419 9.40771 7.24707 9.74483 7.24707 10.1607C7.24707 10.5765 7.58419 10.9137 8.00004 10.9137Z" fill="white"/>
</svg>
