<svg width="78" height="86" viewBox="0 0 78 86" fill="none" xmlns="http://www.w3.org/2000/svg">
<path d="M53.1541 85.9996H6.13176L2.71191 85.4286C1.78422 85.4286 1.03223 84.6766 1.03223 83.7489L2.0098 21.7886C2.0098 20.8609 2.7618 20.1089 3.68949 20.1089L5.97051 19.2695H27.725L32.7179 36.9308L54.8338 50.4143V84.32C54.8338 85.2477 54.0818 85.9996 53.1541 85.9996Z" fill="#E9E9E9"/>
<path d="M4.7938 84.2692V20.9999C4.7938 20.0442 5.56847 19.2695 6.52421 19.2695H1.852C0.896254 19.2695 0.121582 20.0442 0.121582 20.9999V84.2692C0.121582 85.225 0.896254 85.9996 1.852 85.9996H6.52405C5.56847 85.9996 4.7938 85.225 4.7938 84.2692Z" fill="#F5F5F5"/>
<path d="M53.1033 19.2695H27.7249C27.5539 20.5038 27.4634 21.7634 27.4634 23.044C27.4634 38.1359 39.7416 50.4143 54.8337 50.4143V20.9999C54.8337 20.0444 54.059 19.2695 53.1033 19.2695Z" fill="#F5F5F5"/>
<path d="M18.2761 36.9309C18.1837 42.338 10.1409 42.3371 10.0493 36.9307C10.1415 31.524 18.1844 31.5248 18.2761 36.9309Z" fill="white"/>
<path d="M27.4776 38.2292H23.7191C23.0024 38.2292 22.4214 37.6482 22.4214 36.9315C22.4214 36.2148 23.0024 35.6338 23.7191 35.6338H27.4776C28.1943 35.6338 28.7753 36.2148 28.7753 36.9315C28.7753 37.6482 28.1943 38.2292 27.4776 38.2292Z" fill="white"/>
<path d="M18.2761 53.2835C18.1837 58.6906 10.1409 58.6898 10.0493 53.2834C10.1415 47.8765 18.1844 47.8773 18.2761 53.2835Z" fill="white"/>
<path d="M44.906 54.5818H23.7191C23.0024 54.5818 22.4214 54.0008 22.4214 53.2841C22.4214 52.5673 23.0024 51.9863 23.7191 51.9863H44.906C45.6227 51.9863 46.2037 52.5673 46.2037 53.2841C46.2037 54.0008 45.6227 54.5818 44.906 54.5818Z" fill="white"/>
<path d="M14.1627 73.7502C16.4345 73.7502 18.2761 71.9086 18.2761 69.6368C18.2761 67.3651 16.4345 65.5234 14.1627 65.5234C11.8909 65.5234 10.0493 67.3651 10.0493 69.6368C10.0493 71.9086 11.8909 73.7502 14.1627 73.7502Z" fill="white"/>
<path d="M44.906 70.9343H23.7191C23.0024 70.9343 22.4214 70.3533 22.4214 69.6366C22.4214 68.9199 23.0024 68.3389 23.7191 68.3389H44.906C45.6227 68.3389 46.2037 68.9199 46.2037 69.6366C46.2037 70.3533 45.6227 70.9343 44.906 70.9343Z" fill="white"/>
<path d="M77.8782 23.0443C77.8782 35.7713 67.5608 46.0886 54.8339 46.0886C42.1069 46.0886 35.2173 35.7715 35.2173 23.0443C35.2173 10.3171 42.1069 0 54.8339 0C67.5608 0 77.8782 10.3173 77.8782 23.0443Z" fill="#E0E0E0"/>
<path d="M35.9424 23.0443C35.9424 11.0174 45.1565 1.14404 56.9103 0.0940625C56.2261 0.0330898 55.5339 0 54.8339 0C42.1069 0 31.7896 10.3173 31.7896 23.0443C31.7896 35.7713 42.1069 46.0886 54.8339 46.0886C55.5339 46.0886 56.2261 46.0557 56.9103 45.9946C45.1565 44.9446 35.9424 35.0714 35.9424 23.0443Z" fill="#E0E0E0"/>
<path d="M57.121 13.4931L55.1737 15.4431C54.9861 15.631 54.6816 15.631 54.494 15.4431L52.5467 13.4931C51.7836 12.7288 50.8427 12.1831 49.8211 11.8959C49.2763 11.7427 48.7333 12.1546 48.1575 12.1546C42.9402 12.1546 41.1089 17.7006 44.3498 21.7893L54.0809 33.9636C54.4656 34.4489 55.2021 34.4489 55.5868 33.9636L56.5366 34.2483L66.4231 21.7755C69.6641 17.6868 66.7522 11.6631 61.5347 11.6631C59.879 11.6631 58.2911 12.3215 57.121 13.4931Z" fill="white"/>
<path d="M46.6499 21.7755C43.7855 18.162 45.7289 13.0398 49.8204 11.8976C49.2757 11.7444 48.7087 11.6631 48.1327 11.6631C42.9154 11.6631 40.0035 17.687 43.2443 21.7755L54.0806 35.4466C54.4653 35.9319 55.2018 35.9319 55.5865 35.4466L56.5363 34.2483L46.6499 21.7755Z" fill="white"/>
</svg>
