<svg width="34" height="35" viewBox="0 0 34 35" fill="none" xmlns="http://www.w3.org/2000/svg">
<g id="fi_8191581">
<g id="image-upload">
<path id="Vector" d="M30.8125 13.2922V24.7927C30.8963 25.5106 30.8165 26.2381 30.5791 26.9207C30.3418 27.6034 29.953 28.2235 29.4419 28.7346C28.9309 29.2456 28.3108 29.6344 27.6281 29.8718C26.9454 30.1091 26.2179 30.1889 25.5 30.1052H8.50004C7.78216 30.1889 7.05463 30.1091 6.37197 29.8718C5.68931 29.6344 5.06922 29.2456 4.55816 28.7346C4.0471 28.2235 3.65832 27.6034 3.42095 26.9207C3.18359 26.2381 3.10379 25.5106 3.18754 24.7927V10.626C3.10379 9.90813 3.18359 9.18061 3.42095 8.49795C3.65832 7.81529 4.0471 7.1952 4.55816 6.68414C5.06922 6.17308 5.68931 5.7843 6.37197 5.54693C7.05463 5.30956 7.78216 5.22977 8.50004 5.31352H20.9667C21.0294 5.31516 21.0909 5.33065 21.1469 5.35888C21.2029 5.38711 21.252 5.42739 21.2906 5.47681C21.3292 5.52624 21.3563 5.58359 21.3701 5.64475C21.384 5.70592 21.3841 5.76939 21.3705 5.8306C21.0362 7.48588 21.3724 9.20615 22.3052 10.6138C23.2379 12.0215 24.6911 13.0016 26.3458 13.3389C27.6554 13.6007 29.0142 13.4447 30.2303 12.8927C30.2951 12.8669 30.3653 12.8574 30.4347 12.8651C30.5041 12.8729 30.5705 12.8976 30.628 12.9371C30.6856 12.9766 30.7325 13.0296 30.7647 13.0915C30.7969 13.1535 30.8133 13.2224 30.8125 13.2922Z" fill="#A6A6A6" fill-opacity="0.35"/>
<path id="Vector_2" d="M28.5628 20.7694L22.2558 14.4624C21.9887 14.1963 21.627 14.0469 21.25 14.0469C20.873 14.0469 20.5113 14.1963 20.2442 14.4624L13.2458 21.4607C13.1134 21.5905 12.9354 21.6632 12.75 21.6632C12.5646 21.6632 12.3866 21.5905 12.2542 21.4607L10.9225 20.1291C10.6554 19.863 10.2937 19.7135 9.91667 19.7135C9.53962 19.7135 9.17795 19.863 8.91083 20.1291L5.43717 23.6027C5.35744 23.6823 5.3126 23.7904 5.3125 23.9031V24.7899C5.3125 27.0282 6.26167 27.9774 8.5 27.9774H25.5C27.7383 27.9774 28.6875 27.0282 28.6875 24.7899V21.0697C28.6874 20.957 28.6426 20.849 28.5628 20.7694Z" fill="#999999" fill-opacity="0.7"/>
<path id="Vector_3" d="M11.3339 15.2292C11.1013 15.23 10.8709 15.185 10.6557 15.0968C10.4405 15.0086 10.2449 14.8789 10.0798 14.715C9.74653 14.3841 9.55834 13.9344 9.55665 13.4647C9.55496 12.9951 9.73991 12.544 10.0708 12.2107C10.4017 11.8774 10.8515 11.6892 11.3211 11.6875H11.3339C11.8035 11.6875 12.2539 11.8741 12.586 12.2062C12.9181 12.5383 13.1047 12.9887 13.1047 13.4583C13.1047 13.928 12.9181 14.3784 12.586 14.7105C12.2539 15.0426 11.8035 15.2292 11.3339 15.2292Z" fill="#999999" fill-opacity="0.7"/>
<path id="Vector_4" d="M30.5009 6.33358L28.3759 4.20858C28.1765 4.00996 27.9066 3.89844 27.6251 3.89844C27.3437 3.89844 27.0737 4.00996 26.8743 4.20858L24.7493 6.33358C24.5616 6.535 24.4594 6.8014 24.4643 7.07666C24.4691 7.35192 24.5806 7.61455 24.7753 7.80922C24.97 8.00388 25.2326 8.11539 25.5079 8.12025C25.7831 8.12511 26.0495 8.02293 26.2509 7.83525L26.5626 7.525V10.6261C26.5626 10.9079 26.6745 11.1781 26.8738 11.3774C27.0731 11.5766 27.3433 11.6886 27.6251 11.6886C27.9069 11.6886 28.1772 11.5766 28.3764 11.3774C28.5757 11.1781 28.6876 10.9079 28.6876 10.6261V7.525L28.9993 7.83525C29.2007 8.02293 29.4671 8.12511 29.7423 8.12025C30.0176 8.11539 30.2802 8.00388 30.4749 7.80922C30.6696 7.61455 30.7811 7.35192 30.7859 7.07666C30.7908 6.8014 30.6886 6.535 30.5009 6.33358Z" fill="#999999" fill-opacity="0.7"/>
</g>
</g>
</svg>
