<svg width="23" height="22" viewBox="0 0 23 22" fill="none" xmlns="http://www.w3.org/2000/svg">
<g clip-path="url(#clip0_13110_9395)">
<path d="M17.5323 1.96189L11.7893 0.0469707C11.6013 -0.0156569 11.398 -0.0156569 11.21 0.0469707L5.46618 1.96189C4.55326 2.26535 3.75918 2.84876 3.19673 3.62925C2.63428 4.40973 2.33206 5.34761 2.33301 6.30964V11.0002C2.33301 17.933 10.7663 21.7619 11.1275 21.9214C11.2447 21.9734 11.3715 22.0003 11.4997 22.0003C11.6279 22.0003 11.7547 21.9734 11.8718 21.9214C12.233 21.7619 20.6663 17.933 20.6663 11.0002V6.30964C20.6672 5.34749 20.3649 4.40954 19.8023 3.62904C19.2396 2.84854 18.4453 2.2652 17.5323 1.96189Z" fill="#FF4040"/>
<path d="M11.5 18C10.9477 18 10.5 17.5523 10.5 17V10C10.5 9.44772 10.9477 9 11.5 9C12.0523 9 12.5 9.44772 12.5 10V17C12.5 17.5523 12.0523 18 11.5 18Z" fill="white" fill-opacity="0.9"/>
<path d="M10.5255 6.36365C10.7966 6.63163 11.1214 6.76562 11.5 6.76562C11.8786 6.76562 12.2014 6.63163 12.4685 6.36365C12.7395 6.09142 12.875 5.76601 12.875 5.38743C12.875 5.01311 12.7395 4.69196 12.4685 4.42398C12.2014 4.15174 11.8786 4.01562 11.5 4.01562C11.1214 4.01562 10.7966 4.15174 10.5255 4.42398C10.2585 4.69196 10.125 5.01311 10.125 5.38743C10.125 5.76601 10.2585 6.09142 10.5255 6.36365Z" fill="white" fill-opacity="0.9"/>
</g>
<defs>
<clipPath id="clip0_13110_9395">
<rect width="22" height="22" fill="white" transform="translate(0.5)"/>
</clipPath>
</defs>
</svg>
