<svg width="70" height="70" viewBox="0 0 70 70" fill="none" xmlns="http://www.w3.org/2000/svg">
<path d="M55.1219 4.22534L65.6853 70H68.8543C69.4377 70 69.9107 69.527 69.9107 68.9437V5.28168C69.9107 4.6983 69.4377 4.22534 68.8543 4.22534H55.1219Z" fill="#FF3E3A"/>
<path d="M21.0375 57.324V68.9437C21.0375 69.5271 21.5104 70 22.0938 70H65.6854V57.324H21.0375Z" fill="#FF6053"/>
<path d="M53.0093 42.2534L8.36145 52.8168V57.3238C8.36145 59.6575 10.2531 61.5492 12.5868 61.5492H57.2347L53.0093 42.2534Z" fill="#ACD5DF"/>
<path d="M48.7839 42.2534V48.5914C51.1176 48.5914 53.0093 50.4831 53.0093 52.8168V57.3238C53.0093 59.6575 54.901 61.5492 57.2346 61.5492H61.46V42.2534H48.7839Z" fill="#9ABBD0"/>
<path d="M61.46 0L59.3474 2.11268V60.9827C59.9906 61.3549 60.7404 61.5635 61.5406 61.5486C63.8579 61.5052 65.6854 59.5497 65.6854 57.232V1.05634C65.6854 0.472958 65.2124 0 64.629 0L61.46 0Z" fill="#C5F3FF"/>
<path d="M16.8121 1.05634V50.7042H48.2865C49.452 49.4024 51.1469 48.5846 53.0334 48.5916C55.3597 48.6001 57.2347 50.5054 57.2347 52.8318V57.3239C57.2347 58.8876 58.0848 60.252 59.3473 60.9827C60.6099 60.252 61.46 58.8877 61.46 57.3239V0H17.8685C17.2851 0 16.8121 0.472958 16.8121 1.05634Z" fill="#E5FAFF"/>
<path d="M53.0093 48.5916H4.13607C2.29452 48.5916 0.728042 49.7697 0.14945 51.4134C-0.0919582 52.0987 0.421422 52.8169 1.14804 52.8169H47.8345C48.3364 52.8169 48.7686 52.4637 48.8685 51.972C49.2599 50.0432 50.9651 48.5916 53.0093 48.5916Z" fill="#C5F3FF"/>
<path d="M45.122 6.33813L41.2487 23.2395C41.2487 23.2395 50.4036 18.9098 50.4036 11.6198C50.4036 8.70278 48.0389 6.33813 45.122 6.33813Z" fill="#FF3E3A"/>
<path d="M46.1783 11.6198C46.1783 8.70278 45.7054 6.33813 45.122 6.33813C43.5913 6.33813 42.2134 6.98997 41.2487 8.03039C40.2841 6.98997 38.9062 6.33813 37.3755 6.33813C34.4585 6.33813 32.0938 8.70278 32.0938 11.6198C32.0938 18.9098 41.2487 23.2395 41.2487 23.2395C41.2487 23.2395 46.1783 18.9098 46.1783 11.6198Z" fill="#FF6053"/>
<path d="M55.122 30.6337H27.3755C26.792 30.6337 26.3192 30.1607 26.3192 29.5773C26.3192 28.994 26.792 28.521 27.3755 28.521H55.122C55.7055 28.521 56.1783 28.994 56.1783 29.5773C56.1783 30.1607 55.7054 30.6337 55.122 30.6337Z" fill="#4A527B"/>
<path d="M55.122 34.859H27.3756C26.792 34.859 26.3192 34.3861 26.3192 33.8027C26.3192 33.2193 26.792 32.7463 27.3756 32.7463H55.122C55.7056 32.7463 56.1784 33.2193 56.1784 33.8027C56.1784 34.3861 55.7054 34.859 55.122 34.859Z" fill="#4A527B"/>
<path d="M55.122 39.0844H27.3756C26.792 39.0844 26.3192 38.6114 26.3192 38.028C26.3192 37.4446 26.792 36.9717 27.3756 36.9717H55.122C55.7056 36.9717 56.1784 37.4446 56.1784 38.028C56.1784 38.6114 55.7054 39.0844 55.122 39.0844Z" fill="#4A527B"/>
<path d="M55.122 43.3097H27.3756C26.792 43.3097 26.3192 42.8367 26.3192 42.2534C26.3192 41.67 26.792 41.197 27.3756 41.197H55.122C55.7056 41.197 56.1784 41.67 56.1784 42.2534C56.1784 42.8367 55.7054 43.3097 55.122 43.3097Z" fill="#4A527B"/>
<g clip-path="url(#clip0_17062_116809)">
<path d="M16.0891 0C10.5749 0 6.08911 4.48578 6.08911 10C6.08911 15.5142 10.5749 20 16.0891 20C21.6033 20 26.0891 15.5142 26.0891 10C26.0891 4.48578 21.6033 0 16.0891 0Z" fill="#F44336"/>
<path d="M19.7717 12.504C20.0975 12.8299 20.0975 13.3565 19.7717 13.6824C19.6092 13.8449 19.3959 13.9266 19.1824 13.9266C18.9691 13.9266 18.7557 13.8449 18.5932 13.6824L16.0891 11.1782L13.585 13.6824C13.4225 13.8449 13.2092 13.9266 12.9959 13.9266C12.7824 13.9266 12.5691 13.8449 12.4066 13.6824C12.0808 13.3565 12.0808 12.8299 12.4066 12.504L14.9108 9.99989L12.4066 7.49577C12.0808 7.16984 12.0808 6.64326 12.4066 6.31733C12.7325 5.99155 13.2591 5.99155 13.585 6.31733L16.0891 8.8216L18.5932 6.31733C18.9192 5.99155 19.4457 5.99155 19.7717 6.31733C20.0975 6.64326 20.0975 7.16984 19.7717 7.49577L17.2674 9.99989L19.7717 12.504Z" fill="#FAFAFA"/>
</g>
<defs>
<clipPath id="clip0_17062_116809">
<rect width="20" height="20" fill="white" transform="translate(6.08911)"/>
</clipPath>
</defs>
</svg>
