<svg xmlns="http://www.w3.org/2000/svg" width="40" height="41" viewBox="0 0 40 41" fill="none">
  <path d="M26.6666 27.401L19.9999 20.7344L13.3333 27.401" stroke="#A7A7A7" stroke-width="2" stroke-linecap="round" stroke-linejoin="round"/>
  <path d="M20 20.7344V35.7344" stroke="#A7A7A7" stroke-width="2" stroke-linecap="round" stroke-linejoin="round"/>
  <path d="M33.9833 31.3842C35.6088 30.498 36.893 29.0957 37.6331 27.3986C38.3731 25.7015 38.527 23.8062 38.0703 22.012C37.6136 20.2178 36.5724 18.6267 35.111 17.4899C33.6497 16.3532 31.8514 15.7354 29.9999 15.7342H27.8999C27.3955 13.7829 26.4552 11.9714 25.1498 10.4358C23.8445 8.90027 22.208 7.6806 20.3634 6.86853C18.5189 6.05646 16.5142 5.67312 14.5001 5.74732C12.4861 5.82153 10.515 6.35135 8.73523 7.29696C6.95541 8.24257 5.41312 9.57936 4.2243 11.2068C3.03549 12.8343 2.23108 14.7101 1.87157 16.6932C1.51205 18.6763 1.60678 20.7151 2.14862 22.6563C2.69047 24.5975 3.66534 26.3906 4.99993 27.9009" stroke="#A7A7A7" stroke-width="2" stroke-linecap="round" stroke-linejoin="round"/>
  <path d="M26.6666 27.401L19.9999 20.7344L13.3333 27.401" stroke="#A7A7A7" stroke-width="2" stroke-linecap="round" stroke-linejoin="round"/>
</svg>