<svg width="30" height="31" viewBox="0 0 30 31" fill="none" xmlns="http://www.w3.org/2000/svg">
<g clip-path="url(#clip0_5082_15601)">
<path opacity="0.5" d="M27.5 13.6062V24.25C27.498 25.907 26.8389 27.4956 25.6672 28.6672C24.4956 29.8389 22.907 30.498 21.25 30.5H8.75C7.09301 30.498 5.50445 29.8389 4.33277 28.6672C3.1611 27.4956 2.50198 25.907 2.5 24.25V6.75C2.50198 5.09301 3.1611 3.50445 4.33277 2.33277C5.50445 1.1611 7.09301 0.501985 8.75 0.5L14.3937 0.5C14.5975 0.5 14.7987 0.51625 15 0.53V9.25C15 10.2446 15.3951 11.1984 16.0983 11.9017C16.8016 12.6049 17.7554 13 18.75 13H27.47C27.4837 13.2012 27.5 13.4025 27.5 13.6062ZM17.5 24.25C17.5 23.9185 17.3683 23.6005 17.1339 23.3661C16.8995 23.1317 16.5815 23 16.25 23H10C9.66848 23 9.35054 23.1317 9.11612 23.3661C8.8817 23.6005 8.75 23.9185 8.75 24.25C8.75 24.5815 8.8817 24.8995 9.11612 25.1339C9.35054 25.3683 9.66848 25.5 10 25.5H16.25C16.5815 25.5 16.8995 25.3683 17.1339 25.1339C17.3683 24.8995 17.5 24.5815 17.5 24.25ZM21.25 19.25C21.25 18.9185 21.1183 18.6005 20.8839 18.3661C20.6495 18.1317 20.3315 18 20 18H10C9.66848 18 9.35054 18.1317 9.11612 18.3661C8.8817 18.6005 8.75 18.9185 8.75 19.25C8.75 19.5815 8.8817 19.8995 9.11612 20.1339C9.35054 20.3683 9.66848 20.5 10 20.5H20C20.3315 20.5 20.6495 20.3683 20.8839 20.1339C21.1183 19.8995 21.25 19.5815 21.25 19.25Z" fill="#AEAEAE"/>
<path d="M17.5 1.07495V9.24995C17.5 9.58147 17.6317 9.89941 17.8661 10.1338C18.1005 10.3683 18.4185 10.4999 18.75 10.4999H26.925C26.4886 9.34357 25.8106 8.29355 24.9362 7.41995L20.5813 3.06245C19.7066 2.18909 18.6563 1.51162 17.5 1.07495Z" fill="#AEAEAE"/>
</g>
<defs>
<clipPath id="clip0_5082_15601">
<rect width="30" height="30" fill="white" transform="translate(0 0.5)"/>
</clipPath>
</defs>
</svg>
