<svg width="30" height="31" viewBox="0 0 30 31" fill="none" xmlns="http://www.w3.org/2000/svg">
<g clip-path="url(#clip0_5082_15615)">
<path d="M13.9024 16.17C13.5541 15.8215 13.1406 15.5451 12.6855 15.3565C12.2304 15.1679 11.7425 15.0708 11.2499 15.0708C10.7572 15.0708 10.2694 15.1679 9.81425 15.3565C9.35912 15.5451 8.94562 15.8215 8.59737 16.17L0.0473633 24.72C0.162939 26.2876 0.865999 27.7538 2.01595 28.8255C3.16591 29.8971 4.678 30.4951 6.24987 30.5H23.7499C24.9745 30.4998 26.1718 30.1375 27.1911 29.4588L13.9024 16.17Z" fill="#AEAEAE"/>
<path opacity="0.5" d="M22.5 10.5C23.8807 10.5 25 9.38071 25 8C25 6.61929 23.8807 5.5 22.5 5.5C21.1193 5.5 20 6.61929 20 8C20 9.38071 21.1193 10.5 22.5 10.5Z" fill="#AEAEAE"/>
<path opacity="0.5" d="M23.75 0.5H6.25C4.59301 0.501985 3.00445 1.1611 1.83277 2.33277C0.661102 3.50445 0.00198482 5.09301 0 6.75L0 21.2325L6.83 14.4025C7.41039 13.822 8.09946 13.3614 8.85785 13.0472C9.61624 12.7331 10.4291 12.5713 11.25 12.5713C12.0709 12.5713 12.8838 12.7331 13.6422 13.0472C14.4005 13.3614 15.0896 13.822 15.67 14.4025L28.9587 27.6912C29.6375 26.6719 29.9998 25.4746 30 24.25V6.75C29.998 5.09301 29.3389 3.50445 28.1672 2.33277C26.9956 1.1611 25.407 0.501985 23.75 0.5ZM22.5 13C21.5111 13 20.5444 12.7068 19.7221 12.1573C18.8999 11.6079 18.259 10.827 17.8806 9.91342C17.5022 8.99979 17.4031 7.99445 17.5961 7.02455C17.789 6.05464 18.2652 5.16373 18.9645 4.46447C19.6637 3.7652 20.5546 3.289 21.5245 3.09607C22.4945 2.90315 23.4998 3.00216 24.4134 3.3806C25.327 3.75904 26.1079 4.3999 26.6573 5.22215C27.2068 6.04439 27.5 7.01109 27.5 8C27.5 9.32608 26.9732 10.5979 26.0355 11.5355C25.0979 12.4732 23.8261 13 22.5 13Z" fill="#AEAEAE"/>
</g>
<defs>
<clipPath id="clip0_5082_15615">
<rect width="30" height="30" fill="white" transform="translate(0 0.5)"/>
</clipPath>
</defs>
</svg>
