<svg width="17" height="19" viewBox="0 0 17 19" fill="none" xmlns="http://www.w3.org/2000/svg">
<path d="M10.485 7.10912L7.485 5.39313C6.567 4.86913 5.425 4.86812 4.507 5.39513L1.511 7.10813C0.579001 7.64013 0 8.63813 0 9.71213V13.3481C0 14.4221 0.579001 15.4201 1.511 15.9521L4.507 17.6671C4.967 17.9301 5.482 18.0611 5.997 18.0611C6.512 18.0611 7.026 17.9301 7.485 17.6671L10.485 15.9521C11.417 15.4201 11.996 14.4221 11.996 13.3481V9.71213C11.996 8.63813 11.417 7.64112 10.485 7.10912ZM2.007 7.97613L5.003 6.26313C5.31 6.08713 5.653 5.99913 5.997 5.99913C6.341 5.99913 6.683 6.08713 6.989 6.26113L9.989 7.97712C10.184 8.08812 10.345 8.23713 10.489 8.40113L6.001 10.9251L1.509 8.39912C1.652 8.23512 1.813 8.08712 2.007 7.97512V7.97613ZM2.007 15.0831C1.386 14.7291 1 14.0631 1 13.3481V9.71213C1 9.56813 1.026 9.42913 1.056 9.29213L5.5 11.7911V16.9971C5.328 16.9531 5.16 16.8881 5.003 16.7991L2.007 15.0831ZM10.996 13.3481C10.996 14.0641 10.61 14.7291 9.989 15.0841L6.989 16.7981C6.834 16.8871 6.669 16.9521 6.5 16.9961V11.7911L10.94 9.29512C10.97 9.43212 10.996 9.57012 10.996 9.71312V13.3481Z" fill="#0066AF"/>
<path d="M16.5625 3.0625H13.9375V0.4375C13.9375 0.195877 13.7416 0 13.5 0C13.2584 0 13.0625 0.195877 13.0625 0.4375V3.0625H10.4375C10.1959 3.0625 10 3.25838 10 3.5C10 3.74162 10.1959 3.9375 10.4375 3.9375H13.0625V6.5625C13.0625 6.80412 13.2584 7 13.5 7C13.7416 7 13.9375 6.80412 13.9375 6.5625V3.9375H16.5625C16.8041 3.9375 17 3.74162 17 3.5C17 3.25838 16.8041 3.0625 16.5625 3.0625Z" fill="#0066AF"/>
</svg>
