<svg width="32" height="32" viewBox="0 0 32 32" fill="none" xmlns="http://www.w3.org/2000/svg">
<path d="M22.5307 11.4251L22.1057 11.1796C22.1269 11.1429 22.1492 11.1094 22.1704 11.0726C22.857 9.88324 23.1851 8.52079 23.1155 7.14925C23.0458 5.77771 22.5812 4.45553 21.7777 3.34184C20.9741 2.22815 19.8659 1.37041 18.5863 0.871846C17.3067 0.373286 15.9102 0.255153 14.565 0.531666C13.2198 0.808178 11.9832 1.46755 11.004 2.43043C10.0248 3.39331 9.34475 4.61866 9.04566 5.959C8.74657 7.29935 8.84121 8.69757 9.31818 9.98538C9.79516 11.2732 10.6341 12.3957 11.7342 13.2179C11.8193 13.2811 11.9168 13.3257 12.0203 13.3486C12.1238 13.3716 12.231 13.3724 12.3348 13.351C12.4387 13.3297 12.5368 13.2866 12.6229 13.2247C12.7089 13.1627 12.7809 13.0833 12.8342 12.9916L13.5912 11.6804C13.6805 11.5263 13.7118 11.3453 13.6793 11.1701C13.6468 10.995 13.5528 10.8372 13.4142 10.7254C12.7955 10.228 12.3335 9.56267 12.0836 8.80922C11.8337 8.05577 11.8064 7.24622 12.0052 6.47769C12.204 5.70916 12.6202 5.01431 13.2041 4.4765C13.788 3.93869 14.5146 3.58077 15.2969 3.44569C16.0791 3.31061 16.8837 3.4041 17.6141 3.71495C18.3445 4.0258 18.9697 4.5408 19.4147 5.19816C19.8597 5.85552 20.1056 6.62732 20.1228 7.42095C20.1401 8.21457 19.9279 8.99632 19.5119 9.67238L19.4999 9.67513L18.8709 9.31188C18.7462 9.23959 18.6032 9.2048 18.4592 9.21167C18.3151 9.21854 18.1762 9.26678 18.0588 9.35062C17.9415 9.43446 17.8509 9.55033 17.7977 9.68437C17.7446 9.81841 17.7312 9.96493 17.7592 10.1064L18.3817 13.2546C18.4024 13.3595 18.4454 13.4587 18.5076 13.5456C18.5698 13.6326 18.6499 13.7052 18.7425 13.7586C18.8351 13.812 18.9381 13.8451 19.0445 13.8555C19.1508 13.8658 19.2582 13.8534 19.3594 13.8189L22.3972 12.7841C22.5335 12.7376 22.6535 12.6529 22.7429 12.54C22.8323 12.4272 22.8874 12.2909 22.9015 12.1476C22.9155 12.0043 22.8881 11.86 22.8223 11.7318C22.7566 11.6037 22.6553 11.4973 22.5307 11.4251Z" fill="#FFB25A"/>
<path d="M3.25 17.375V29.375C3.25 29.9717 3.48705 30.544 3.90901 30.966C4.33097 31.3879 4.90326 31.625 5.5 31.625H26.5C27.0967 31.625 27.669 31.3879 28.091 30.966C28.5129 30.544 28.75 29.9717 28.75 29.375V17.375C28.75 17.1761 28.671 16.9853 28.5303 16.8447C28.3897 16.704 28.1989 16.625 28 16.625H4C3.80109 16.625 3.61032 16.704 3.46967 16.8447C3.32902 16.9853 3.25 17.1761 3.25 17.375Z" fill="#81B3FF"/>
<path d="M20 16.625V31.625H26.5C27.0967 31.625 27.669 31.3879 28.091 30.966C28.5129 30.544 28.75 29.9717 28.75 29.375V17.375C28.75 17.1761 28.671 16.9853 28.5303 16.8447C28.3897 16.704 28.1989 16.625 28 16.625H20Z" fill="#B4D2FF"/>
<path d="M0.704451 19.6413L2.79995 17.1575C2.94075 16.9907 3.11627 16.8566 3.31425 16.7646C3.51223 16.6727 3.7279 16.625 3.9462 16.625H20L17.0875 20.0763C16.8762 20.3265 16.6129 20.5276 16.3159 20.6656C16.0189 20.8035 15.6954 20.875 15.368 20.875H1.27745C1.13451 20.875 0.994557 20.8341 0.87407 20.7572C0.753582 20.6803 0.657581 20.5706 0.597371 20.4409C0.537162 20.3113 0.515252 20.1671 0.534223 20.0255C0.553194 19.8838 0.612256 19.7505 0.704451 19.6413Z" fill="#B4D2FF"/>
<path d="M31.2955 19.6413L29.2 17.1575C29.0592 16.9907 28.8837 16.8566 28.6857 16.7646C28.4877 16.6727 28.272 16.625 28.0537 16.625H20L22.9125 20.0763C23.1237 20.3265 23.387 20.5276 23.684 20.6656C23.981 20.8035 24.3045 20.875 24.632 20.875H30.7225C30.8654 20.875 31.0054 20.8341 31.1259 20.7572C31.2464 20.6803 31.3424 20.5706 31.4026 20.4409C31.4628 20.3113 31.4847 20.1671 31.4657 20.0255C31.4468 19.8838 31.3877 19.7505 31.2955 19.6413Z" fill="#81B3FF"/>
<path d="M9.125 27.375H5.875C5.66789 27.375 5.5 27.5429 5.5 27.75V29C5.5 29.2071 5.66789 29.375 5.875 29.375H9.125C9.33211 29.375 9.5 29.2071 9.5 29V27.75C9.5 27.5429 9.33211 27.375 9.125 27.375Z" fill="white"/>
<path d="M17.875 28.875H15.625C15.5255 28.875 15.4302 28.9145 15.3598 28.9848C15.2895 29.0552 15.25 29.1505 15.25 29.25C15.25 29.3495 15.2895 29.4448 15.3598 29.5152C15.4302 29.5855 15.5255 29.625 15.625 29.625H17.875C17.9745 29.625 18.0698 29.5855 18.1402 29.5152C18.2105 29.4448 18.25 29.3495 18.25 29.25C18.25 29.1505 18.2105 29.0552 18.1402 28.9848C18.0698 28.9145 17.9745 28.875 17.875 28.875Z" fill="white"/>
<path d="M17.875 26.875H15.625C15.5255 26.875 15.4302 26.9145 15.3598 26.9848C15.2895 27.0552 15.25 27.1505 15.25 27.25C15.25 27.3495 15.2895 27.4448 15.3598 27.5152C15.4302 27.5855 15.5255 27.625 15.625 27.625H17.875C17.9745 27.625 18.0698 27.5855 18.1402 27.5152C18.2105 27.4448 18.25 27.3495 18.25 27.25C18.25 27.1505 18.2105 27.0552 18.1402 26.9848C18.0698 26.9145 17.9745 26.875 17.875 26.875Z" fill="white"/>
</svg>
