<svg width="41" height="37" viewBox="0 0 41 37" fill="none" xmlns="http://www.w3.org/2000/svg">
<path d="M40.8291 18.8574V32.0054C40.8291 34.4857 38.8121 36.5027 36.3318 36.5027H27.0565H26.9427C24.4624 36.5027 22.4453 34.4857 22.4453 32.0054V21.0201C22.4453 21.0148 22.4453 21.0095 22.4453 21.0042V18.8574H26.1221V21.0889C26.1221 21.3351 26.3233 21.5362 26.5694 21.5362C26.8156 21.5362 27.0168 21.3351 27.0168 21.0889V18.8574H36.2603V21.0889C36.2603 21.3351 36.4615 21.5362 36.7077 21.5362C36.9538 21.5362 37.155 21.3351 37.155 21.0889V18.8574H40.8291Z" fill="url(#paint0_linear_11698_3328)"/>
<path d="M37.154 16.279V17.9651H36.2593V16.279C36.2593 13.7298 34.1867 11.6572 31.6376 11.6572C29.0884 11.6572 27.0158 13.7298 27.0158 16.279V17.9651H26.1211V16.279C26.1211 13.2375 28.5961 10.7651 31.6349 10.7651C34.679 10.7651 37.154 13.2401 37.154 16.279Z" fill="url(#paint1_linear_11698_3328)"/>
<path d="M13.0002 24.0057C13.1537 24.1168 13.3629 24.1195 13.519 24.0109L18.4135 20.6201C19.2049 20.5989 20.3405 20.7101 21.5555 21.2871V32.0051C21.5555 33.8792 22.519 35.5362 23.9749 36.5024H5.92992V29.2759C5.92992 29.0298 5.73139 28.8286 5.48257 28.8286C5.23639 28.8286 5.03522 29.0298 5.03522 29.2759V36.5024H0.169922C0.177863 34.173 0.310216 29.3739 1.1811 26.2662C1.41404 25.4351 1.68139 24.7892 2.04669 24.1777C2.3511 23.6695 3.22463 22.3936 4.79433 21.5121C6.15757 20.7445 7.46522 20.5989 8.36257 20.6227L13.0002 24.0057Z" fill="url(#paint2_linear_11698_3328)"/>
<path d="M20.5281 5.60874C20.5837 6.21227 20.3058 6.80786 20.0596 7.25786C20.049 7.27639 20.0252 7.32404 19.9881 7.39551C19.8081 7.74492 19.6784 7.9858 19.5858 8.15257C19.0034 7.71315 18.474 7.15992 18.4687 7.15198C18.3364 7.01168 18.1273 6.97198 17.9525 7.05404C15.8402 8.04933 13.8152 8.34051 11.9305 7.92227C10.5249 7.60992 9.72549 6.99845 9.7202 6.99315C9.5349 6.84757 9.2702 6.86874 9.11137 7.04345C8.61902 7.58874 7.86726 7.98315 7.40402 8.18962C7.27167 7.69992 7.2399 7.16521 7.20549 6.64374C7.17108 6.09051 7.13137 5.46315 7.26373 4.90727C7.37226 4.45727 7.67931 3.91992 8.17696 3.3111C8.25637 3.21315 8.34108 3.11521 8.42843 3.02521C9.87108 1.48198 12.3328 0.854625 12.812 0.746096C13.749 0.531684 14.6358 0.45492 15.4511 0.515802C16.0308 0.560802 16.5125 0.637567 16.9255 0.754037C17.1902 0.828155 17.5449 0.979037 17.7408 1.28345C17.8334 1.42639 17.9023 1.60374 17.9737 1.78904C18.0796 2.06433 18.1987 2.37404 18.4264 2.64139C18.6355 2.88757 18.8711 3.07551 19.0987 3.25286C19.2893 3.40374 19.4693 3.54404 19.6149 3.7108C20.0278 4.17933 20.4673 4.94433 20.5281 5.60874Z" fill="url(#paint3_linear_11698_3328)"/>
<path d="M19.272 9.0259V11.7259C19.272 14.1797 18.0517 16.3186 16.2517 17.4303C15.4152 17.9465 14.4517 18.243 13.4299 18.243C12.2811 18.243 11.2091 17.8724 10.3038 17.2291C8.67318 16.0724 7.58789 14.0368 7.58789 11.7259V9.08943C8.02466 8.90679 8.85054 8.51502 9.50436 7.91943C9.90142 8.16296 10.6479 8.54679 11.6882 8.78502C12.6094 8.99679 13.5808 9.05237 14.5735 8.95179C15.7117 8.83796 16.8791 8.51502 18.0517 7.9962C18.3164 8.25561 18.7823 8.68973 19.272 9.0259Z" fill="url(#paint4_linear_11698_3328)"/>
<path d="M16.4999 20.861L13.2705 23.0978L10.1973 20.8557C10.4037 20.3422 10.6446 19.5746 10.6658 18.7354C10.6684 18.6481 10.6684 18.566 10.6658 18.4893C11.5234 18.9128 12.4605 19.1351 13.4267 19.1351C14.3081 19.1351 15.1631 18.9498 15.9546 18.5978V18.6004C15.9784 19.474 16.2379 20.2681 16.4999 20.861Z" fill="url(#paint5_linear_11698_3328)"/>
<defs>
<linearGradient id="paint0_linear_11698_3328" x1="31.6384" y1="36.5004" x2="31.6384" y2="18.8497" gradientUnits="userSpaceOnUse">
<stop stop-color="#9B9B9B"/>
<stop offset="1" stop-color="#DDDDDD"/>
</linearGradient>
<linearGradient id="paint1_linear_11698_3328" x1="31.6383" y1="17.9642" x2="31.6383" y2="10.762" gradientUnits="userSpaceOnUse">
<stop stop-color="#9B9B9B"/>
<stop offset="1" stop-color="#DDDDDD"/>
</linearGradient>
<linearGradient id="paint2_linear_11698_3328" x1="12.074" y1="36.5003" x2="12.074" y2="20.6108" gradientUnits="userSpaceOnUse">
<stop stop-color="#9B9B9B"/>
<stop offset="1" stop-color="#DDDDDD"/>
</linearGradient>
<linearGradient id="paint3_linear_11698_3328" x1="13.8545" y1="8.1886" x2="13.8545" y2="0.492255" gradientUnits="userSpaceOnUse">
<stop stop-color="#9B9B9B"/>
<stop offset="1" stop-color="#DDDDDD"/>
</linearGradient>
<linearGradient id="paint4_linear_11698_3328" x1="13.4307" y1="18.2416" x2="13.4307" y2="7.91494" gradientUnits="userSpaceOnUse">
<stop stop-color="#9B9B9B"/>
<stop offset="1" stop-color="#DDDDDD"/>
</linearGradient>
<linearGradient id="paint5_linear_11698_3328" x1="13.349" y1="23.0972" x2="13.349" y2="18.4873" gradientUnits="userSpaceOnUse">
<stop stop-color="#9B9B9B"/>
<stop offset="1" stop-color="#DDDDDD"/>
</linearGradient>
</defs>
</svg>
