<svg width="45" height="45" viewBox="0 0 45 45" fill="none" xmlns="http://www.w3.org/2000/svg">
<path d="M33.0453 24.7805L31.691 20.8306C31.6484 20.7067 31.5792 20.5964 31.4918 20.5029C31.4309 21.4143 30.6951 22.1593 29.7604 22.2072C29.5293 22.2187 29.3018 22.2248 29.0839 22.2248H29.0632C28.4418 22.2246 27.851 22.1789 27.2903 22.0958C27.2876 22.2105 27.3053 22.3276 27.3483 22.4416C27.5267 22.9141 28.0543 23.1523 28.5272 22.9739V22.9736L30.2662 22.3163L34.3931 34.3515C35.1074 33.5707 36.0101 32.9774 37.04 32.6282C37.7023 32.4037 38.3903 32.2894 39.0839 32.2894C41.2935 32.2894 43.3013 33.4289 44.4512 35.2351C45.1354 35.2024 45.3107 34.8017 44.2112 33.3691C42.4385 31.0591 39.9726 30.6112 38.2383 30.6345C38.1295 30.341 38.017 30.0344 37.8997 29.7102C36.837 26.7718 34.4501 25.3723 33.0453 24.7805Z" fill="url(#paint0_linear_12603_7897)"/>
<path d="M24.7529 6.65757C24.7529 6.66983 24.7533 6.68245 24.7544 6.69654C24.8012 7.58161 25.0026 8.19813 25.0055 8.80971C25.0063 9.1251 24.9454 9.43994 24.7738 9.75844C24.7571 9.78954 24.7302 9.81625 24.6986 9.83308C24.1951 10.1024 23.6541 10.1869 23.1039 10.1869C22.6231 10.1865 22.1322 10.1238 21.6368 10.059C21.1745 9.99883 20.7664 9.9037 20.4023 9.77418C20.9614 10.4975 21.7634 11.0403 22.7233 11.2637C24.9369 11.7792 27.1489 10.4026 27.665 8.18916C27.8929 7.20987 27.75 6.23095 27.3285 5.39893C26.5917 5.4893 25.5997 5.67279 25.0992 6.05935C24.8707 6.23479 24.7549 6.4192 24.7529 6.65757Z" fill="url(#paint1_linear_12603_7897)"/>
<path d="M18.2179 15.2754L18.2168 15.2729L18.2089 15.256C18.0064 14.8113 17.9896 14.3141 18.161 13.8567C18.3324 13.3993 18.6721 13.0358 19.1167 12.8339C19.3567 12.7243 19.6114 12.6692 19.8733 12.6692C20.5892 12.6692 21.243 13.09 21.5392 13.7413L21.5482 13.7594C21.5617 13.787 21.5842 13.8315 21.6157 13.8902C21.6793 14.0102 21.7867 14.2014 21.936 14.4343C22.1105 14.7076 22.3634 15.0698 22.6919 15.4635C23.0218 13.7345 22.3266 11.8275 20.8758 11.4662C19.3141 11.0767 17.0502 11.925 16.129 14.6035C14.8841 18.2943 14.6165 20.6966 15.0896 24.7606C15.5471 27.1151 16.9289 27.7801 18.3211 27.9414C18.3273 27.9425 18.3331 27.9444 18.3394 27.9453L25.2767 29.0239L27.8754 35.6109C28.2301 36.5103 29.0916 37.0591 30.0032 37.0591C30.2824 37.0591 30.5665 37.0077 30.842 36.899C32.0165 36.4355 32.5931 35.1073 32.1299 33.9328L29.0503 26.127C28.7528 25.3737 28.0743 24.8309 27.2744 24.7065L21.5266 23.8124C21.4968 22.4636 21.6453 21.0667 21.8577 19.7357C21.4375 19.4054 21.0652 19.0689 20.7414 18.7453C19.197 17.2077 18.4197 15.7008 18.2179 15.2754Z" fill="url(#paint2_linear_12603_7897)"/>
<path d="M29.0632 21.8588H29.0839C29.3014 21.8588 29.5206 21.8528 29.7416 21.8416C30.5489 21.8003 31.17 21.113 31.1288 20.3058C31.0877 19.4985 30.3998 18.8776 29.593 18.9188C29.418 18.9277 29.2484 18.9319 29.0839 18.9319C26.28 18.9259 24.3752 17.6969 23.0616 16.4079C22.4133 15.7654 21.9356 15.1128 21.6281 14.6319C21.4742 14.3915 21.3628 14.1935 21.2928 14.0629C21.258 13.9974 21.2331 13.9488 21.219 13.9191C21.213 13.907 21.2088 13.8981 21.206 13.893C20.8711 13.1572 20.0037 12.8321 19.2681 13.167C18.5322 13.5015 18.2073 14.369 18.5419 15.1048C18.5905 15.2056 19.3267 16.8211 21.0006 18.4865C22.6564 20.1423 25.3502 21.8586 29.0632 21.8588Z" fill="url(#paint3_linear_12603_7897)"/>
<path d="M13.507 26.8433V15.4515C13.507 14.9123 13.07 14.4751 12.5308 14.4751H0.976181C0.43705 14.4753 0 14.9125 0 15.4516V26.8435C0 27.3828 0.43705 27.8198 0.976181 27.8198H12.5308C13.07 27.8198 13.507 27.3828 13.507 26.8433Z" fill="url(#paint4_linear_12603_7897)"/>
<path d="M17.1505 36.9062C16.1838 34.0556 13.0897 32.5281 10.2388 33.4947C7.38816 34.4612 5.86059 37.5559 6.82725 40.4065C7.79374 43.2571 10.888 44.7847 13.739 43.8182C16.5896 42.8515 18.117 39.7569 17.1505 36.9062ZM12.6801 40.6955C11.5539 41.0775 10.3312 40.4736 9.94953 39.3478C9.56791 38.2216 10.1714 36.9988 11.2973 36.6172C12.4235 36.2352 13.6463 36.8391 14.0279 37.9649C14.41 39.0911 13.8065 40.3135 12.6801 40.6955Z" fill="url(#paint5_linear_12603_7897)"/>
<path d="M36.2528 24.4738C37.7933 24.4738 37.7933 18.894 36.2528 18.894C34.712 18.894 33.4629 20.143 33.4629 21.6839C33.4629 23.2248 34.712 24.4738 36.2528 24.4738Z" fill="url(#paint6_linear_12603_7897)"/>
<path d="M32.7896 37.6987H21.1253C20.117 35.6642 19.7701 33.5872 19.6552 32.2362C19.9547 32.1445 20.1738 31.869 20.1738 31.5395V29.5272C20.1738 29.1231 19.8462 28.7954 19.4421 28.7954H4.53227C4.12815 28.7954 3.8005 29.1231 3.8005 29.5272V31.5395C3.8005 31.9437 4.12815 32.2713 4.53227 32.2713H4.61295C3.81824 34.2213 2.5918 37.6015 2.5918 39.894H5.74609C5.47168 38.525 5.65279 37.1116 6.28101 35.8389C7.03382 34.3144 8.33491 33.1738 9.9448 32.6282C10.6076 32.4032 11.2951 32.2896 11.989 32.2896C14.7178 32.2896 17.1399 34.0265 18.0164 36.6124C18.3878 37.7073 18.4408 38.8342 18.2288 39.894H19.514H22.5325H32.8413C32.6952 39.1653 32.6781 38.4246 32.7896 37.6987Z" fill="url(#paint7_linear_12603_7897)"/>
<path d="M37.3335 33.4942C34.4829 34.4606 32.9553 37.5553 33.922 40.4059C34.8885 43.2565 37.9828 44.7841 40.8337 43.8176C43.6843 42.8511 45.2119 39.7565 44.2452 36.9058C43.2788 34.0552 40.1845 32.5277 37.3335 33.4942ZM39.775 40.6951C38.6488 41.0771 37.4261 40.4732 37.0444 39.3474C36.6628 38.2212 37.2664 36.9984 38.3922 36.6168C39.5184 36.2348 40.7412 36.8387 41.1228 37.9645C41.5048 39.0907 40.9012 40.3132 39.775 40.6951Z" fill="url(#paint8_linear_12603_7897)"/>
<path d="M27.7841 4.98366C27.706 4.42806 27.5305 3.89899 27.2731 3.41602C26.5741 2.10451 25.276 1.13949 23.6904 0.932032C23.4813 0.90459 23.2735 0.891602 23.068 0.891602C23.0678 0.891602 23.0677 0.891602 23.0673 0.891602C20.7158 0.891602 18.6705 2.63669 18.358 5.0325C18.3309 5.24088 18.3174 5.44797 18.3174 5.65231C18.3174 5.93514 18.3426 6.2134 18.3913 6.48543C18.5719 7.49912 18.877 8.22704 19.3827 8.73562C19.8879 9.24384 20.6118 9.55557 21.6843 9.69644C22.1786 9.7612 22.6557 9.82139 23.1037 9.82084C23.5987 9.82084 24.0556 9.74858 24.4761 9.53655C24.5976 9.29177 24.6388 9.06492 24.6395 8.8099C24.6424 8.28668 24.441 7.6462 24.3891 6.71759C24.3876 6.69783 24.3872 6.67789 24.3869 6.65776C24.3854 6.28109 24.5943 5.9785 24.8788 5.76757C25.1646 5.55279 25.5332 5.40534 25.9218 5.29411C26.5935 5.10312 27.3322 5.02555 27.7841 4.98366Z" fill="url(#paint9_linear_12603_7897)"/>
<defs>
<linearGradient id="paint0_linear_12603_7897" x1="36.1463" y1="35.2331" x2="36.1463" y2="20.4965" gradientUnits="userSpaceOnUse">
<stop stop-color="#9B9B9B"/>
<stop offset="1" stop-color="#DDDDDD"/>
</linearGradient>
<linearGradient id="paint1_linear_12603_7897" x1="24.0881" y1="11.3711" x2="24.0881" y2="5.39632" gradientUnits="userSpaceOnUse">
<stop stop-color="#9B9B9B"/>
<stop offset="1" stop-color="#DDDDDD"/>
</linearGradient>
<linearGradient id="paint2_linear_12603_7897" x1="23.5812" y1="37.0557" x2="23.5812" y2="11.3653" gradientUnits="userSpaceOnUse">
<stop stop-color="#9B9B9B"/>
<stop offset="1" stop-color="#DDDDDD"/>
</linearGradient>
<linearGradient id="paint3_linear_12603_7897" x1="24.7713" y1="21.8577" x2="24.7713" y2="13.0313" gradientUnits="userSpaceOnUse">
<stop stop-color="#9B9B9B"/>
<stop offset="1" stop-color="#DDDDDD"/>
</linearGradient>
<linearGradient id="paint4_linear_12603_7897" x1="6.75438" y1="27.8181" x2="6.75438" y2="14.4693" gradientUnits="userSpaceOnUse">
<stop stop-color="#9B9B9B"/>
<stop offset="1" stop-color="#DDDDDD"/>
</linearGradient>
<linearGradient id="paint5_linear_12603_7897" x1="11.9896" y1="44.1068" x2="11.9896" y2="33.1998" gradientUnits="userSpaceOnUse">
<stop stop-color="#9B9B9B"/>
<stop offset="1" stop-color="#DDDDDD"/>
</linearGradient>
<linearGradient id="paint6_linear_12603_7897" x1="35.4358" y1="24.473" x2="35.4358" y2="18.8916" gradientUnits="userSpaceOnUse">
<stop stop-color="#9B9B9B"/>
<stop offset="1" stop-color="#DDDDDD"/>
</linearGradient>
<linearGradient id="paint7_linear_12603_7897" x1="17.7185" y1="39.8925" x2="17.7185" y2="28.7906" gradientUnits="userSpaceOnUse">
<stop stop-color="#9B9B9B"/>
<stop offset="1" stop-color="#DDDDDD"/>
</linearGradient>
<linearGradient id="paint8_linear_12603_7897" x1="39.0843" y1="44.1062" x2="39.0843" y2="33.1994" gradientUnits="userSpaceOnUse">
<stop stop-color="#9B9B9B"/>
<stop offset="1" stop-color="#DDDDDD"/>
</linearGradient>
<linearGradient id="paint9_linear_12603_7897" x1="23.0514" y1="9.81965" x2="23.0514" y2="0.887713" gradientUnits="userSpaceOnUse">
<stop stop-color="#9B9B9B"/>
<stop offset="1" stop-color="#DDDDDD"/>
</linearGradient>
</defs>
</svg>
