<svg width="14" height="20" viewBox="0 0 14 20" fill="none" xmlns="http://www.w3.org/2000/svg">
<path d="M12.1562 0.03125H1.84375C1.08436 0.03125 0.46875 0.646858 0.46875 1.40625V18.5938C0.46875 19.3531 1.08436 19.9688 1.84375 19.9688H12.1562C12.9156 19.9688 13.5312 19.3531 13.5312 18.5938V1.40625C13.5312 0.646858 12.9156 0.03125 12.1562 0.03125Z" fill="#64B5F6"/>
<path d="M13.5312 1.40625V17.2188H0.46875V1.40625C0.468701 1.22567 0.504233 1.04685 0.573316 0.880002C0.642398 0.713157 0.743678 0.561559 0.871368 0.433868C0.999059 0.306178 1.15066 0.204898 1.3175 0.135815C1.48435 0.0667326 1.66317 0.0312008 1.84375 0.0312501H12.1562C12.3368 0.031199 12.5157 0.0667296 12.6825 0.135812C12.8493 0.204894 13.0009 0.306174 13.1286 0.433864C13.2563 0.561555 13.3576 0.713154 13.4267 0.88C13.4958 1.04685 13.5313 1.22567 13.5312 1.40625Z" fill="#BBDEFB"/>
<path d="M8.03125 18.9375H5.96875C5.87758 18.9375 5.79015 18.9013 5.72568 18.8368C5.66122 18.7724 5.625 18.6849 5.625 18.5938C5.625 18.5026 5.66122 18.4151 5.72568 18.3507C5.79015 18.2862 5.87758 18.25 5.96875 18.25H8.03125C8.12242 18.25 8.20985 18.2862 8.27432 18.3507C8.33878 18.4151 8.375 18.5026 8.375 18.5938C8.375 18.6849 8.33878 18.7724 8.27432 18.8368C8.20985 18.9013 8.12242 18.9375 8.03125 18.9375Z" fill="#EEEEEE"/>
<path d="M4.59375 0.03125H9.40625V0.71875C9.40625 0.901086 9.33382 1.07595 9.20489 1.20489C9.07596 1.33382 8.90109 1.40625 8.71875 1.40625H5.28125C5.09891 1.40625 4.92405 1.33382 4.79511 1.20489C4.66618 1.07595 4.59375 0.901086 4.59375 0.71875V0.03125Z" fill="#64B5F6"/>
<path d="M8.19064 13.4375C8.16811 13.3984 8.13808 13.364 8.10226 13.3365C8.06645 13.309 8.02556 13.2888 7.98194 13.2771C7.93831 13.2654 7.89281 13.2625 7.84803 13.2684C7.80326 13.2743 7.76009 13.289 7.721 13.3116L7.34351 13.5295V13.0938C7.34351 13.0026 7.3073 12.9151 7.24283 12.8507C7.17837 12.7862 7.09093 12.75 6.99976 12.75C6.9086 12.75 6.82116 12.7862 6.7567 12.8507C6.69223 12.9151 6.65601 13.0026 6.65601 13.0938V13.5295L6.27853 13.3116C6.23942 13.289 6.19625 13.2743 6.15148 13.2684C6.1067 13.2625 6.0612 13.2655 6.01757 13.2772C5.97394 13.2889 5.93305 13.309 5.89722 13.3365C5.86138 13.364 5.83132 13.3983 5.80874 13.4374C5.78616 13.4765 5.77151 13.5197 5.76563 13.5645C5.75974 13.6093 5.76274 13.6548 5.77444 13.6984C5.78615 13.742 5.80633 13.7829 5.83384 13.8187C5.86135 13.8545 5.89565 13.8846 5.93478 13.9071L6.31214 14.125L5.93478 14.3429C5.85586 14.3885 5.79828 14.4636 5.7747 14.5516C5.75112 14.6397 5.76348 14.7335 5.80905 14.8124C5.85461 14.8914 5.92967 14.949 6.01771 14.9726C6.10574 14.9962 6.19956 14.9839 6.27853 14.9384L6.65601 14.7205V15.1562C6.65601 15.2474 6.69223 15.3349 6.7567 15.3993C6.82116 15.4638 6.9086 15.5 6.99976 15.5C7.09093 15.5 7.17837 15.4638 7.24283 15.3993C7.3073 15.3349 7.34351 15.2474 7.34351 15.1562V14.7205L7.721 14.9384C7.7601 14.961 7.80328 14.9757 7.84805 14.9816C7.89283 14.9875 7.93833 14.9845 7.98196 14.9728C8.02558 14.9611 8.06648 14.941 8.10231 14.9135C8.13814 14.886 8.16821 14.8517 8.19079 14.8126C8.21336 14.7735 8.22801 14.7303 8.2339 14.6855C8.23978 14.6407 8.23679 14.5952 8.22508 14.5516C8.21338 14.508 8.1932 14.4671 8.16569 14.4313C8.13817 14.3955 8.10388 14.3654 8.06475 14.3429L7.68739 14.125L8.06475 13.9071C8.14371 13.8615 8.20133 13.7865 8.22494 13.6984C8.24854 13.6103 8.23621 13.5165 8.19064 13.4375Z" fill="#757575"/>
<path d="M4.75314 13.4375C4.73061 13.3984 4.70057 13.364 4.66476 13.3365C4.62895 13.309 4.58806 13.2888 4.54444 13.2771C4.50081 13.2654 4.45531 13.2625 4.41053 13.2684C4.36576 13.2743 4.32259 13.289 4.2835 13.3116L3.90601 13.5295V13.0938C3.90601 13.0026 3.8698 12.9151 3.80533 12.8507C3.74087 12.7862 3.65343 12.75 3.56226 12.75C3.4711 12.75 3.38366 12.7862 3.3192 12.8507C3.25473 12.9151 3.21851 13.0026 3.21851 13.0938V13.5295L2.84103 13.3116C2.80192 13.289 2.75875 13.2743 2.71398 13.2684C2.6692 13.2625 2.6237 13.2655 2.58007 13.2772C2.53644 13.2889 2.49555 13.309 2.45972 13.3365C2.42388 13.364 2.39382 13.3983 2.37124 13.4374C2.34866 13.4765 2.33401 13.5197 2.32813 13.5645C2.32224 13.6093 2.32524 13.6548 2.33694 13.6984C2.34865 13.742 2.36883 13.7829 2.39634 13.8187C2.42385 13.8545 2.45815 13.8846 2.49728 13.9071L2.87464 14.125L2.49728 14.3429C2.41836 14.3885 2.36078 14.4636 2.3372 14.5516C2.31362 14.6397 2.32598 14.7335 2.37155 14.8124C2.41711 14.8914 2.49217 14.949 2.58021 14.9726C2.66824 14.9962 2.76206 14.9839 2.84103 14.9384L3.21851 14.7205V15.1562C3.21851 15.2474 3.25473 15.3349 3.3192 15.3993C3.38366 15.4638 3.4711 15.5 3.56226 15.5C3.65343 15.5 3.74087 15.4638 3.80533 15.3993C3.8698 15.3349 3.90601 15.2474 3.90601 15.1562V14.7205L4.2835 14.9384C4.3226 14.961 4.36578 14.9757 4.41055 14.9816C4.45533 14.9875 4.50083 14.9845 4.54446 14.9728C4.58808 14.9611 4.62898 14.941 4.66481 14.9135C4.70064 14.886 4.73071 14.8517 4.75329 14.8126C4.77586 14.7735 4.79051 14.7303 4.7964 14.6855C4.80229 14.6407 4.79929 14.5952 4.78759 14.5516C4.77588 14.508 4.7557 14.4671 4.72819 14.4313C4.70067 14.3955 4.66638 14.3654 4.62725 14.3429L4.24989 14.125L4.62725 13.9071C4.70621 13.8615 4.76383 13.7865 4.78744 13.6984C4.81104 13.6103 4.79871 13.5165 4.75314 13.4375Z" fill="#757575"/>
<path d="M11.5022 14.3429L11.1249 14.125L11.5022 13.9071C11.5414 13.8846 11.5757 13.8545 11.6032 13.8187C11.6307 13.7829 11.6509 13.742 11.6626 13.6984C11.6743 13.6548 11.6773 13.6093 11.6714 13.5645C11.6655 13.5197 11.6509 13.4765 11.6283 13.4374C11.6057 13.3983 11.5756 13.364 11.5398 13.3365C11.504 13.309 11.4631 13.2889 11.4195 13.2772C11.3758 13.2655 11.3303 13.2625 11.2856 13.2684C11.2408 13.2743 11.1976 13.289 11.1585 13.3116L10.781 13.5295V13.0938C10.781 13.0026 10.7448 12.9151 10.6803 12.8507C10.6159 12.7862 10.5284 12.75 10.4373 12.75C10.3461 12.75 10.2587 12.7862 10.1942 12.8507C10.1297 12.9151 10.0935 13.0026 10.0935 13.0938V13.5295L9.71603 13.3116C9.67692 13.289 9.63375 13.2743 9.58897 13.2684C9.5442 13.2625 9.4987 13.2655 9.45507 13.2772C9.41144 13.2889 9.37055 13.309 9.33471 13.3365C9.29888 13.364 9.26882 13.3983 9.24624 13.4374C9.22366 13.4765 9.20901 13.5197 9.20313 13.5645C9.19724 13.6093 9.20024 13.6548 9.21194 13.6984C9.22365 13.742 9.24383 13.7829 9.27134 13.8187C9.29885 13.8545 9.33315 13.8846 9.37228 13.9071L9.74964 14.125L9.37228 14.3429C9.29336 14.3885 9.23578 14.4636 9.2122 14.5516C9.18862 14.6397 9.20098 14.7335 9.24655 14.8124C9.29211 14.8914 9.36717 14.949 9.4552 14.9726C9.54324 14.9962 9.63706 14.9839 9.71603 14.9384L10.0935 14.7205V15.1562C10.0935 15.2474 10.1297 15.3349 10.1942 15.3993C10.2587 15.4638 10.3461 15.5 10.4373 15.5C10.5284 15.5 10.6159 15.4638 10.6803 15.3993C10.7448 15.3349 10.781 15.2474 10.781 15.1562V14.7205L11.1585 14.9384C11.1976 14.961 11.2408 14.9757 11.2856 14.9816C11.3303 14.9875 11.3758 14.9845 11.4195 14.9728C11.4631 14.9611 11.504 14.941 11.5398 14.9135C11.5756 14.886 11.6057 14.8517 11.6283 14.8126C11.6509 14.7735 11.6655 14.7303 11.6714 14.6855C11.6773 14.6407 11.6743 14.5952 11.6626 14.5516C11.6509 14.508 11.6307 14.4671 11.6032 14.4313C11.5757 14.3955 11.5414 14.3654 11.5022 14.3429Z" fill="#757575"/>
<path d="M7 3.46875C6.05866 4.32851 4.8371 4.81713 3.5625 4.84375V6.90625C3.5625 10.1473 7 11.375 7 11.375C7 11.375 10.4375 10.1473 10.4375 6.90625V4.84375C9.1629 4.81713 7.94134 4.32851 7 3.46875Z" fill="#FFB74D"/>
<path d="M6.65596 8.9683C6.61082 8.96835 6.56611 8.95948 6.5244 8.94219C6.48269 8.92491 6.44481 8.89955 6.41293 8.86758L5.38168 7.83633C5.31819 7.77168 5.2828 7.68456 5.28321 7.59394C5.28362 7.50333 5.3198 7.41654 5.38387 7.35246C5.44795 7.28838 5.53474 7.2522 5.62536 7.25179C5.71598 7.25138 5.80309 7.28677 5.86775 7.35027L6.65596 8.13847L8.47543 6.319C8.50728 6.28675 8.54518 6.26112 8.58697 6.24358C8.62876 6.22604 8.6736 6.21694 8.71892 6.2168C8.76424 6.21666 8.80914 6.22548 8.85103 6.24276C8.89293 6.26003 8.931 6.28543 8.96304 6.31747C8.99509 6.34952 9.02048 6.38759 9.03775 6.42948C9.05503 6.47138 9.06385 6.51628 9.0637 6.5616C9.06356 6.60692 9.05446 6.65176 9.03692 6.69355C9.01937 6.73533 8.99374 6.77324 8.9615 6.80508L6.899 8.86758C6.86712 8.89955 6.82924 8.92491 6.78753 8.94219C6.74582 8.95948 6.70111 8.96835 6.65596 8.9683Z" fill="#EEEEEE"/>
</svg>
