<svg width="50" height="51" viewBox="0 0 50 51" fill="none" xmlns="http://www.w3.org/2000/svg">
<path d="M7.8125 5.54883C4.36072 5.54883 1.5625 8.34705 1.5625 11.7988V29.7676C1.5625 33.2194 4.36072 36.0176 7.8125 36.0176H22.7421C22.6854 35.5045 22.6562 34.9832 22.6562 34.4551C22.6562 33.927 22.6854 33.4056 22.7421 32.8926H7.8125C6.08661 32.8926 4.6875 31.4934 4.6875 29.7676V16.4863H40.625V20.9422C41.7284 21.2606 42.7762 21.7105 43.75 22.2739V11.7988C43.75 8.34705 40.9518 5.54883 37.5 5.54883H7.8125Z" fill="#A7A7A7"/>
<path d="M7.8125 28.2051C7.8125 27.3421 8.51203 26.6426 9.375 26.6426H14.0625C14.9255 26.6426 15.625 27.3421 15.625 28.2051C15.625 29.068 14.9255 29.7676 14.0625 29.7676H9.375C8.51203 29.7676 7.8125 29.068 7.8125 28.2051Z" fill="#A7A7A7"/>
<path fill-rule="evenodd" clip-rule="evenodd" d="M36.7188 22.7363C43.1909 22.7363 48.4375 27.983 48.4375 34.4551C48.4375 40.9272 43.1909 46.1738 36.7188 46.1738C30.2466 46.1738 25 40.9272 25 34.4551C25 27.983 30.2466 22.7363 36.7188 22.7363ZM36.7188 28.9863C35.8558 28.9863 35.1562 29.6859 35.1562 30.5488C35.1562 31.4118 35.8558 32.1113 36.7188 32.1113C37.5817 32.1113 38.2812 31.4118 38.2812 30.5488C38.2812 29.6859 37.5817 28.9863 36.7188 28.9863ZM38.2812 39.9238C38.2812 40.7868 37.5817 41.4863 36.7188 41.4863C35.8558 41.4863 35.1562 40.7868 35.1562 39.9238V34.4551C35.1562 33.5921 35.8558 32.8926 36.7188 32.8926C37.5817 32.8926 38.2812 33.5921 38.2812 34.4551V39.9238Z" fill="#A7A7A7"/>
</svg>
