<svg width="37" height="37" viewBox="0 0 37 37" fill="none" xmlns="http://www.w3.org/2000/svg">
<rect x="0.5" y="0.379883" width="36" height="36" rx="18" fill="#9845B4"/>
<g clip-path="url(#clip0_16110_12380)">
<path d="M22 12.694C22.0003 12.938 22.0974 13.1719 22.27 13.3445C22.4426 13.517 22.6766 13.614 22.9207 13.6142H25.5887C25.4466 13.1667 25.2008 12.7591 24.8711 12.4248L23.1895 10.7431C22.8543 10.4151 22.4469 10.1703 22 10.0283V12.694Z" fill="white"/>
<path d="M22.9207 15.1143C22.2787 15.1143 21.663 14.8592 21.209 14.4053C20.755 13.9513 20.5 13.3356 20.5 12.6936V9.86426H14.5C13.9033 9.86426 13.331 10.1013 12.909 10.5233C12.4871 10.9452 12.25 11.5175 12.25 12.1143V24.1143C12.25 24.711 12.4871 25.2833 12.909 25.7052C13.331 26.1272 13.9033 26.3643 14.5 26.3643H23.5C24.0967 26.3643 24.669 26.1272 25.091 25.7052C25.5129 25.2833 25.75 24.711 25.75 24.1143V15.1143H22.9207ZM14.7747 12.3888C14.9058 12.2577 15.0728 12.1684 15.2547 12.1323C15.4365 12.0961 15.625 12.1147 15.7963 12.1856C15.9676 12.2566 16.114 12.3767 16.2171 12.5309C16.3201 12.6851 16.3751 12.8663 16.3751 13.0518C16.3751 13.2372 16.3201 13.4184 16.2171 13.5726C16.114 13.7268 15.9676 13.8469 15.7963 13.9179C15.625 13.9888 15.4365 14.0074 15.2547 13.9712C15.0728 13.9351 14.9058 13.8458 14.7747 13.7147C14.6876 13.6276 14.6185 13.5243 14.5714 13.4105C14.5243 13.2968 14.5 13.1749 14.5 13.0518C14.5 12.9286 14.5243 12.8067 14.5714 12.693C14.6185 12.5792 14.6876 12.4759 14.7747 12.3888ZM14.3448 16.084L18.0948 12.334C18.2358 12.1955 18.4259 12.1183 18.6236 12.1192C18.8213 12.12 19.0107 12.199 19.1505 12.3388C19.2903 12.4786 19.3692 12.668 19.3701 12.8657C19.371 13.0634 19.2938 13.2534 19.1552 13.3945L15.4052 17.1445C15.2642 17.283 15.0741 17.3603 14.8764 17.3594C14.6787 17.3585 14.4893 17.2795 14.3495 17.1397C14.2097 16.9999 14.1308 16.8106 14.1299 16.6129C14.129 16.4151 14.2062 16.2251 14.3448 16.084ZM18.7254 17.0897C18.5943 17.2208 18.4272 17.3101 18.2453 17.3463C18.0635 17.3824 17.875 17.3639 17.7037 17.2929C17.5324 17.222 17.386 17.1018 17.283 16.9476C17.18 16.7935 17.125 16.6122 17.125 16.4268C17.125 16.2414 17.18 16.0601 17.283 15.9059C17.386 15.7518 17.5324 15.6316 17.7037 15.5606C17.875 15.4897 18.0635 15.4711 18.2453 15.5073C18.4272 15.5435 18.5943 15.6327 18.7254 15.7638C18.8124 15.8509 18.8815 15.9542 18.9286 16.068C18.9757 16.1817 19 16.3037 19 16.4268C19 16.5499 18.9757 16.6718 18.9286 16.7856C18.8815 16.8993 18.8124 17.0027 18.7254 17.0897ZM22.6818 24.1143H15.3182C15.2142 24.1233 15.1095 24.1107 15.0106 24.0771C14.9118 24.0435 14.8211 23.9898 14.7441 23.9192C14.6672 23.8487 14.6057 23.7629 14.5637 23.6674C14.5217 23.5719 14.5 23.4686 14.5 23.3643C14.5 23.2599 14.5217 23.1567 14.5637 23.0611C14.6057 22.9656 14.6672 22.8798 14.7441 22.8093C14.8211 22.7388 14.9118 22.685 15.0106 22.6514C15.1095 22.6179 15.2142 22.6052 15.3182 22.6143H22.6818C22.7858 22.6052 22.8905 22.6179 22.9894 22.6514C23.0882 22.685 23.1789 22.7388 23.2559 22.8093C23.3328 22.8798 23.3943 22.9656 23.4363 23.0611C23.4783 23.1567 23.5 23.2599 23.5 23.3643C23.5 23.4686 23.4783 23.5719 23.4363 23.6674C23.3943 23.7629 23.3328 23.8487 23.2559 23.9192C23.1789 23.9898 23.0882 24.0435 22.9894 24.0771C22.8905 24.1107 22.7858 24.1233 22.6818 24.1143ZM22.6818 20.7393H15.3182C15.2142 20.7483 15.1095 20.7357 15.0106 20.7021C14.9118 20.6685 14.8211 20.6148 14.7441 20.5442C14.6672 20.4737 14.6057 20.3879 14.5637 20.2924C14.5217 20.1969 14.5 20.0936 14.5 19.9893C14.5 19.8849 14.5217 19.7817 14.5637 19.6861C14.6057 19.5906 14.6672 19.5048 14.7441 19.4343C14.8211 19.3638 14.9118 19.31 15.0106 19.2764C15.1095 19.2429 15.2142 19.2302 15.3182 19.2393H22.6818C22.7858 19.2302 22.8905 19.2429 22.9894 19.2764C23.0882 19.31 23.1789 19.3638 23.2559 19.4343C23.3328 19.5048 23.3943 19.5906 23.4363 19.6861C23.4783 19.7817 23.5 19.8849 23.5 19.9893C23.5 20.0936 23.4783 20.1969 23.4363 20.2924C23.3943 20.3879 23.3328 20.4737 23.2559 20.5442C23.1789 20.6148 23.0882 20.6685 22.9894 20.7021C22.8905 20.7357 22.7858 20.7483 22.6818 20.7393Z" fill="white"/>
</g>
<defs>
<clipPath id="clip0_16110_12380">
<rect width="17" height="18" fill="white" transform="translate(10 9.11426)"/>
</clipPath>
</defs>
</svg>
