<svg width="36" height="37" viewBox="0 0 36 37" fill="none" xmlns="http://www.w3.org/2000/svg">
<rect y="0.361328" width="36" height="36" rx="18" fill="#037764"/>
<g clip-path="url(#clip0_15285_66986)">
<path d="M25.1272 24.2045L24.3235 14.0757C24.2736 13.4231 23.7214 12.9121 23.0671 12.9121H21.4793V15.2647C21.4793 15.556 21.2435 15.7918 20.9521 15.7918C20.6611 15.7918 20.425 15.556 20.425 15.2647V12.9121H15.5751V15.2647C15.5751 15.556 15.3389 15.7918 15.0479 15.7918C14.7566 15.7918 14.5208 15.556 14.5208 15.2647V12.9121H12.933C12.2786 12.9121 11.7265 13.4231 11.6766 14.0743L10.8725 24.206C10.8103 25.0174 11.0918 25.825 11.6446 26.4218C12.1974 27.0185 12.9811 27.3612 13.7947 27.3612H22.2054C23.019 27.3612 23.8027 27.0185 24.3555 26.4217C24.9083 25.825 25.1898 25.0174 25.1272 24.2045ZM20.3751 19.0465L17.6486 21.7729C17.5456 21.8759 17.4107 21.9275 17.2757 21.9275C17.1408 21.9275 17.0058 21.8759 16.9029 21.7729L15.625 20.4951C15.4191 20.2892 15.4191 19.9556 15.625 19.7497C15.831 19.5437 16.1649 19.5437 16.3705 19.7497L17.2758 20.6546L19.6297 18.3007C19.8353 18.0951 20.1692 18.0951 20.3751 18.3007C20.581 18.5067 20.581 18.8405 20.3751 19.0465Z" fill="white"/>
<path d="M18.0002 9.36133C16.0817 9.36133 14.521 10.9224 14.521 12.8409V12.9123H15.5753V12.8409C15.5753 11.5037 16.663 10.4156 18.0003 10.4156C19.3375 10.4156 20.4252 11.5037 20.4252 12.8409V12.9123H21.4795V12.8409C21.4795 10.9224 19.9187 9.36133 18.0002 9.36133Z" fill="white"/>
</g>
<defs>
<clipPath id="clip0_15285_66986">
<rect width="18" height="18" fill="white" transform="translate(9 9.36133)"/>
</clipPath>
</defs>
</svg>
