<svg width="36" height="37" viewBox="0 0 36 37" fill="none" xmlns="http://www.w3.org/2000/svg">
<rect y="0.861328" width="36" height="36" rx="18" fill="#2196F3"/>
<g clip-path="url(#clip0_15285_66978)">
<path fill-rule="evenodd" clip-rule="evenodd" d="M16.7092 23.3061C16.5427 23.2616 16.4438 23.0905 16.4882 22.924C16.5327 22.7575 16.7038 22.6586 16.8703 22.703C17.6594 22.9145 18.4413 23.1685 19.2413 23.3339C19.6529 23.3843 19.9931 23.2527 20.1072 22.8268C20.2111 22.4393 19.9668 22.0737 19.6006 21.9472C18.5063 21.747 17.4436 21.3628 16.6081 21.0607C15.3936 20.6217 15.0667 20.5208 13.8697 21.2139L11.6218 22.5153L13.4384 25.7251L13.6981 25.5752C13.7723 25.5325 13.8567 25.5239 13.9334 25.5443L18.7331 26.8294C19.3409 26.9923 19.9164 26.9186 20.4538 26.5878C22.6593 25.23 24.8653 23.8726 27.0707 22.5146C27.4114 22.3048 27.4564 21.7338 27.2544 21.4084C26.8116 20.695 25.5933 21.2827 25.0823 21.5802L21.4361 23.7039C20.8633 24.0375 20.2566 24.129 19.6056 24.0249C18.6032 23.8563 17.6825 23.5668 16.7092 23.3061ZM20.5131 12.2503L21.7186 12.9463L17.9927 15.0975V16.724C17.9927 16.767 18.014 16.8039 18.0513 16.8255L18.8974 17.314C18.9758 17.3593 19.0732 17.303 19.0732 17.2125V15.7213L22.7992 13.5701L24.0047 14.2661C24.0793 14.3092 24.1219 14.383 24.1219 14.4691V18.5009C24.1219 18.5869 24.0793 18.6608 24.0047 18.7038L20.5131 20.7197C20.4386 20.7628 20.3533 20.7628 20.2788 20.7197L16.7872 18.7038C16.7126 18.6608 16.67 18.5869 16.67 18.5009V14.4691C16.67 14.383 16.7126 14.3092 16.7872 14.2661L20.2788 12.2503C20.3532 12.2072 20.4386 12.2072 20.5131 12.2503ZM22.9205 10.4821C23.0425 10.3601 23.2404 10.3601 23.3624 10.4821C23.4844 10.6041 23.4844 10.802 23.3624 10.924L22.4422 11.8442C22.3202 11.9662 22.1223 11.9662 22.0003 11.8442C21.8783 11.7221 21.8783 11.5243 22.0003 11.4023L22.9205 10.4821ZM17.4294 10.924C17.3074 10.802 17.3074 10.6041 17.4294 10.4821C17.5515 10.3601 17.7493 10.3601 17.8713 10.4821L18.7915 11.4023C18.9135 11.5243 18.9135 11.7222 18.7915 11.8442C18.6695 11.9662 18.4716 11.9662 18.3496 11.8442L17.4294 10.924ZM20.0834 9.64258C20.0834 9.47 20.2233 9.33008 20.3959 9.33008C20.5685 9.33008 20.7084 9.47 20.7084 9.64258V10.9439C20.7084 11.1165 20.5685 11.2564 20.3959 11.2564C20.2233 11.2564 20.0834 11.1165 20.0834 10.9439V9.64258ZM10.5784 21.9405L13.4773 27.0626C13.6174 27.3103 13.5295 27.6276 13.2818 27.7678L12.2957 28.3258C12.0481 28.466 11.7307 28.378 11.5906 28.1304L8.69173 23.0082C8.55157 22.7606 8.6395 22.4432 8.88719 22.3031L9.87321 21.745C10.1209 21.6048 10.4382 21.6928 10.5784 21.9405ZM9.95282 22.7775C9.76044 22.8056 9.62727 22.9844 9.6554 23.1768C9.68352 23.3691 9.86227 23.5023 10.0547 23.4742C10.2471 23.4461 10.3802 23.2673 10.3521 23.0749C10.324 22.8825 10.1452 22.7494 9.95282 22.7775Z" fill="white"/>
</g>
<defs>
<clipPath id="clip0_15285_66978">
<rect width="20" height="20" fill="white" transform="translate(8 8.86133)"/>
</clipPath>
</defs>
</svg>
