<svg width="36" height="37" viewBox="0 0 36 37" fill="none" xmlns="http://www.w3.org/2000/svg">
<rect y="0.361328" width="36" height="36" rx="18" fill="#2557B7"/>
<g clip-path="url(#clip0_15285_66999)">
<path d="M16.7397 14.8737L18.0001 14.3512L19.2604 14.8737C19.4293 14.9434 19.6232 14.9214 19.7723 14.8132C19.9206 14.7053 20.0022 14.5277 19.9878 14.3449L19.8806 12.9848L20.7669 11.9471C20.886 11.8079 20.924 11.6163 20.8674 11.4418C20.8108 11.2671 20.6674 11.1345 20.4888 11.092L19.1623 10.7734L18.4497 9.60985C18.26 9.27847 17.7401 9.2785 17.5504 9.60985L16.8378 10.7734L15.5113 11.092C15.3328 11.1345 15.1893 11.2671 15.1327 11.4418C15.0761 11.6163 15.1141 11.8079 15.2333 11.9471L16.1195 12.9848L16.0123 14.3449C15.9979 14.5277 16.0795 14.7053 16.2278 14.8132C16.3766 14.9208 16.5703 14.944 16.7397 14.8737Z" fill="white"/>
<path d="M26.9743 13.5164C26.9177 13.3416 26.7743 13.209 26.5957 13.1665L25.2693 12.8479L24.5566 11.6844C24.4607 11.5279 24.2905 11.4326 24.107 11.4326C23.9235 11.4326 23.7533 11.5279 23.6573 11.6844L22.9447 12.8479L21.6183 13.1665C21.4397 13.209 21.2962 13.3416 21.2396 13.5164C21.183 13.6908 21.221 13.8824 21.3402 14.0217L22.2265 15.0593L22.1193 16.4194C22.1048 16.6022 22.1864 16.7798 22.3348 16.8877C22.4835 16.9954 22.6772 17.0186 22.8466 16.9482L24.107 16.4257L25.3673 16.9482C25.5362 17.0179 25.7301 16.9959 25.8792 16.8877C26.0276 16.7798 26.1091 16.6022 26.0947 16.4194L25.9875 15.0593L26.8738 14.0217C26.993 13.8824 27.0309 13.6908 26.9743 13.5164Z" fill="white"/>
<path d="M13.3553 16.9883C13.465 16.9883 13.5736 16.9542 13.6653 16.8877C13.8137 16.7798 13.8953 16.6022 13.8809 16.4194L13.7736 15.0593L14.6599 14.0217C14.7791 13.8824 14.8171 13.6908 14.7605 13.5164C14.7039 13.3416 14.5604 13.209 14.3818 13.1665L13.0554 12.8479L12.3428 11.6844C12.2468 11.5279 12.0766 11.4326 11.8931 11.4326C11.7096 11.4326 11.5394 11.5279 11.4435 11.6844L10.7309 12.8479L9.40441 13.1665C9.22582 13.209 9.08238 13.3416 9.02578 13.5164C8.96918 13.6908 9.00714 13.8824 9.12632 14.0217L10.0126 15.0593L9.90539 16.4194C9.89097 16.6022 9.97254 16.7798 10.1209 16.8877C10.2696 16.9954 10.4633 17.0186 10.6328 16.9482L11.8931 16.4257L13.1535 16.9482C13.2185 16.9749 13.2871 16.9883 13.3553 16.9883Z" fill="white"/>
<path d="M24.2079 22.0465L23.5839 25.6229C23.4271 26.5184 22.6498 27.1716 21.741 27.1716H18.1421C17.8907 27.1716 17.6442 27.1213 17.4161 27.0274C17.1879 26.9325 16.978 26.794 16.8005 26.6161C16.7896 26.6052 16.7783 26.5943 16.7671 26.5834V20.6427L16.791 20.6343C17.2983 20.4522 17.6938 20.0457 17.8612 19.5332L18.1758 18.5263L18.5998 17.1696C18.7246 16.7882 19.1345 16.5804 19.5163 16.7052C20.2152 16.933 20.6596 17.5827 20.6596 18.2798C20.6596 18.4507 20.6329 18.6244 20.5766 18.7952L20.1041 20.3456H22.7785C23.6799 20.3456 24.3633 21.1588 24.2079 22.0465Z" fill="white"/>
<path d="M15.1881 27.3608H12.747C12.4574 27.3608 12.2227 27.1261 12.2227 26.8365V20.5146C12.2227 20.225 12.4574 19.9902 12.747 19.9902H15.1881C15.4776 19.9902 15.7124 20.225 15.7124 20.5146V26.8365C15.7124 27.1261 15.4776 27.3608 15.1881 27.3608Z" fill="white"/>
</g>
<defs>
<clipPath id="clip0_15285_66999">
<rect width="18" height="18" fill="white" transform="translate(9 9.36133)"/>
</clipPath>
</defs>
</svg>
